<?xml version="1.0" standalone="no"?>
<!DOCTYPE svg PUBLIC "-//W3C//DTD SVG 1.1//EN" "http://www.w3.org/Graphics/SVG/1.1/DTD/svg11.dtd" >
<svg xmlns="http://www.w3.org/2000/svg">
<metadata>
Created by FontPrep 20130207 at Sat Jun 27 20:01:35 2015
 By Johannes Lohbihler
Copyright (c) 2015 Monotype Imaging Inc.  All rights reserved.
</metadata>
<defs>
<font id="684db51384b8d74cdadbb18fdbc9cf89" horiz-adv-x='1024' >
  <font-face 
    font-family="NeueHaasUnicaW1G-Bold"
    font-weight="700"
    font-stretch="normal"
    units-per-em="2048"
    panose-1="2 11 8 4 3 2 6 2 2 3"
    ascent="1565"
    descent="-483"
    x-height="1040"
    cap-height="1458"
    bbox="-1024 -563 2374 2286"
    underline-thickness="102"
    underline-position="-153"
    unicode-range="U+0020-FEFF"
  />
<missing-glyph horiz-adv-x="1314" 
d="M514 133v229h262v-229h-262zM1030 1016q0 -84 -30.5 -142.5t-114.5 -136.5t-109.5 -133t-25.5 -155h-209q-2 23 -2 99t26.5 138t98.5 136t90 107.5t18 82.5t-28 77.5t-88 28.5q-122 0 -126 -164h-256q2 180 103 275.5t279 95.5t276 -83t98 -226zM164 1315v-1172
q0 -68 39 -106.5t106 -38.5h697q68 0 106.5 39t38.5 106v1172q0 68 -39 106.5t-106 38.5h-697q-67 0 -106 -39t-39 -106zM1282 1315v-1172q0 -127 -74.5 -201.5t-201.5 -74.5h-697q-127 0 -201.5 74.5t-74.5 201.5v1172q0 127 74.5 201.5t201.5 74.5h697q127 0 201.5 -74.5
t74.5 -201.5z" />
    <glyph glyph-name="f_f" unicode="ff" horiz-adv-x="1335" 
d="M193 1135q0 340 344 340q72 0 141 -17v-203q-18 7 -74 7t-92.5 -38t-36.5 -124v-60h354v95q0 170 88.5 255t256.5 85q72 0 141 -17v-203q-17 7 -73 7t-93 -38t-37 -124v-60h197v-213h-197v-827h-283v827h-354v-827h-282v827h-173v213h173v95z" />
    <glyph glyph-name="f_f_i" unicode="ffi" horiz-adv-x="1900" 
d="M1761 1040v-1040h-286v1040h286zM1761 1212h-286v246h286v-246zM193 1135q0 340 344 340q72 0 141 -17v-203q-18 7 -74 7t-92.5 -38t-36.5 -124v-60h354v95q0 170 88.5 255t256.5 85q72 0 141 -17v-203q-17 7 -73 7t-93 -38t-37 -124v-60h197v-213h-197v-827h-283v827
h-354v-827h-282v827h-173v213h173v95z" />
    <glyph glyph-name="f_f_l" unicode="ffl" horiz-adv-x="1900" 
d="M193 1135q0 340 344 340q72 0 141 -17v-203q-18 7 -74 7t-92 -38q-37 -38 -37 -124v-60h354v95q1 170 89 255t256 85q72 0 141 -17v-203q-17 7 -73 7t-93 -38t-37 -124v-60h197v-213h-197v-827h-283v827h-354v-827h-282v827h-173v213h173v95zM1475 0v1458h286v-1458h-286
z" />
    <glyph glyph-name="f_i" unicode="fi" horiz-adv-x="1263" 
d="M1124 1040v-1040h-286v1040h286zM1124 1212h-286v246h286v-246zM193 1135q0 340 344 340q72 0 141 -17v-203q-18 7 -74 7t-92.5 -38t-36.5 -124v-60h197v-213h-197v-827h-282v827h-173v213h173v95z" />
    <glyph glyph-name="f_l" unicode="fl" horiz-adv-x="1263" 
d="M193 1135q0 340 344 340q72 0 141 -17v-203q-18 7 -74 7t-92 -38q-37 -38 -37 -124v-60h197v-213h-197v-827h-282v827h-173v213h173v95zM838 0v1458h286v-1458h-286z" />
    <glyph glyph-name=".notdef" horiz-adv-x="1314" 
d="M514 133v229h262v-229h-262zM1030 1016q0 -84 -30.5 -142.5t-114.5 -136.5t-109.5 -133t-25.5 -155h-209q-2 23 -2 99t26.5 138t98.5 136t90 107.5t18 82.5t-28 77.5t-88 28.5q-122 0 -126 -164h-256q2 180 103 275.5t279 95.5t276 -83t98 -226zM164 1315v-1172
q0 -68 39 -106.5t106 -38.5h697q68 0 106.5 39t38.5 106v1172q0 68 -39 106.5t-106 38.5h-697q-67 0 -106 -39t-39 -106zM1282 1315v-1172q0 -127 -74.5 -201.5t-201.5 -74.5h-697q-127 0 -201.5 74.5t-74.5 201.5v1172q0 127 74.5 201.5t201.5 74.5h697q127 0 201.5 -74.5
t74.5 -201.5z" />
    <glyph glyph-name=".null" horiz-adv-x="0" 
 />
    <glyph glyph-name="nonmarkingreturn" horiz-adv-x="681" 
 />
    <glyph glyph-name="NULL" 
 />
    <glyph glyph-name="NULL" 
 />
    <glyph glyph-name="space" unicode=" " horiz-adv-x="471" 
 />
    <glyph glyph-name="exclam" unicode="!" horiz-adv-x="663" 
d="M174 0v270h315v-270h-315zM221 406l-63 1052h348l-64 -1052h-221z" />
    <glyph glyph-name="quotedbl" unicode="&#x22;" horiz-adv-x="892" 
d="M154 899l-31 559h270l-31 -559h-208zM530 899l-30 559h270l-31 -559h-209z" />
    <glyph glyph-name="numbersign" unicode="#" horiz-adv-x="1376" 
d="M594 823l-41 -264h227l41 264h-227zM1026 559h205l-33 -205h-205l-55 -354h-246l56 354h-228l-55 -354h-246l55 354h-202l32 205h203l43 264h-205l33 205h205l55 352h246l-55 -352h227l55 352h246l-55 -352h203l-33 -205h-203z" />
    <glyph glyph-name="dollar" unicode="$" 
d="M879 373q0 66 -44 104.5t-139 69.5v-359q183 31 183 185zM371 1032q0 -66 37.5 -103.5t121.5 -64.5v332q-76 -12 -117.5 -55t-41.5 -109zM696 -203h-166v172q-219 18 -337.5 141t-118.5 341h272q0 -221 184 -261v404q-133 39 -223 82t-152.5 123t-62.5 205
q0 172 119 281.5t319 125.5v154h166v-156q414 -47 414 -455h-268q0 193 -146 236v-373q143 -37 237.5 -79t158 -126t63.5 -242t-124 -268t-335 -131v-174z" />
    <glyph glyph-name="percent" unicode="%" horiz-adv-x="1861" 
d="M1313 372.5q0 -241.5 118.5 -241.5t118.5 241.5t-118.5 241.5t-118.5 -241.5zM1769 372.5q0 -194.5 -88 -300t-249.5 -105.5t-249.5 105.5t-88 300t88 300t249.5 105.5t249.5 -105.5t88 -300zM311 1007.5q0 -241.5 119 -241.5t119 241.5t-119 241.5t-119 -241.5z
M768 1007.5q0 -194.5 -88 -300t-250 -105.5t-250 105.5t-88 300t88 300t250 105.5t250 -105.5t88 -300zM461 -61l772 1503h168l-772 -1503h-168z" />
    <glyph glyph-name="ampersand" unicode="&#x26;" horiz-adv-x="1542" 
d="M391 404q0 -78 68.5 -134.5t192.5 -56.5t231 72l-338 348q-84 -47 -119 -99t-35 -130zM522 1128q0 -56 25.5 -99.5t97.5 -117.5q147 102 148 215q0 59 -37.5 95t-99.5 36t-98 -36.5t-36 -92.5zM618 -33q-254 0 -392 115t-138 311q0 291 301 420q-84 88 -116.5 157.5
t-32.5 168.5q0 160 114.5 256t303 96t299 -91t110.5 -247q0 -117 -60.5 -211t-195.5 -180l252 -260q66 117 65 321h285q-6 -313 -160 -518l297 -305h-389l-108 113q-76 -70 -190.5 -108t-244.5 -38z" />
    <glyph glyph-name="quotesingle" unicode="'" horiz-adv-x="516" 
d="M154 899l-31 559h270l-31 -559h-208z" />
    <glyph glyph-name="parenleft" unicode="(" horiz-adv-x="671" 
d="M393 608q0 -246 51.5 -462t165.5 -447h-235q-150 215 -219.5 432t-69.5 477t69.5 478.5t219.5 431.5h235q-114 -234 -165.5 -449t-51.5 -461z" />
    <glyph glyph-name="parenright" unicode=")" horiz-adv-x="671" 
d="M586 608q0 -260 -70 -477t-219 -432h-236q115 231 166.5 447t51.5 462t-51.5 461t-166.5 449h236q149 -213 219 -431.5t70 -478.5z" />
    <glyph glyph-name="asterisk" unicode="*" horiz-adv-x="872" 
d="M758 1300l61 -196l-270 -53l186 -203l-164 -119l-135 240l-135 -240l-164 119l187 203l-271 53l62 196l252 -116l-33 274h205l-33 -274z" />
    <glyph glyph-name="plus" unicode="+" horiz-adv-x="1159" 
d="M1028 760v-223h-338v-338h-221v338h-338v223h338v338h221v-338h338z" />
    <glyph glyph-name="comma" unicode="," horiz-adv-x="528" 
d="M106 0v342h316v-342l-152 -352h-172l113 352h-105z" />
    <glyph glyph-name="hyphen" unicode="-" horiz-adv-x="655" 
d="M61 485v226h533v-226h-533z" />
    <glyph glyph-name="period" unicode="." horiz-adv-x="528" 
d="M106 0v342h316v-342h-316z" />
    <glyph glyph-name="slash" unicode="/" horiz-adv-x="999" 
d="M61 -182l611 1708h223l-610 -1708h-224z" />
    <glyph glyph-name="zero" unicode="0" 
d="M371 688q0 -230 62.5 -353.5t181 -123.5t181 124t62.5 353t-62.5 353t-181 124t-181 -123.5t-62.5 -353.5zM1165 689q0 -347 -142 -534.5t-408.5 -187.5t-409 187.5t-142.5 534.5t143.5 535.5t408 188.5t407.5 -188.5t143 -535.5z" />
    <glyph glyph-name="one" unicode="1" 
d="M530 0v936h-333v209q174 0 258 55t102 180h268v-1380h-295z" />
    <glyph glyph-name="two" unicode="2" 
d="M1098 1018q0 -217 -116 -314.5t-238 -167.5t-186 -119.5t-89 -88.5t-27 -86h691v-242h-1043q-2 16 -2 45q0 143 33 245.5t119 193t222 170.5t232.5 150.5t96.5 201.5q0 74 -47.5 118.5t-131.5 44.5q-205 0 -209 -221h-297q6 225 139 345t361 120t360 -106.5t132 -288.5z
" />
    <glyph glyph-name="three" unicode="3" 
d="M1106 1024q0 -117 -58.5 -190.5t-183.5 -118.5v-4q135 -45 198.5 -127t63.5 -209t-62.5 -218t-177 -140.5t-265.5 -49.5q-258 0 -396.5 124t-138.5 360h297q0 -240 238 -240q94 0 150 48t56 126q0 186 -276 186h-43v238h43q121 0 190.5 50t69.5 132t-55.5 130t-147.5 48
q-209 0 -209 -227h-297q0 223 135 347t371 124t367 -105.5t131 -283.5z" />
    <glyph glyph-name="four" unicode="4" 
d="M705 541v168q0 244 14 458h-4q-121 -207 -277 -434l-135 -192h402zM991 309v-309h-295v309h-667v246l565 825h397v-839h195v-232h-195z" />
    <glyph glyph-name="five" unicode="5" 
d="M1128 454q0 -142 -66.5 -254t-187 -172.5t-278.5 -60.5q-227 0 -361.5 110.5t-134.5 301.5h297q2 -80 60.5 -125t152.5 -45t152.5 61.5t58.5 177.5t-59.5 176t-148.5 60t-141 -39t-66 -104l-293 18l77 821h869v-239h-633l-35 -326h4q101 105 253 105q153 0 258.5 -57.5
t163.5 -162t58 -246.5z" />
    <glyph glyph-name="six" unicode="6" 
d="M420 438q0 -106 55 -167.5t151 -61.5t153 62.5t57 170.5t-56.5 172t-150.5 64t-151.5 -67t-57.5 -173zM647 1171q-119 0 -193.5 -101t-80.5 -312h4q121 143 315 143q133 0 235.5 -57.5t159 -159.5t56.5 -239t-65.5 -247t-183.5 -170.5t-269 -60.5q-256 0 -393.5 172.5
t-137.5 524.5t148.5 550.5t421.5 198.5q204 0 327 -108.5t133 -300.5h-299q-20 167 -178 167z" />
    <glyph glyph-name="seven" unicode="7" 
d="M88 1130v250h1030v-254q-153 -219 -270 -514t-172 -612h-322q72 352 204 651t276 479h-746z" />
    <glyph glyph-name="eight" unicode="8" 
d="M385 400q0 -87 61.5 -138t168 -51t168 51t61.5 138t-62.5 139.5t-167 52.5t-167 -52.5t-62.5 -139.5zM401 1004q0 -80 57.5 -128.5t156 -48.5t155.5 48.5t57 128.5t-58 125t-154.5 45t-155 -45t-58.5 -125zM1112 1033q0 -114 -66.5 -196.5t-183.5 -117.5v-4
q129 -35 204 -125t75 -219q0 -188 -143.5 -296t-383 -108t-383 107.5t-143.5 296.5q0 129 75 219t204 125v4q-117 35 -183.5 118t-66.5 197t63.5 199.5t176 132.5t258 47t258 -47t176 -133t63.5 -200z" />
    <glyph glyph-name="nine" unicode="9" 
d="M768 942q0 106 -55.5 167.5t-150.5 61.5t-152.5 -62t-57.5 -170t56.5 -172.5t150.5 -64.5t151.5 67t57.5 173zM541 209q119 0 193.5 101.5t80.5 312.5h-4q-121 -143 -315 -144q-133 0 -235.5 57.5t-159 160t-56.5 239.5t65.5 246.5t183.5 170t269 60.5
q256 0 393.5 -172.5t137.5 -524.5t-148.5 -550.5t-421.5 -198.5q-205 0 -327.5 108.5t-133.5 301.5h299q10 -82 56.5 -125t122.5 -43z" />
    <glyph glyph-name="colon" unicode=":" horiz-adv-x="528" 
d="M106 0v342h316v-342h-316zM106 698v342h316v-342h-316z" />
    <glyph glyph-name="semicolon" unicode=";" horiz-adv-x="528" 
d="M106 0v342h316v-342l-152 -352h-172l113 352h-105zM106 698v342h316v-342h-316z" />
    <glyph glyph-name="less" unicode="&#x3c;" horiz-adv-x="1159" 
d="M395 651v-4l633 -252v-241l-897 370v250l897 371v-242z" />
    <glyph glyph-name="equal" unicode="=" horiz-adv-x="1159" 
d="M131 342v223h897v-223h-897zM131 731v223h897v-223h-897z" />
    <glyph glyph-name="greater" unicode="&#x3e;" horiz-adv-x="1159" 
d="M1028 524l-897 -370v241l633 252v4l-633 252v242l897 -371v-250z" />
    <glyph glyph-name="question" unicode="?" horiz-adv-x="1120" 
d="M379 0v270h315v-270h-315zM1044 1108q0 -106 -40 -178t-140 -158t-137 -134t-51 -104.5t-14 -152.5h-244q-2 25 -2 97t15 137t56 123t125 134t108.5 120t24.5 109t-46 102.5t-139 37.5q-190 0 -200 -207h-299q6 223 136.5 339t362.5 116t358 -102.5t126 -278.5z" />
    <glyph glyph-name="at" unicode="@" horiz-adv-x="1785" 
d="M1024 668q0 182 -140 182q-72 0 -127 -79t-55 -197q0 -220 136 -220q78 0 132 82t54 232zM1241 453q0 -123 88 -123t146.5 88t58.5 261t-76 307t-215 208t-337 74t-348 -91.5t-228 -250t-78 -356.5t78 -341t221 -219t336 -76q266 0 446 109l80 -156q-221 -127 -526 -127
q-246 0 -429.5 97.5t-282.5 279.5t-99 427t102.5 444.5t293 316.5t436.5 117t427 -95.5t278 -269t97 -375.5t-57.5 -323t-151.5 -179.5t-209 -58.5q-212 0 -254 170h-4q-86 -170 -268 -170q-143 0 -225 104.5t-84 299.5q2 152 53 269.5t140 182t204 64.5q158 0 215 -139h4
q18 94 25 118h227q-84 -413 -84 -587z" />
    <glyph glyph-name="A" unicode="A" horiz-adv-x="1429" 
d="M883 711q-100 319 -166 569h-4q-76 -287 -164 -569l-31 -97h395zM436 356l-114 -356h-316l506 1458h406l505 -1458h-315l-113 356h-559z" />
    <glyph glyph-name="B" unicode="B" horiz-adv-x="1331" 
d="M469 248h223q137 0 198.5 44t61.5 141t-62.5 142.5t-205.5 45.5h-215v-373zM469 858h213q131 0 191.5 43t60.5 135t-56.5 134t-181.5 42h-227v-354zM1223 1083q0 -245 -254 -340v-4q150 -33 219 -115.5t69 -224.5q0 -184 -138 -291.5t-382 -107.5h-569v1458h524
q264 0 397.5 -100.5t133.5 -274.5z" />
    <glyph glyph-name="C" unicode="C" horiz-adv-x="1435" 
d="M743 1225q-166 0 -261 -132t-95 -363.5t93 -364t257 -132.5q129 0 210 73t97 206h310q-20 -258 -184 -401.5t-433 -143.5q-203 0 -352 92.5t-229 263.5t-80 405t81 406.5t231.5 264.5t342 92t325.5 -67.5t209.5 -190.5t82.5 -281h-304q-14 127 -94 200t-207 73z" />
    <glyph glyph-name="D" unicode="D" horiz-adv-x="1503" 
d="M467 258h182q236 0 351.5 117t115.5 354.5t-115.5 354t-351.5 116.5h-182v-942zM1427 729q0 -350 -200.5 -539.5t-573.5 -189.5h-485v1458h485q373 0 573.5 -189.5t200.5 -539.5z" />
    <glyph glyph-name="E" unicode="E" horiz-adv-x="1296" 
d="M469 1200v-330h659v-256h-659v-356h725v-258h-1026v1458h1008v-258h-707z" />
    <glyph glyph-name="F" unicode="F" horiz-adv-x="1196" 
d="M469 1200v-397h621v-258h-621v-545h-301v1458h973v-258h-672z" />
    <glyph glyph-name="G" unicode="G" horiz-adv-x="1523" 
d="M1112 158q-134 -187 -448 -187q-164 0 -301.5 91.5t-212 260.5t-74.5 402.5t84 407.5t240.5 266t367.5 92q266 0 426 -130t182 -357h-323q-41 221 -285 221q-176 0 -278.5 -134.5t-102.5 -371t100.5 -373.5t266.5 -137q330 0 336 346h-347v246h627v-801h-254v158h-4z" />
    <glyph glyph-name="H" unicode="H" horiz-adv-x="1536" 
d="M1067 0v629h-598v-629h-301v1458h301v-571h598v571h301v-1458h-301z" />
    <glyph glyph-name="I" unicode="I" horiz-adv-x="636" 
d="M168 0v1458h301v-1458h-301z" />
    <glyph glyph-name="J" unicode="J" horiz-adv-x="802" 
d="M164 -14q-78 0 -133 16v256q55 -10 114.5 -10t105.5 24q93 48 93 256v930h301v-993q0 -248 -115.5 -363.5t-365.5 -115.5z" />
    <glyph glyph-name="K" unicode="K" horiz-adv-x="1357" 
d="M469 688v-688h-301v1458h301v-641h4l477 641h353l-555 -692l602 -766h-383l-494 688h-4z" />
    <glyph glyph-name="L" unicode="L" horiz-adv-x="1177" 
d="M1157 258v-258h-989v1458h301v-1200h688z" />
    <glyph glyph-name="M" unicode="M" horiz-adv-x="2015" 
d="M1559 0v725q0 274 12 547h-4q-68 -258 -156 -537l-231 -735h-344l-232 735q-88 279 -155 537h-5q12 -272 13 -547v-725h-289v1458h483l211 -670q86 -274 144 -536h4q57 262 143 536l211 670h483v-1458h-288z" />
    <glyph glyph-name="N" unicode="N" horiz-adv-x="1589" 
d="M457 0h-289v1458h428l283 -592q156 -330 266 -602h4q-16 338 -16 633v561h288v-1458h-428l-282 592q-156 330 -267 602h-4q16 -338 17 -633v-561z" />
    <glyph glyph-name="O" unicode="O" horiz-adv-x="1531" 
d="M387 729.5q0 -231.5 101.5 -364t277.5 -132.5t277.5 132.5t101.5 364t-101.5 363.5t-277.5 132t-277.5 -132t-101.5 -363.5zM1456 729.5q0 -235.5 -83 -406.5t-238.5 -263.5t-368.5 -92.5t-368.5 92.5t-238.5 263.5t-83 406.5t83 406.5t238.5 263t368.5 92t368.5 -92
t238.5 -263t83 -406.5z" />
    <glyph glyph-name="P" unicode="P" horiz-adv-x="1302" 
d="M469 766h209q268 0 268 221t-268 221h-209v-442zM1253 987q0 -217 -137 -344t-397 -127h-250v-516h-301v1458h551q260 0 397 -127t137 -344z" />
    <glyph glyph-name="Q" unicode="Q" horiz-adv-x="1531" 
d="M1157 740q0 214 -102.5 349.5t-282.5 135.5t-282.5 -135.5t-102.5 -369t102.5 -368.5t282.5 -135q84 0 152 31l-203 225l166 152l198 -224q72 125 72 339zM1456 729q0 -348 -176 -547l166 -186l-160 -150l-178 199q-145 -78 -350 -78t-360.5 92.5t-238.5 263.5t-83 406.5
t83 406.5t238.5 263t368.5 92t368.5 -92t238.5 -263t83 -407z" />
    <glyph glyph-name="R" unicode="R" horiz-adv-x="1363" 
d="M469 797h213q252 0 252 215q0 203 -268 202h-197v-417zM1237 1047q0 -133 -71.5 -227.5t-194.5 -129.5v-4q78 -29 123 -87t96 -196l145 -403h-327l-117 346q-41 119 -95.5 165t-160.5 46h-166v-557h-301v1458h537q270 0 401 -106.5t131 -304.5z" />
    <glyph glyph-name="S" unicode="S" horiz-adv-x="1290" 
d="M369 479q0 -268 282 -268q115 0 183.5 50t68.5 123.5t-30.5 109.5t-88 56.5t-209 59.5t-256 82t-173 130t-68.5 225.5t67.5 236.5t190.5 152.5t280 54.5q273 0 413 -122t140 -357h-305q0 115 -65.5 177t-177 62t-173 -44t-61.5 -107t31 -98t96.5 -61t213 -62.5
t251.5 -80.5q238 -101 238 -370q0 -137 -72 -241.5t-201 -162t-297 -57.5q-276 0 -433 133t-157 379h312z" />
    <glyph glyph-name="T" unicode="T" horiz-adv-x="1259" 
d="M780 1200v-1200h-301v1200h-459v258h1219v-258h-459z" />
    <glyph glyph-name="U" unicode="U" horiz-adv-x="1470" 
d="M735.5 -33q-278.5 0 -429 151.5t-150.5 438.5v901h301v-891q0 -162 71.5 -248t206.5 -86t207 86.5t72 247.5v891h301v-901q0 -287 -150.5 -438.5t-429 -151.5z" />
    <glyph glyph-name="V" unicode="V" horiz-adv-x="1306" 
d="M465 0l-453 1458h307l175 -567q94 -299 157 -596h4q57 260 158 596l174 567h307l-452 -1458h-377z" />
    <glyph glyph-name="W" unicode="W" horiz-adv-x="1957" 
d="M1243 0l-135 578q-76 322 -127 624h-4q-51 -303 -127 -624l-135 -578h-391l-306 1458h295l105 -530q66 -332 106 -631h4q55 309 134 631l126 530h381l127 -530q78 -322 134 -631h4q41 299 106 631l105 530h294l-305 -1458h-391z" />
    <glyph glyph-name="X" unicode="X" horiz-adv-x="1290" 
d="M1284 0h-350l-287 516h-4l-287 -516h-350l457 741l-434 717h344l270 -504h4l271 504h344l-435 -717z" />
    <glyph glyph-name="Y" unicode="Y" horiz-adv-x="1306" 
d="M803 0h-301v567l-498 891h338l139 -274q92 -182 170 -371h4q78 188 170 371l140 274h335l-497 -891v-567z" />
    <glyph glyph-name="Z" unicode="Z" horiz-adv-x="1191" 
d="M399 254h752v-254h-1110v264l717 936v4h-684v254h1042v-264l-717 -936v-4z" />
    <glyph glyph-name="bracketleft" unicode="[" horiz-adv-x="673" 
d="M414 1352v-1491h229v-166h-500v1823h500v-166h-229z" />
    <glyph glyph-name="backslash" unicode="\" horiz-adv-x="999" 
d="M938 -182h-223l-611 1708h224z" />
    <glyph glyph-name="bracketright" unicode="]" horiz-adv-x="673" 
d="M530 -305h-499v166h229v1491h-229v166h499v-1823z" />
    <glyph glyph-name="asciicircum" unicode="^" horiz-adv-x="1015" 
d="M735 760l-225 473h-4l-225 -473h-265l340 698h303l340 -698h-264z" />
    <glyph glyph-name="underscore" unicode="_" horiz-adv-x="1024" 
d="M0 -258v156h1024v-156h-1024z" />
    <glyph glyph-name="grave" unicode="`" horiz-adv-x="716" 
d="M614 1159h-225l-287 299h355z" />
    <glyph glyph-name="a" unicode="a" horiz-adv-x="1120" 
d="M340 312.5q0 -60.5 40 -96.5t100 -36q119 0 177 60q35 35 47.5 78.5t12.5 119.5v39q-275 -18 -338 -71q-39 -33 -39 -93.5zM547 1073q446 0 446 -411v-377q0 -176 29 -285h-258q-14 59 -14 139h-5q-115 -164 -337 -164q-162 0 -258.5 89.5t-96.5 224.5q-1 135 93 217
q135 118 571 145v37q0 94 -45 139t-125 45t-124 -42t-48 -115h-279q8 158 123 258t328 100z" />
    <glyph glyph-name="b" unicode="b" horiz-adv-x="1224" 
d="M412 520.5q0 -153.5 59 -240.5t159 -87t162 89t62 238.5t-62 238.5t-162 89t-159 -87t-59 -240.5zM744 1067q110 0 207.5 -67.5t149.5 -191.5t52 -288t-53 -287.5t-151.5 -191.5t-208.5 -68q-219 0 -318 164h-4v-137h-279v1458h287v-543h4q99 152 314 152z" />
    <glyph glyph-name="c" unicode="c" horiz-adv-x="1150" 
d="M583 852q-93 0 -152.5 -89t-59.5 -242.5t59 -243t152.5 -89.5t145.5 58.5t58 161.5h301q-16 -199 -149 -320t-342 -121q-158 0 -276.5 68.5t-183 193.5t-64.5 291t64.5 291t183 193.5t266 68.5t255 -53t172 -149.5t74.5 -217.5h-299q-8 92 -60 145.5t-145 53.5z" />
    <glyph glyph-name="d" unicode="d" horiz-adv-x="1224" 
d="M371 520.5q0 -149.5 61.5 -238.5t161.5 -89t159.5 87t59.5 240.5t-59.5 240.5t-159.5 87t-161.5 -89t-61.5 -238.5zM803 137q-99 -164 -317 -164q-110 0 -209 68t-152 191.5t-53 287.5t52 288t149 191.5t207 67.5q215 0 315 -152h4v543h286v-1458h-278v137h-4z" />
    <glyph glyph-name="e" unicode="e" horiz-adv-x="1173" 
d="M588 870q-90 0 -150.5 -57t-77.5 -172h455q-12 113 -74.5 171t-152.5 58zM575.5 -33q-147.5 0 -264 71t-178 197.5t-61.5 287.5t61.5 284t178 194.5t285.5 71.5t296 -93t176 -253q33 -104 33 -266h-748q6 -152 70.5 -221.5t157 -69.5t147.5 40t66 105h292
q-20 -96 -86.5 -176t-172 -126t-253 -46z" />
    <glyph glyph-name="f" unicode="f" horiz-adv-x="698" 
d="M193 1135q0 340 344 340q72 0 141 -17v-203q-18 7 -74 7t-92.5 -38t-36.5 -124v-60h197v-213h-197v-827h-282v827h-173v213h173v95z" />
    <glyph glyph-name="g" unicode="g" horiz-adv-x="1210" 
d="M371 541q0 -135 56 -214t154.5 -79t159 80t60.5 213t-60.5 213t-159 80t-154.5 -79t-56 -214zM801 901v139h270v-974q0 -229 -131 -346t-352 -117t-340 88t-131 243h286q4 -59 51.5 -93t139.5 -34q199 0 199 269v92h-5q-57 -82 -126.5 -119t-181 -37t-208 64.5
t-148.5 184.5t-52 279.5t53 279.5t150.5 184.5t210 64.5t182 -40t129.5 -128h4z" />
    <glyph glyph-name="h" unicode="h" 
d="M715 1065q180 0 282.5 -109.5t102.5 -316.5v-639h-287v610q0 115 -48 172.5t-137 57.5t-145.5 -73t-56.5 -210v-557h-287v1458h287v-532h4q105 139 285 139z" />
    <glyph glyph-name="i" unicode="i" horiz-adv-x="565" 
d="M139 0v1040h287v-1040h-287zM139 1212v246h287v-246h-287z" />
    <glyph glyph-name="j" unicode="j" horiz-adv-x="569" 
d="M76 -389q-76 0 -142 16v207q25 -6 56 -6q80 0 116.5 42t36.5 150v1020h287v-1063q0 -188 -95 -277t-259 -89zM143 1212v246h287v-246h-287z" />
    <glyph glyph-name="k" unicode="k" horiz-adv-x="1112" 
d="M426 487v-487h-287v1458h287v-837h4l336 419h324l-396 -479l439 -561h-355l-348 487h-4z" />
    <glyph glyph-name="l" unicode="l" horiz-adv-x="565" 
d="M139 0v1458h287v-1458h-287z" />
    <glyph glyph-name="m" unicode="m" horiz-adv-x="1837" 
d="M780 629q0 211 -170 211q-86 0 -135 -79t-49 -226v-535h-287v1040h271v-118h4q110 143 288 143q223 0 310 -178q61 88 139 133t192 45q170 0 267.5 -108.5t97.5 -317.5v-639h-287v610q0 230 -171 230q-85 0 -134 -79t-49 -226v-535h-287v629z" />
    <glyph glyph-name="n" unicode="n" 
d="M711 1065q184 0 286.5 -109.5t102.5 -316.5v-639h-287v610q0 115 -48 172.5t-137 57.5t-145.5 -73t-56.5 -210v-557h-287v1040h269v-131h4q115 156 299 156z" />
    <glyph glyph-name="o" unicode="o" horiz-adv-x="1208" 
d="M373 520.5q0 -151.5 62.5 -242t169 -90.5t169 90.5t62.5 242t-62.5 241.5t-169 90t-169 -90t-62.5 -241.5zM1137 520q0 -168 -65.5 -293t-185.5 -192.5t-282 -67.5t-281.5 67.5t-185 192.5t-65.5 293t65.5 293t185 192.5t281.5 67.5t282 -67.5t185.5 -192.5t65.5 -293z
" />
    <glyph glyph-name="p" unicode="p" horiz-adv-x="1224" 
d="M412 520.5q0 -153.5 59 -240.5t159 -87t162 89t62 238.5t-62 238.5t-162 89t-159 -87t-59 -240.5zM422 903q100 164 318 164q110 0 208.5 -67.5t151.5 -191.5t53 -288t-52 -287.5t-149.5 -191.5t-207.5 -68q-215 0 -314 152h-4v-504h-287v1419h279v-137h4z" />
    <glyph glyph-name="q" unicode="q" horiz-adv-x="1224" 
d="M371 520.5q0 -149.5 61.5 -238.5t161.5 -89t159.5 87t59.5 240.5t-59.5 240.5t-159.5 87t-161.5 -89t-61.5 -238.5zM795 125q-99 -152 -315 -152q-110 0 -207 68t-149 191.5t-52 287.5t53 288t152 191.5t209 67.5q219 0 317 -164h4v137h278v-1419h-286v504h-4z" />
    <glyph glyph-name="r" unicode="r" horiz-adv-x="802" 
d="M696 807q-131 0 -200.5 -81t-69.5 -234v-492h-287v1040h264v-147h5q100 164 284 164q51 -1 94 -13v-247q-55 10 -90 10z" />
    <glyph glyph-name="s" unicode="s" horiz-adv-x="1073" 
d="M963 721h-275q0 152 -164 151q-68 0 -104.5 -25.5t-36.5 -66.5t22.5 -62.5t65.5 -35.5t154.5 -44t187.5 -60.5t130 -98t54 -186.5q0 -147 -123.5 -236.5t-339.5 -89.5t-339 93.5t-123 277.5h290q0 -78 47.5 -121t128.5 -43q158 0 158 100q0 78 -93 110q-44 15 -156.5 45
t-181 57.5t-119 91t-50.5 166t54.5 175t151.5 113.5t224 41q207 0 322 -90t115 -262z" />
    <glyph glyph-name="t" unicode="t" horiz-adv-x="731" 
d="M471 375q-1 -160 119 -160q58 0 90 10v-219q-66 -20 -152 -20q-180 0 -262 78.5t-82 259.5v503h-168v213h168v271h287v-271h199v-213h-199v-452z" />
    <glyph glyph-name="u" unicode="u" 
d="M129 401v639h287v-610q0 -115 48 -172t137 -57t145.5 72.5t56.5 209.5v557h287v-1040h-269v131h-4q-115 -156 -299 -156t-286.5 110t-102.5 316z" />
    <glyph glyph-name="v" unicode="v" horiz-adv-x="1044" 
d="M336 0l-350 1040h299l121 -409q68 -229 114 -451h4q47 221 115 451l121 409h299l-350 -1040h-373z" />
    <glyph glyph-name="w" unicode="w" horiz-adv-x="1658" 
d="M1010 0l-92 410q-47 213 -87 444h-4q-39 -231 -86 -444l-92 -410h-409l-230 1040h285l78 -401q49 -252 76 -453h4q37 229 88 449l92 405h393l92 -405q51 -219 88 -449h4q27 201 76 453l78 401h285l-230 -1040h-409z" />
    <glyph glyph-name="x" unicode="x" horiz-adv-x="1040" 
d="M1053 0h-334l-197 352h-4l-196 -352h-334l356 535l-334 505h330l178 -305h4l178 305h330l-334 -505z" />
    <glyph glyph-name="y" unicode="y" horiz-adv-x="1032" 
d="M204.5 -391q-106.5 0 -175.5 16v230q45 -16 120.5 -16.5t128 45.5t52.5 108.5t-49 202.5l-295 845h307l106 -348q66 -219 115 -436h4q61 252 121 436l113 348h295l-373 -1046q-53 -148 -117.5 -230.5t-155 -118.5t-197 -36z" />
    <glyph glyph-name="z" unicode="z" horiz-adv-x="991" 
d="M403 225h531v-225h-877v233l510 578v4h-489v225h835v-233l-510 -578v-4z" />
    <glyph glyph-name="braceleft" unicode="{" horiz-adv-x="692" 
d="M477 1169v-295q0 -115 -45 -177t-147 -91v-6q102 -29 147 -91.5t45 -176.5v-295q0 -100 38 -140t126 -42v-166h-49q-272 0 -323.5 116.5t-51.5 247.5v273q0 88 -28.5 128t-106.5 60v178q78 23 106.5 63t28.5 126v274q0 131 52 247t323 116h49v-164q-88 -4 -126 -44
t-38 -141z" />
    <glyph glyph-name="bar" unicode="|" horiz-adv-x="602" 
d="M172 -420v1919h258v-1919h-258z" />
    <glyph glyph-name="braceright" unicode="}" horiz-adv-x="692" 
d="M475 1155v-274q0 -86 28.5 -126t106.5 -63v-178q-78 -20 -106.5 -60t-28.5 -128v-273q0 -131 -34.5 -210t-116.5 -116.5t-224 -37.5h-49v166q88 2 126 42t38 140v295q0 115 45 177t148 91v6q-102 29 -147.5 91.5t-45.5 176.5v295q0 100 -38 140.5t-126 44.5v164h49
q272 0 323.5 -116t51.5 -247z" />
    <glyph glyph-name="asciitilde" unicode="~" horiz-adv-x="1216" 
d="M846 662q54 0 94.5 48t40.5 130h184q0 -119 -43 -210t-118.5 -140.5t-163.5 -49.5t-148 30t-128 78t-105 67.5t-91 19.5t-93 -48t-39 -130h-185q0 119 43 210t119 141t163 50t146.5 -29t126.5 -79t105 -69t92 -19z" />
    <glyph glyph-name="uni00A0" unicode="&#xa0;" horiz-adv-x="471" 
 />
    <glyph glyph-name="exclamdown" unicode="&#xa1;" horiz-adv-x="663" 
d="M442 635l64 -1053h-348l63 1053h221zM489 1040v-270h-315v270h315z" />
    <glyph glyph-name="cent" unicode="&#xa2;" 
d="M541 991q-135 -68 -135 -312.5t135 -309.5v622zM707 -53h-166v186q-201 29 -318 174.5t-117 372.5t117 372.5t318 174.5v186h166v-184q176 -20 287.5 -134t127.5 -282h-299q-12 139 -116 184v-632q49 22 79.5 75.5t34.5 126.5h301q-16 -180 -126.5 -297.5t-288.5 -138.5
v-184z" />
    <glyph glyph-name="sterling" unicode="&#xa3;" 
d="M233 924q0 489 484 489q213 0 333.5 -118.5t120.5 -325.5h-288q0 96 -43 147t-123 51q-182 0 -182 -243v-117h249v-240h-249v-53q0 -111 -29 -172t-98 -100v-4h749v-238h-1108v242q92 0 138 61.5t46 206.5v57h-184v240h184v117z" />
    <glyph glyph-name="currency" unicode="&#xa4;" 
d="M836 596q0 102 -60.5 165.5t-161 63.5t-161 -63.5t-60.5 -165.5t60.5 -165.5t161 -63.5t161 63.5t60.5 165.5zM614.5 150q-114.5 0 -215.5 45l-145 -158l-178 166l147 155q-61 104 -61 237.5t61 238.5l-147 155l178 166l145 -158q100 45 215 45t215 -45l146 158l178 -166
l-147 -155q61 -104 61 -238t-61 -238l147 -155l-178 -166l-146 158q-100 -45 -214.5 -45z" />
    <glyph glyph-name="yen" unicode="&#xa5;" 
d="M1094 711v-144h-328v-82h328v-143h-328v-342h-303v342h-328v143h328v82h-328v144h250l-358 669h333l95 -196q88 -184 157 -371h4q70 186 158 371l94 196h334l-358 -669h250z" />
    <glyph glyph-name="brokenbar" unicode="&#xa6;" horiz-adv-x="602" 
d="M172 -420v717h258v-717h-258zM172 782v717h258v-717h-258z" />
    <glyph glyph-name="section" unicode="&#xa7;" horiz-adv-x="1323" 
d="M410 694q0 -84 49 -133t146 -87t233 -101q75 39 75 141q0 68 -46 118t-175 101l-205 86q-77 -41 -77 -125zM225 1135q0 116 56.5 194t156 120t224.5 42q429 0 454 -381h-289q-4 70 -46 110t-111 40t-107.5 -29t-38.5 -74t18.5 -68.5t63 -45t176.5 -70.5t271 -127
t139 -299q0 -186 -180 -301v-4q96 -72 96 -224t-122 -244.5t-332 -92.5t-335.5 94t-134.5 282h291q16 -145 180 -145q70 0 112 30t42 78t-23.5 76.5t-80 56t-188.5 81.5t-259 130t-127 272t182 310v4q-88 69 -88 185z" />
    <glyph glyph-name="dieresis" unicode="&#xa8;" horiz-adv-x="901" 
d="M547 1212v246h252v-246h-252zM102 1212v246h252v-246h-252z" />
    <glyph glyph-name="copyright" unicode="&#xa9;" horiz-adv-x="1642" 
d="M817 1040q-94 0 -152.5 -84t-58.5 -228t58.5 -227t149.5 -83t144.5 51t63.5 139h201q-14 -166 -122.5 -259t-290.5 -93t-292 126t-110 346t111.5 347t295.5 127t288.5 -94t113.5 -252h-199q-6 84 -56.5 134t-144.5 50zM195 729.5q0 -192.5 77.5 -338t220 -226.5t329 -81
t328.5 81t221 226.5t79 338t-79 337.5t-221 226t-328.5 81t-329 -81t-220 -226t-77.5 -337.5zM1559 729q0 -225 -92.5 -397t-259.5 -266.5t-386 -94.5t-386 94.5t-259 266.5t-92 397t92 397t259 266.5t386 94.5t386 -94.5t259.5 -266.5t92.5 -397z" />
    <glyph glyph-name="ordfeminine" unicode="&#xaa;" horiz-adv-x="843" 
d="M386 817q128 0 128 162v27q-169 -12 -210 -49q-24 -22 -23 -58q-1 -82 105 -82zM514 1163q0 111 -102 111t-107 -100h-237q6 110 92 182t254 72t253 -76t85 -222v-247q0 -127 22 -207h-221q-12 43 -12 94h-2q-86 -113 -244 -113q-119 -1 -189 63t-70 162q1 190 270 230
q130 20 208 25v26z" />
    <glyph glyph-name="guillemotleft" unicode="&#xab;" horiz-adv-x="1089" 
d="M999 111h-249l-234 409l234 410h249l-221 -410zM573 111h-249l-234 409l234 410h249l-221 -410z" />
    <glyph glyph-name="logicalnot" unicode="&#xac;" horiz-adv-x="1159" 
d="M807 270v453h-676v223h897v-676h-221z" />
    <glyph glyph-name="uni00AD" unicode="&#xad;" horiz-adv-x="655" 
d="M61 485v226h533v-226h-533z" />
    <glyph glyph-name="registered" unicode="&#xae;" horiz-adv-x="1212" 
d="M500 1004h88q123 0 123 94q0 39 -30 61.5t-87 22.5h-94v-178zM848 1124q0 -140 -119 -172v-4q33 -10 53.5 -34.5t40.5 -79.5l68 -187h-148l-55 158q-14 49 -40.5 68.5t-74.5 19.5h-73v-246h-140v647h263q110 0 167.5 -49t57.5 -121zM166 962.5q0 -135.5 55 -238.5
t154.5 -159.5t230.5 -56.5t230.5 56.5t155 159.5t55.5 238.5t-55.5 239t-155 159.5t-230.5 56t-230.5 -56t-154.5 -159.5t-55 -239zM1120 962.5q0 -157.5 -63.5 -277.5t-180 -185.5t-270 -65.5t-270.5 65.5t-180.5 185.5t-63.5 277.5t63.5 277.5t180.5 185.5t270.5 65.5
t270 -65.5t180 -185.5t63.5 -277.5z" />
    <glyph glyph-name="macron" unicode="&#xaf;" horiz-adv-x="872" 
d="M102 1225v186h668v-186h-668z" />
    <glyph glyph-name="degree" unicode="&#xb0;" horiz-adv-x="694" 
d="M215 1202q0 -55 39 -94t94 -39t94 39t39 94t-39 94t-94 39t-94 -39t-39 -94zM625 1202q0 -76 -38 -139.5t-101.5 -100t-138.5 -36.5t-138.5 36.5t-101 100t-37.5 139.5t37.5 139.5t101 100.5t138.5 37t138.5 -37t101.5 -100.5t38 -139.5z" />
    <glyph glyph-name="plusminus" unicode="&#xb1;" horiz-adv-x="1159" 
d="M131 0v223h897v-223h-897zM1028 842v-224h-338v-317h-221v317h-338v224h338v317h221v-317h338z" />
    <glyph glyph-name="twosuperior" unicode="&#xb2;" horiz-adv-x="937" 
d="M846 1382q0 -123 -65.5 -194.5t-193.5 -133.5t-170 -98t-46 -77h499v-203h-796q-2 14 -2 47q0 154 61.5 253.5t204.5 173.5t194.5 118.5t51.5 96.5q0 105 -113 105q-129 0 -133 -141h-254q2 162 104.5 249t277.5 87t277.5 -80t102.5 -203z" />
    <glyph glyph-name="threesuperior" unicode="&#xb3;" horiz-adv-x="925" 
d="M315 997q0 -149 154 -149q59 0 96 28.5t37 75.5q0 115 -178 115h-29v188h33q76 0 120 30t44 79t-35 77.5t-94 28.5q-137 0 -137 -143h-252q0 160 103.5 249t283.5 89t281.5 -73.5t101.5 -200.5q0 -80 -42 -130.5t-132 -82.5v-4q96 -31 141 -86.5t45 -143.5
q0 -133 -105 -212t-293 -79t-293.5 88t-105.5 256h256z" />
    <glyph glyph-name="acute" unicode="&#xb4;" horiz-adv-x="716" 
d="M102 1159l158 299h354l-286 -299h-226z" />
    <glyph glyph-name="mu" unicode="&#xb5;" horiz-adv-x="1255" 
d="M1096 344q-2 -137 79 -137q36 0 60 6v-205q-74 -25 -174 -24q-190 0 -227 166h-5q-29 -76 -95 -119t-160 -43q-92 0 -148 43v-410h-287v1419h287v-610q0 -229 178 -229q92 0 149 72q56 73 56 210v557h287v-696z" />
    <glyph glyph-name="paragraph" unicode="&#xb6;" horiz-adv-x="1343" 
d="M1130 1262v-1508h-210v1508h-168v-1508h-211v840h-47q-188 0 -300 116.5t-112 315.5t111.5 315.5t300.5 116.5h800v-196h-164z" />
    <glyph glyph-name="periodcentered" unicode="&#xb7;" horiz-adv-x="528" 
d="M106 455v342h316v-342h-316z" />
    <glyph glyph-name="cedilla" unicode="&#xb8;" horiz-adv-x="688" 
d="M322 -354q90 0 90 53t-27 74.5t-67 21.5t-70 -12l-43 47l106 170h113l-78 -125q26 10 82 10t107 -41.5t51 -119.5t-65.5 -132.5t-186.5 -54.5t-232 62l45 92q85 -45 175 -45z" />
    <glyph glyph-name="onesuperior" unicode="&#xb9;" horiz-adv-x="667" 
d="M285 676v616h-262v183q137 0 204.5 38.5t83.5 128.5h228v-966h-254z" />
    <glyph glyph-name="ordmasculine" unicode="&#xba;" horiz-adv-x="897" 
d="M309 1040q0 -94 38 -148q37 -54 101 -54t102 54t38 148t-37 148t-103 53q-66 0 -102 -53q-37 -54 -37 -148zM846 1040q0 -178 -108 -282t-290 -104t-289 104q-108 104 -108 281t108 283q107 106 289 105q182 0 290 -105q108 -104 108 -282z" />
    <glyph glyph-name="guillemotright" unicode="&#xbb;" horiz-adv-x="1089" 
d="M999 520l-233 -409h-250l221 409l-221 410h250zM573 520l-233 -409h-250l221 409l-221 410h250z" />
    <glyph glyph-name="onequarter" unicode="&#xbc;" horiz-adv-x="1640" 
d="M18 1235q195 0 234 145h217v-827h-240v516h-211v166zM248 0l756 1380h186l-756 -1380h-186zM1268 342v86q0 141 8 254h-2q-72 -129 -146 -231l-77 -109h217zM1485 164v-164h-230v164h-407v180l334 483h303v-485h135v-178h-135z" />
    <glyph glyph-name="onehalf" unicode="&#xbd;" horiz-adv-x="1699" 
d="M18 1235q195 0 234 145h217v-827h-240v516h-211v166zM248 0l756 1380h186l-756 -1380h-186zM1618 602q0 -106 -58 -170t-169 -112q-111 -50 -147 -78t-40 -60h438v-182h-708q-2 14 -2 45q0 135 54 220t182 149t170 97q42 34 42 78q0 83 -92 85q-53 0 -82 -31t-28 -88
h-234q2 141 92 217t247 76t246 -70t89 -176z" />
    <glyph glyph-name="threequarters" unicode="&#xbe;" horiz-adv-x="1892" 
d="M383 885h-29v168h27q65 -1 103 25t38 65t-30 61t-85 23q-54 0 -85 -30t-31 -83h-228q1 135 93 211t250 76t251 -65q92 -65 93 -173q0 -67 -36 -109t-116 -71v-2q84 -27 123 -75t39 -126q0 -116 -91 -182t-259 -66t-264 76q-95 76 -95 219h234q0 -119 131 -118q51 1 83 23
t31 61q0 92 -147 92zM500 0l755 1380h187l-756 -1380h-186zM1520 342v86q0 141 8 254h-2q-72 -129 -146 -231l-77 -109h217zM1737 164v-164h-230v164h-407v180l334 483h303v-485h135v-178h-135z" />
    <glyph glyph-name="questiondown" unicode="&#xbf;" horiz-adv-x="1058" 
d="M553 -201q199 0 207 207h299q-6 -223 -135.5 -339t-361.5 -116t-359 102.5t-127 278.5q0 106 41 178t141 158t136 134.5t50.5 104.5t14.5 152h243q19 -234 -45.5 -323.5t-148.5 -166.5t-108.5 -121t-24.5 -108t46 -102.5t132 -38.5zM741 1040v-270h-315v270h315z" />
    <glyph glyph-name="Agrave" unicode="&#xc0;" horiz-adv-x="1429" 
d="M883 711q-100 319 -166 569h-4q-76 -287 -164 -569l-31 -97h395zM436 356l-114 -356h-316l506 1458h406l505 -1458h-315l-113 356h-559zM889 1556h-225l-287 299h354z" />
    <glyph glyph-name="Aacute" unicode="&#xc1;" horiz-adv-x="1429" 
d="M883 711q-100 319 -166 569h-4q-76 -287 -164 -569l-31 -97h395zM436 356l-114 -356h-316l506 1458h406l505 -1458h-315l-113 356h-559zM541 1556l157 299h355l-287 -299h-225z" />
    <glyph glyph-name="Acircumflex" unicode="&#xc2;" horiz-adv-x="1429" 
d="M883 711q-100 319 -166 569h-4q-76 -287 -164 -569l-31 -97h395zM436 356l-114 -356h-316l506 1458h406l505 -1458h-315l-113 356h-559zM866 1855l234 -299h-262l-125 156l-123 -156h-262l233 299h305z" />
    <glyph glyph-name="Atilde" unicode="&#xc3;" horiz-adv-x="1429" 
d="M883 711q-100 319 -166 569h-4q-76 -287 -164 -569l-31 -97h395zM436 356l-114 -356h-316l506 1458h406l505 -1458h-315l-113 356h-559zM858 1579q-73 0 -156.5 47t-117.5 47q-82 0 -95 -94h-159q6 129 69.5 202.5t156.5 73.5t185 -55q71 -39 105 -39q82 0 94 94h160
q-6 -129 -69.5 -202.5t-172.5 -73.5z" />
    <glyph glyph-name="Adieresis" unicode="&#xc4;" horiz-adv-x="1429" 
d="M883 711q-100 319 -166 569h-4q-76 -287 -164 -569l-31 -97h395zM436 356l-114 -356h-316l506 1458h406l505 -1458h-315l-113 356h-559zM811 1575v246h252v-246h-252zM367 1575v246h251v-246h-251z" />
    <glyph glyph-name="Aring" unicode="&#xc5;" horiz-adv-x="1429" 
d="M883 711q-100 319 -166 569h-4q-76 -287 -164 -569l-31 -97h395zM436 356l-114 -356h-316l506 1458h406l505 -1458h-315l-113 356h-559zM604 1758q0 -46 33 -78.5t79 -32.5t77.5 32.5t31.5 78.5t-31.5 78t-77.5 32t-79 -32t-33 -78zM936 1757q0 -92 -64.5 -156.5
t-156.5 -64.5t-156.5 64.5t-64.5 156.5t64.5 156.5t156.5 64.5t156.5 -64.5t64.5 -156.5z" />
    <glyph glyph-name="AE" unicode="&#xc6;" horiz-adv-x="1976" 
d="M883 1219h-29l-258 -598h373zM1874 0h-815l-53 367h-521l-157 -367h-340l680 1458h1187v-258h-679l47 -330h585v-256h-548l51 -356h563v-258z" />
    <glyph glyph-name="Ccedilla" unicode="&#xc7;" horiz-adv-x="1435" 
d="M721 -354q90 0 90 72q0 34 -26.5 55.5t-66.5 21.5t-71 -12l-43 47l86 139q-188 10 -327.5 104.5t-213 262.5t-73.5 397t81 401.5t231.5 264.5t341.5 92t325.5 -67.5t210 -190.5t82.5 -281h-304q-14 127 -94 200t-207 73q-166 0 -261 -132t-95 -363.5t93 -364t257 -132.5
q129 0 210 73t97 206h310q-21 -242 -165.5 -383t-383.5 -160l-60 -94q27 10 82.5 10t106.5 -42t51 -119.5t-65.5 -132t-186.5 -54.5t-231 62l45 92q84 -45 174 -45z" />
    <glyph glyph-name="Egrave" unicode="&#xc8;" horiz-adv-x="1296" 
d="M469 1200v-330h659v-256h-659v-356h725v-258h-1026v1458h1008v-258h-707zM846 1556h-225l-287 299h354z" />
    <glyph glyph-name="Eacute" unicode="&#xc9;" horiz-adv-x="1296" 
d="M469 1200v-330h659v-256h-659v-356h725v-258h-1026v1458h1008v-258h-707zM498 1556l157 299h355l-287 -299h-225z" />
    <glyph glyph-name="Ecircumflex" unicode="&#xca;" horiz-adv-x="1296" 
d="M469 1200v-330h659v-256h-659v-356h725v-258h-1026v1458h1008v-258h-707zM823 1855l234 -299h-262l-125 156l-123 -156h-262l233 299h305z" />
    <glyph glyph-name="Edieresis" unicode="&#xcb;" horiz-adv-x="1296" 
d="M469 1200v-330h659v-256h-659v-356h725v-258h-1026v1458h1008v-258h-707zM768 1575v246h252v-246h-252zM324 1575v246h251v-246h-251z" />
    <glyph glyph-name="Igrave" unicode="&#xcc;" horiz-adv-x="636" 
d="M168 0v1458h301v-1458h-301zM494 1556h-226l-286 299h354z" />
    <glyph glyph-name="Iacute" unicode="&#xcd;" horiz-adv-x="636" 
d="M168 0v1458h301v-1458h-301zM145 1556l158 299h354l-286 -299h-226z" />
    <glyph glyph-name="Icircumflex" unicode="&#xce;" horiz-adv-x="636" 
d="M168 0v1458h301v-1458h-301zM471 1855l234 -299h-263l-125 156l-122 -156h-263l234 299h305z" />
    <glyph glyph-name="Idieresis" unicode="&#xcf;" horiz-adv-x="636" 
d="M168 0v1458h301v-1458h-301zM416 1575v246h252v-246h-252zM-29 1575v246h252v-246h-252z" />
    <glyph glyph-name="Eth" unicode="&#xd0;" horiz-adv-x="1503" 
d="M1116 729.5q0 237.5 -115.5 354t-351.5 116.5h-182v-354h340v-217h-340v-371h182q236 0 351.5 117t115.5 354.5zM1427 729q0 -350 -200.5 -539.5t-573.5 -189.5h-485v629h-131v217h131v612h485q373 0 573.5 -189.5t200.5 -539.5z" />
    <glyph glyph-name="Ntilde" unicode="&#xd1;" horiz-adv-x="1589" 
d="M457 0h-289v1458h428l283 -592q156 -330 266 -602h4q-16 338 -16 633v561h288v-1458h-428l-282 592q-156 330 -267 602h-4q16 -338 17 -633v-561zM938 1579q-73 0 -156.5 47t-117.5 47q-83 0 -95 -94h-159q6 129 69.5 202.5t156.5 73.5t185 -55q72 -39 105 -39
q82 0 94 94h160q-6 -129 -69.5 -202.5t-172.5 -73.5z" />
    <glyph glyph-name="Ograve" unicode="&#xd2;" horiz-adv-x="1531" 
d="M387 729.5q0 -231.5 101.5 -364t277.5 -132.5t277.5 132.5t101.5 364t-101.5 363.5t-277.5 132t-277.5 -132t-101.5 -363.5zM1456 729.5q0 -235.5 -83 -406.5t-238.5 -263.5t-368.5 -92.5t-368.5 92.5t-238.5 263.5t-83 406.5t83 406.5t238.5 263t368.5 92t368.5 -92
t238.5 -263t83 -406.5zM940 1556h-225l-287 299h354z" />
    <glyph glyph-name="Oacute" unicode="&#xd3;" horiz-adv-x="1531" 
d="M387 729.5q0 -231.5 101.5 -364t277.5 -132.5t277.5 132.5t101.5 364t-101.5 363.5t-277.5 132t-277.5 -132t-101.5 -363.5zM1456 729.5q0 -235.5 -83 -406.5t-238.5 -263.5t-368.5 -92.5t-368.5 92.5t-238.5 263.5t-83 406.5t83 406.5t238.5 263t368.5 92t368.5 -92
t238.5 -263t83 -406.5zM592 1556l158 299h354l-287 -299h-225z" />
    <glyph glyph-name="Ocircumflex" unicode="&#xd4;" horiz-adv-x="1531" 
d="M387 729.5q0 -231.5 101.5 -364t277.5 -132.5t277.5 132.5t101.5 364t-101.5 363.5t-277.5 132t-277.5 -132t-101.5 -363.5zM1456 729.5q0 -235.5 -83 -406.5t-238.5 -263.5t-368.5 -92.5t-368.5 92.5t-238.5 263.5t-83 406.5t83 406.5t238.5 263t368.5 92t368.5 -92
t238.5 -263t83 -406.5zM918 1855l233 -299h-262l-125 156l-123 -156h-262l233 299h306z" />
    <glyph glyph-name="Otilde" unicode="&#xd5;" horiz-adv-x="1531" 
d="M387 729.5q0 -231.5 101.5 -364t277.5 -132.5t277.5 132.5t101.5 364t-101.5 363.5t-277.5 132t-277.5 -132t-101.5 -363.5zM1456 729.5q0 -235.5 -83 -406.5t-238.5 -263.5t-368.5 -92.5t-368.5 92.5t-238.5 263.5t-83 406.5t83 406.5t238.5 263t368.5 92t368.5 -92
t238.5 -263t83 -406.5zM897 1761q82 0 94 94h160q-6 -129 -69.5 -202.5t-172.5 -73.5q-73 0 -168 55q-37 20 -58 29.5t-48 9.5q-82 0 -94 -94h-160q6 129 69.5 202.5t157.5 73.5t185 -55q72 -39 104 -39z" />
    <glyph glyph-name="Odieresis" unicode="&#xd6;" horiz-adv-x="1531" 
d="M387 729.5q0 -231.5 101.5 -364t277.5 -132.5t277.5 132.5t101.5 364t-101.5 363.5t-277.5 132t-277.5 -132t-101.5 -363.5zM1456 729.5q0 -235.5 -83 -406.5t-238.5 -263.5t-368.5 -92.5t-368.5 92.5t-238.5 263.5t-83 406.5t83 406.5t238.5 263t368.5 92t368.5 -92
t238.5 -263t83 -406.5zM862 1575v246h252v-246h-252zM418 1575v246h252v-246h-252z" />
    <glyph glyph-name="multiply" unicode="&#xd7;" horiz-adv-x="1159" 
d="M737 629l379 -379l-158 -158l-378 379l-377 -379l-160 158l379 379l-379 379l160 155l377 -377l378 377l158 -155z" />
    <glyph glyph-name="Oslash" unicode="&#xd8;" horiz-adv-x="1531" 
d="M1157 729q0 180 -63 307l-555 -745q96 -74 227 -74q182 0 286.5 137.5t104.5 374.5zM766 1241q-182 0 -286.5 -137t-104.5 -375q0 -178 61 -307l557 743q-94 76 -227 76zM1456 729q0 -236 -83 -406.5t-238.5 -263t-375.5 -92.5t-382 105l-121 -160l-127 98l125 168
q-178 203 -178 551q0 236 83 407t238.5 263t375.5 92t384 -107l121 162l125 -98l-125 -168q178 -203 178 -551z" />
    <glyph glyph-name="Ugrave" unicode="&#xd9;" horiz-adv-x="1470" 
d="M735.5 -33q-278.5 0 -429 151.5t-150.5 438.5v901h301v-891q0 -162 71.5 -248t206.5 -86t207 86.5t72 247.5v891h301v-901q0 -287 -150.5 -438.5t-429 -151.5zM909 1556h-225l-287 299h355z" />
    <glyph glyph-name="Uacute" unicode="&#xda;" horiz-adv-x="1470" 
d="M735.5 -33q-278.5 0 -429 151.5t-150.5 438.5v901h301v-891q0 -162 71.5 -248t206.5 -86t207 86.5t72 247.5v891h301v-901q0 -287 -150.5 -438.5t-429 -151.5zM561 1556l158 299h354l-287 -299h-225z" />
    <glyph glyph-name="Ucircumflex" unicode="&#xdb;" horiz-adv-x="1470" 
d="M735.5 -33q-278.5 0 -429 151.5t-150.5 438.5v901h301v-891q0 -162 71.5 -248t206.5 -86t207 86.5t72 247.5v891h301v-901q0 -287 -150.5 -438.5t-429 -151.5zM887 1855l233 -299h-262l-125 156l-123 -156h-262l234 299h305z" />
    <glyph glyph-name="Udieresis" unicode="&#xdc;" horiz-adv-x="1470" 
d="M735.5 -33q-278.5 0 -429 151.5t-150.5 438.5v901h301v-891q0 -162 71.5 -248t206.5 -86t207 86.5t72 247.5v891h301v-901q0 -287 -150.5 -438.5t-429 -151.5zM831 1575v246h252v-246h-252zM387 1575v246h252v-246h-252z" />
    <glyph glyph-name="Yacute" unicode="&#xdd;" horiz-adv-x="1306" 
d="M803 0h-301v567l-498 891h338l139 -274q92 -182 170 -371h4q78 188 170 371l140 274h335l-497 -891v-567zM479 1556l158 299h354l-286 -299h-226z" />
    <glyph glyph-name="Thorn" unicode="&#xde;" horiz-adv-x="1302" 
d="M469 526h209q268 0 268 221.5t-268 221.5h-209v-443zM719 1219q260 0 397 -127t137 -344.5t-137 -344.5t-397 -127h-250v-276h-301v1458h301v-239h250z" />
    <glyph glyph-name="germandbls" unicode="&#xdf;" horiz-adv-x="1177" 
d="M1110 422q0 -203 -129 -317.5t-334 -114.5q-55 0 -102 10v231q18 -4 45 -4q223 0 223 226q0 109 -62.5 169t-181.5 60h-24v236q119 0 171 43t52 131q0 172 -166 172q-92 0 -134 -57.5t-42 -182.5v-1024h-287v1044q0 211 121 329t332 118t330.5 -98.5t119.5 -262.5
q0 -240 -249 -319v-4q317 -62 317 -385z" />
    <glyph glyph-name="agrave" unicode="&#xe0;" horiz-adv-x="1120" 
d="M340 312.5q0 -60.5 40 -96.5t100 -36q119 0 177 60q35 35 47.5 78.5t12.5 119.5v39q-275 -18 -338 -71q-39 -33 -39 -93.5zM547 1073q446 0 446 -411v-377q0 -176 29 -285h-258q-14 59 -14 139h-5q-115 -164 -337 -164q-162 0 -258.5 89.5t-96.5 224.5q-1 135 93 217
q135 118 571 145v37q0 94 -45 139t-125 45t-124 -42t-48 -115h-279q8 158 123 258t328 100zM709 1159h-226l-286 299h354z" />
    <glyph glyph-name="aacute" unicode="&#xe1;" horiz-adv-x="1120" 
d="M340 312.5q0 -60.5 40 -96.5t100 -36q119 0 177 60q35 35 47.5 78.5t12.5 119.5v39q-275 -18 -338 -71q-39 -33 -39 -93.5zM547 1073q446 0 446 -411v-377q0 -176 29 -285h-258q-14 59 -14 139h-5q-115 -164 -337 -164q-162 0 -258.5 89.5t-96.5 224.5q-1 135 93 217
q135 118 571 145v37q0 94 -45 139t-125 45t-124 -42t-48 -115h-279q8 158 123 258t328 100zM360 1159l158 299h354l-286 -299h-226z" />
    <glyph glyph-name="acircumflex" unicode="&#xe2;" horiz-adv-x="1120" 
d="M340 312.5q0 -60.5 40 -96.5t100 -36q119 0 177 60q35 35 47.5 78.5t12.5 119.5v39q-275 -18 -338 -71q-39 -33 -39 -93.5zM547 1073q446 0 446 -411v-377q0 -176 29 -285h-258q-14 59 -14 139h-5q-115 -164 -337 -164q-162 0 -258.5 89.5t-96.5 224.5q-1 135 93 217
q135 118 571 145v37q0 94 -45 139t-125 45t-124 -42t-48 -115h-279q8 158 123 258t328 100zM535 1315l-125 -156h-263l234 299h305l234 -299h-263z" />
    <glyph glyph-name="atilde" unicode="&#xe3;" horiz-adv-x="1120" 
d="M340 312.5q0 -60.5 40 -96.5t100 -36q119 0 177 60q35 35 47.5 78.5t12.5 119.5v39q-275 -18 -338 -71q-39 -33 -39 -93.5zM547 1073q446 0 446 -411v-377q0 -176 29 -285h-258q-14 59 -14 139h-5q-115 -164 -337 -164q-162 0 -258.5 89.5t-96.5 224.5q-1 135 93 217
q135 118 571 145v37q0 94 -45 139t-125 45t-124 -42t-48 -115h-279q8 158 123 258t328 100zM666 1364q82 0 94 94h160q-7 -129 -70.5 -202.5t-155.5 -73.5t-184 55q-37 20 -58.5 29.5t-48.5 9.5q-82 0 -94 -94h-159q6 129 69.5 202.5t156.5 73.5t185 -55q71 -39 105 -39z
" />
    <glyph glyph-name="adieresis" unicode="&#xe4;" horiz-adv-x="1120" 
d="M340 312.5q0 -60.5 40 -96.5t100 -36q119 0 177 60q35 35 47.5 78.5t12.5 119.5v39q-275 -18 -338 -71q-39 -33 -39 -93.5zM547 1073q446 0 446 -411v-377q0 -176 29 -285h-258q-14 59 -14 139h-5q-115 -164 -337 -164q-162 0 -258.5 89.5t-96.5 224.5q-1 135 93 217
q135 118 571 145v37q0 94 -45 139t-125 45t-124 -42t-48 -115h-279q8 158 123 258t328 100zM631 1212v246h252v-246h-252zM186 1212v246h252v-246h-252z" />
    <glyph glyph-name="aring" unicode="&#xe5;" horiz-adv-x="1120" 
d="M340 312.5q0 -60.5 40 -96.5t100 -36q119 0 177 60q35 35 47.5 78.5t12.5 119.5v39q-275 -18 -338 -71q-39 -33 -39 -93.5zM547 1073q446 0 446 -411v-377q0 -176 29 -285h-258q-14 59 -14 139h-5q-115 -164 -337 -164q-162 0 -258.5 89.5t-96.5 224.5q-1 135 93 217
q135 118 571 145v37q0 94 -45 139t-125 45t-124 -42t-48 -115h-279q8 158 123 258t328 100zM424 1361q0 -46 32.5 -79t79 -33t78 33t31.5 79t-31.5 77.5t-78 31.5t-79 -31.5t-32.5 -77.5zM756 1360q0 -92 -64.5 -156.5t-157 -64.5t-157 64.5t-64.5 156.5t64.5 156.5
t157 64.5t157 -64.5t64.5 -156.5z" />
    <glyph glyph-name="ae" unicode="&#xe6;" horiz-adv-x="1802" 
d="M608 461q-147 0 -207.5 -37t-60.5 -106.5t43 -107.5t105 -38q122 0 186 64q37 37 50 81.5t13 120.5v23h-129zM1226 870q-89 0 -146.5 -60t-71.5 -179h436q-10 119 -69.5 179t-148.5 60zM737 688q0 184 -180 184q-84 0 -130 -42t-50 -115h-279q8 158 125 258t343.5 100
t334.5 -123q129 123 314.5 123t310.5 -93t174 -253q31 -106 31 -266h-727q6 -152 67.5 -221.5t149.5 -69.5t140 40t62 105h293q-20 -96 -84.5 -176t-168 -126t-234.5 -46q-249 0 -379 183q-61 -90 -163.5 -136.5t-227.5 -46.5t-216 42t-140.5 116t-49.5 166q0 164 124 252
t401 88h159v57z" />
    <glyph glyph-name="ccedilla" unicode="&#xe7;" horiz-adv-x="1150" 
d="M573.5 -354q90.5 0 90.5 72q0 34 -27 55.5t-67 21.5t-70 -12l-43 47l88 139q-217 16 -345 165t-128 386q0 166 64.5 291t183 193.5t266 68.5t255 -53t172 -149.5t74.5 -217.5h-299q-8 92 -60 145.5t-145 53.5t-152.5 -89t-59.5 -242.5t59 -243t152.5 -89.5t145.5 58.5
t58 161.5h301q-16 -184 -130.5 -302t-299.5 -137l-59 -94q27 10 82.5 10t106.5 -42t51 -119.5t-65.5 -132t-186.5 -54.5t-232 62l45 92q84 -45 174.5 -45z" />
    <glyph glyph-name="egrave" unicode="&#xe8;" horiz-adv-x="1173" 
d="M588 870q-90 0 -150.5 -57t-77.5 -172h455q-12 113 -74.5 171t-152.5 58zM575.5 -33q-147.5 0 -264 71t-178 197.5t-61.5 287.5t61.5 284t178 194.5t285.5 71.5t296 -93t176 -253q33 -104 33 -266h-748q6 -152 70.5 -221.5t157 -69.5t147.5 40t66 105h292
q-20 -96 -86.5 -176t-172 -126t-253 -46zM760 1159h-225l-287 299h354z" />
    <glyph glyph-name="eacute" unicode="&#xe9;" horiz-adv-x="1173" 
d="M588 870q-90 0 -150.5 -57t-77.5 -172h455q-12 113 -74.5 171t-152.5 58zM575.5 -33q-147.5 0 -264 71t-178 197.5t-61.5 287.5t61.5 284t178 194.5t285.5 71.5t296 -93t176 -253q33 -104 33 -266h-748q6 -152 70.5 -221.5t157 -69.5t147.5 40t66 105h292
q-20 -96 -86.5 -176t-172 -126t-253 -46zM412 1159l157 299h355l-287 -299h-225z" />
    <glyph glyph-name="ecircumflex" unicode="&#xea;" horiz-adv-x="1173" 
d="M588 870q-90 0 -150.5 -57t-77.5 -172h455q-12 113 -74.5 171t-152.5 58zM575.5 -33q-147.5 0 -264 71t-178 197.5t-61.5 287.5t61.5 284t178 194.5t285.5 71.5t296 -93t176 -253q33 -104 33 -266h-748q6 -152 70.5 -221.5t157 -69.5t147.5 40t66 105h292
q-20 -96 -86.5 -176t-172 -126t-253 -46zM586 1315l-125 -156h-262l233 299h305l234 -299h-262z" />
    <glyph glyph-name="edieresis" unicode="&#xeb;" horiz-adv-x="1173" 
d="M588 870q-90 0 -150.5 -57t-77.5 -172h455q-12 113 -74.5 171t-152.5 58zM575.5 -33q-147.5 0 -264 71t-178 197.5t-61.5 287.5t61.5 284t178 194.5t285.5 71.5t296 -93t176 -253q33 -104 33 -266h-748q6 -152 70.5 -221.5t157 -69.5t147.5 40t66 105h292
q-20 -96 -86.5 -176t-172 -126t-253 -46zM682 1212v246h252v-246h-252zM238 1212v246h251v-246h-251z" />
    <glyph glyph-name="igrave" unicode="&#xec;" horiz-adv-x="565" 
d="M139 0v1040h287v-1040h-287zM457 1159h-226l-286 299h354z" />
    <glyph glyph-name="iacute" unicode="&#xed;" horiz-adv-x="565" 
d="M139 0v1040h287v-1040h-287zM109 1159l157 299h355l-287 -299h-225z" />
    <glyph glyph-name="icircumflex" unicode="&#xee;" horiz-adv-x="565" 
d="M139 0v1040h287v-1040h-287zM391 1161l-108 158l-109 -158h-248l211 297h289l211 -297h-246z" />
    <glyph glyph-name="idieresis" unicode="&#xef;" horiz-adv-x="565" 
d="M139 0v1040h287v-1040h-287zM334 1212v246h252v-246h-252zM-20 1212v246h251v-246h-251z" />
    <glyph glyph-name="eth" unicode="&#xf0;" horiz-adv-x="1208" 
d="M836 520.5q0 151.5 -62.5 241.5t-169 90t-169 -90t-62.5 -241.5t62.5 -242t169 -90.5t169 90.5t62.5 242zM1137 532q0 -170 -64.5 -298t-183.5 -197.5t-281 -69.5t-283.5 65.5t-187 185.5t-65.5 283t56 284.5t160.5 188t243.5 66.5q82 0 152 -32v4q-68 84 -168 170
l-260 -105l-49 123l194 78q-72 57 -129 96l226 117q92 -61 155 -113l260 105l50 -123l-197 -80q371 -335 371 -748z" />
    <glyph glyph-name="ntilde" unicode="&#xf1;" 
d="M711 1065q184 0 286.5 -109.5t102.5 -316.5v-639h-287v610q0 115 -48 172.5t-137 57.5t-145.5 -73t-56.5 -210v-557h-287v1040h269v-131h4q115 156 299 156zM935.5 1255.5q-63.5 -73.5 -155.5 -73.5t-184 55q-37 20 -58.5 29.5t-48.5 9.5q-82 0 -94 -94h-159
q6 129 69.5 202.5t156.5 73.5t185 -55q72 -39 105 -39q82 0 94 94h160q-7 -129 -70.5 -202.5z" />
    <glyph glyph-name="ograve" unicode="&#xf2;" horiz-adv-x="1208" 
d="M373 520.5q0 -151.5 62.5 -242t169 -90.5t169 90.5t62.5 242t-62.5 241.5t-169 90t-169 -90t-62.5 -241.5zM1137 520q0 -168 -65.5 -293t-185.5 -192.5t-282 -67.5t-281.5 67.5t-185 192.5t-65.5 293t65.5 293t185 192.5t281.5 67.5t282 -67.5t185.5 -192.5t65.5 -293z
M778 1159h-225l-287 299h355z" />
    <glyph glyph-name="oacute" unicode="&#xf3;" horiz-adv-x="1208" 
d="M373 520.5q0 -151.5 62.5 -242t169 -90.5t169 90.5t62.5 242t-62.5 241.5t-169 90t-169 -90t-62.5 -241.5zM1137 520q0 -168 -65.5 -293t-185.5 -192.5t-282 -67.5t-281.5 67.5t-185 192.5t-65.5 293t65.5 293t185 192.5t281.5 67.5t282 -67.5t185.5 -192.5t65.5 -293z
M430 1159l158 299h354l-287 -299h-225z" />
    <glyph glyph-name="ocircumflex" unicode="&#xf4;" horiz-adv-x="1208" 
d="M373 520.5q0 -151.5 62.5 -242t169 -90.5t169 90.5t62.5 242t-62.5 241.5t-169 90t-169 -90t-62.5 -241.5zM1137 520q0 -168 -65.5 -293t-185.5 -192.5t-282 -67.5t-281.5 67.5t-185 192.5t-65.5 293t65.5 293t185 192.5t281.5 67.5t282 -67.5t185.5 -192.5t65.5 -293z
M604 1315l-125 -156h-262l234 299h305l233 -299h-262z" />
    <glyph glyph-name="otilde" unicode="&#xf5;" horiz-adv-x="1208" 
d="M373 520.5q0 -151.5 62.5 -242t169 -90.5t169 90.5t62.5 242t-62.5 241.5t-169 90t-169 -90t-62.5 -241.5zM1137 520q0 -168 -65.5 -293t-185.5 -192.5t-282 -67.5t-281.5 67.5t-185 192.5t-65.5 293t65.5 293t185 192.5t281.5 67.5t282 -67.5t185.5 -192.5t65.5 -293z
M919.5 1255.5q-63.5 -73.5 -155.5 -73.5t-184 55q-37 20 -58.5 29.5t-48.5 9.5q-82 0 -94 -94h-160q6 129 69.5 202.5t157 73.5t185.5 -55q71 -39 104 -39q82 0 94 94h160q-6 -129 -69.5 -202.5z" />
    <glyph glyph-name="odieresis" unicode="&#xf6;" horiz-adv-x="1208" 
d="M373 520.5q0 -151.5 62.5 -242t169 -90.5t169 90.5t62.5 242t-62.5 241.5t-169 90t-169 -90t-62.5 -241.5zM1137 520q0 -168 -65.5 -293t-185.5 -192.5t-282 -67.5t-281.5 67.5t-185 192.5t-65.5 293t65.5 293t185 192.5t281.5 67.5t282 -67.5t185.5 -192.5t65.5 -293z
M700 1212v246h252v-246h-252zM256 1212v246h252v-246h-252z" />
    <glyph glyph-name="divide" unicode="&#xf7;" horiz-adv-x="1159" 
d="M459 168v225h241v-225h-241zM131 537v223h897v-223h-897zM459 903v225h241v-225h-241z" />
    <glyph glyph-name="oslash" unicode="&#xf8;" horiz-adv-x="1208" 
d="M852 520q0 100 -29 176l-356 -473q57 -47 137 -47q115 0 181.5 93t66.5 251zM356 520q0 -106 31 -180l356 475q-59 49 -139 49q-112 0 -180 -93t-68 -251zM72 520q0 168 65.5 293t185 192.5t280.5 67.5t284 -67l106 141l107 -84l-107 -141q144 -150 144 -402
q0 -168 -65.5 -293t-185.5 -192.5t-281 -67.5t-281 68l-105 -141l-108 79l106 142q-145 153 -145 405z" />
    <glyph glyph-name="ugrave" unicode="&#xf9;" 
d="M129 401v639h287v-610q0 -115 48 -172t137 -57t145.5 72.5t56.5 209.5v557h287v-1040h-269v131h-4q-115 -156 -299 -156t-286.5 110t-102.5 316zM788 1159h-225l-287 299h355z" />
    <glyph glyph-name="uacute" unicode="&#xfa;" 
d="M129 401v639h287v-610q0 -115 48 -172t137 -57t145.5 72.5t56.5 209.5v557h287v-1040h-269v131h-4q-115 -156 -299 -156t-286.5 110t-102.5 316zM440 1159l158 299h354l-286 -299h-226z" />
    <glyph glyph-name="ucircumflex" unicode="&#xfb;" 
d="M129 401v639h287v-610q0 -115 48 -172t137 -57t145.5 72.5t56.5 209.5v557h287v-1040h-269v131h-4q-115 -156 -299 -156t-286.5 110t-102.5 316zM614 1315l-125 -156h-262l234 299h305l233 -299h-262z" />
    <glyph glyph-name="udieresis" unicode="&#xfc;" 
d="M129 401v639h287v-610q0 -115 48 -172t137 -57t145.5 72.5t56.5 209.5v557h287v-1040h-269v131h-4q-115 -156 -299 -156t-286.5 110t-102.5 316zM711 1212v246h252v-246h-252zM266 1212v246h252v-246h-252z" />
    <glyph glyph-name="yacute" unicode="&#xfd;" horiz-adv-x="1032" 
d="M204.5 -391q-106.5 0 -175.5 16v230q45 -16 120.5 -16.5t128 45.5t52.5 108.5t-49 202.5l-295 845h307l106 -348q66 -219 115 -436h4q61 252 121 436l113 348h295l-373 -1046q-53 -148 -117.5 -230.5t-155 -118.5t-197 -36zM342 1159l158 299h354l-287 -299h-225z" />
    <glyph glyph-name="thorn" unicode="&#xfe;" horiz-adv-x="1224" 
d="M412 520.5q0 -153.5 59 -240.5t159 -87t162 89t62 238.5t-62 238.5t-162 89t-159 -87t-59 -240.5zM740 1067q110 0 208.5 -67.5t151.5 -191.5t53 -288t-52 -287.5t-149.5 -191.5t-207.5 -68q-215 0 -314 152h-4v-504h-287v1837h287v-543h4q99 152 310 152z" />
    <glyph glyph-name="ydieresis" unicode="&#xff;" horiz-adv-x="1032" 
d="M204.5 -391q-106.5 0 -175.5 16v230q45 -16 120.5 -16.5t128 45.5t52.5 108.5t-49 202.5l-295 845h307l106 -348q66 -219 115 -436h4q61 252 121 436l113 348h295l-373 -1046q-53 -148 -117.5 -230.5t-155 -118.5t-197 -36zM612 1212v246h252v-246h-252zM168 1212v246
h252v-246h-252z" />
    <glyph glyph-name="Amacron" unicode="&#x100;" horiz-adv-x="1429" 
d="M883 711q-100 319 -166 569h-4q-76 -287 -164 -569l-31 -97h395zM436 356l-114 -356h-316l506 1458h406l505 -1458h-315l-113 356h-559zM381 1593v187h668v-187h-668z" />
    <glyph glyph-name="amacron" unicode="&#x101;" horiz-adv-x="1120" 
d="M340 312.5q0 -60.5 40 -96.5t100 -36q119 0 177 60q35 35 47.5 78.5t12.5 119.5v39q-275 -18 -338 -71q-39 -33 -39 -93.5zM547 1073q446 0 446 -411v-377q0 -176 29 -285h-258q-14 59 -14 139h-5q-115 -164 -337 -164q-162 0 -258.5 89.5t-96.5 224.5q-1 135 93 217
q135 118 571 145v37q0 94 -45 139t-125 45t-124 -42t-48 -115h-279q8 158 123 258t328 100zM201 1225v186h667v-186h-667z" />
    <glyph glyph-name="Abreve" unicode="&#x102;" horiz-adv-x="1429" 
d="M883 711q-100 319 -166 569h-4q-76 -287 -164 -569l-31 -97h395zM436 356l-114 -356h-316l506 1458h406l505 -1458h-315l-113 356h-559zM714.5 1546q-159.5 0 -254.5 81t-104 228h195q4 -61 48 -96t115.5 -35t115.5 35t49 96h194q-8 -147 -103.5 -228t-255 -81z" />
    <glyph glyph-name="abreve" unicode="&#x103;" horiz-adv-x="1120" 
d="M340 312.5q0 -60.5 40 -96.5t100 -36q119 0 177 60q35 35 47.5 78.5t12.5 119.5v39q-275 -18 -338 -71q-39 -33 -39 -93.5zM547 1073q446 0 446 -411v-377q0 -176 29 -285h-258q-14 59 -14 139h-5q-115 -164 -337 -164q-162 0 -258.5 89.5t-96.5 224.5q-1 135 93 217
q135 118 571 145v37q0 94 -45 139t-125 45t-124 -42t-48 -115h-279q8 158 123 258t328 100zM534.5 1149q-159.5 0 -255 81t-103.5 228h195q4 -61 48 -96t115.5 -35t115.5 35t48 96h195q-8 -147 -103.5 -228t-255 -81z" />
    <glyph glyph-name="Aogonek" unicode="&#x104;" horiz-adv-x="1429" 
d="M883 711q-100 319 -166 569h-4q-76 -287 -164 -569l-31 -97h395zM1284 -180q0 -63 72 -64q43 0 74 13v-146q-68 -27 -171.5 -26.5t-162 47.5t-58.5 122t39 127t121 107h-90l-113 356h-559l-114 -356h-316l506 1458h406l505 -1458q-78 -53 -108.5 -95t-30.5 -85z" />
    <glyph glyph-name="aogonek" unicode="&#x105;" horiz-adv-x="1120" 
d="M340 312.5q0 -60.5 40 -96.5t100 -36q119 0 177 60q35 35 47.5 78.5t12.5 119.5v39q-275 -18 -338 -71q-39 -33 -39 -93.5zM547 1073q446 0 446 -411v-377q0 -176 29 -285q-78 -53 -108.5 -95t-30.5 -85q0 -63 71 -64q43 1 74 13v-146q-66 -27 -170.5 -26.5t-162.5 47.5
t-58 122t39 127t121 107h-33q-14 59 -14 139h-5q-115 -164 -337 -164q-162 0 -258.5 89.5t-96.5 224.5q-1 135 93 217q135 118 571 145v37q0 94 -45 139t-125 45t-124 -42t-48 -115h-279q8 158 123 258t328 100z" />
    <glyph glyph-name="Cacute" unicode="&#x106;" horiz-adv-x="1435" 
d="M743 1225q-166 0 -261 -132t-95 -363.5t93 -364t257 -132.5q129 0 210 73t97 206h310q-20 -258 -184 -401.5t-433 -143.5q-203 0 -352 92.5t-229 263.5t-80 405t81 406.5t231.5 264.5t342 92t325.5 -67.5t209.5 -190.5t82.5 -281h-304q-14 127 -94 200t-207 73zM569 1556
l158 299h354l-286 -299h-226z" />
    <glyph glyph-name="cacute" unicode="&#x107;" horiz-adv-x="1150" 
d="M583 852q-93 0 -152.5 -89t-59.5 -242.5t59 -243t152.5 -89.5t145.5 58.5t58 161.5h301q-16 -199 -149 -320t-342 -121q-158 0 -276.5 68.5t-183 193.5t-64.5 291t64.5 291t183 193.5t266 68.5t255 -53t172 -149.5t74.5 -217.5h-299q-8 92 -60 145.5t-145 53.5zM422 1159
l158 299h354l-287 -299h-225z" />
    <glyph glyph-name="Ccircumflex" unicode="&#x108;" horiz-adv-x="1435" 
d="M743 1225q-166 0 -261 -132t-95 -363.5t93 -364t257 -132.5q129 0 210 73t97 206h310q-20 -258 -184 -401.5t-433 -143.5q-203 0 -352 92.5t-229 263.5t-80 405t81 406.5t231.5 264.5t342 92t325.5 -67.5t209.5 -190.5t82.5 -281h-304q-14 127 -94 200t-207 73zM895 1855
l233 -299h-262l-125 156l-123 -156h-262l234 299h305z" />
    <glyph glyph-name="ccircumflex" unicode="&#x109;" horiz-adv-x="1150" 
d="M583 852q-93 0 -152.5 -89t-59.5 -242.5t59 -243t152.5 -89.5t145.5 58.5t58 161.5h301q-16 -199 -149 -320t-342 -121q-158 0 -276.5 68.5t-183 193.5t-64.5 291t64.5 291t183 193.5t266 68.5t255 -53t172 -149.5t74.5 -217.5h-299q-8 92 -60 145.5t-145 53.5zM596 1315
l-125 -156h-262l233 299h306l233 -299h-262z" />
    <glyph glyph-name="Cdotaccent" unicode="&#x10a;" horiz-adv-x="1435" 
d="M743 1225q-166 0 -261 -132t-95 -363.5t93 -364t257 -132.5q129 0 210 73t97 206h310q-20 -258 -184 -401.5t-433 -143.5q-203 0 -352 92.5t-229 263.5t-80 405t81 406.5t231.5 264.5t342 92t325.5 -67.5t209.5 -190.5t82.5 -281h-304q-14 127 -94 200t-207 73zM600 1575
v246h287v-246h-287z" />
    <glyph glyph-name="cdotaccent" unicode="&#x10b;" horiz-adv-x="1150" 
d="M583 852q-93 0 -152.5 -89t-59.5 -242.5t59 -243t152.5 -89.5t145.5 58.5t58 161.5h301q-16 -199 -149 -320t-342 -121q-158 0 -276.5 68.5t-183 193.5t-64.5 291t64.5 291t183 193.5t266 68.5t255 -53t172 -149.5t74.5 -217.5h-299q-8 92 -60 145.5t-145 53.5zM453 1212
v246h286v-246h-286z" />
    <glyph glyph-name="Ccaron" unicode="&#x10c;" horiz-adv-x="1435" 
d="M743 1225q-166 0 -261 -132t-95 -363.5t93 -364t257 -132.5q129 0 210 73t97 206h310q-20 -258 -184 -401.5t-433 -143.5q-203 0 -352 92.5t-229 263.5t-80 405t81 406.5t231.5 264.5t342 92t325.5 -67.5t209.5 -190.5t82.5 -281h-304q-14 127 -94 200t-207 73zM590 1556
l-234 299h262l125 -155l123 155h262l-233 -299h-305z" />
    <glyph glyph-name="ccaron" unicode="&#x10d;" horiz-adv-x="1150" 
d="M583 852q-93 0 -152.5 -89t-59.5 -242.5t59 -243t152.5 -89.5t145.5 58.5t58 161.5h301q-16 -199 -149 -320t-342 -121q-158 0 -276.5 68.5t-183 193.5t-64.5 291t64.5 291t183 193.5t266 68.5t255 -53t172 -149.5t74.5 -217.5h-299q-8 92 -60 145.5t-145 53.5zM442 1159
l-233 299h262l125 -155l123 155h262l-233 -299h-306z" />
    <glyph glyph-name="Dcaron" unicode="&#x10e;" horiz-adv-x="1503" 
d="M467 258h182q236 0 351.5 117t115.5 354.5t-115.5 354t-351.5 116.5h-182v-942zM1427 729q0 -350 -200.5 -539.5t-573.5 -189.5h-485v1458h485q373 0 573.5 -189.5t200.5 -539.5zM530 1556l-233 299h262l125 -155l123 155h262l-233 -299h-306z" />
    <glyph glyph-name="dcaron" unicode="&#x10f;" horiz-adv-x="1224" 
d="M371 520q0 -150 61 -238q62 -88 162 -89q100 0 160 87q59 86 59 240t-59 241t-160 87t-162 -89t-61 -239zM803 137q-99 -164 -317 -164q-110 0 -210 68q-98 67 -151 191t-53 288t52 288t149 192t207 67q216 0 315 -152h4v543h286v-1458h-278v137h-4zM1143 1096l53 362
h227l-118 -362h-162z" />
    <glyph glyph-name="Dcroat" unicode="&#x110;" horiz-adv-x="1503" 
d="M1116 729.5q0 237.5 -115.5 354t-351.5 116.5h-182v-354h340v-217h-340v-371h182q236 0 351.5 117t115.5 354.5zM1427 729q0 -350 -200.5 -539.5t-573.5 -189.5h-485v629h-131v217h131v612h485q373 0 573.5 -189.5t200.5 -539.5z" />
    <glyph glyph-name="dcroat" unicode="&#x111;" horiz-adv-x="1208" 
d="M813 520.5q0 153.5 -59.5 240.5t-159.5 87t-161.5 -89t-61.5 -238.5t61.5 -238.5t161.5 -89t159.5 87t59.5 240.5zM803 137q-99 -164 -317 -164q-110 0 -209 68t-152 191.5t-53 287.5t52 288t149 191.5t207 67.5q215 0 315 -152h4v265h-246v147h246v131h286v-131h136
v-147h-136v-1180h-278v137h-4z" />
    <glyph glyph-name="Emacron" unicode="&#x112;" horiz-adv-x="1296" 
d="M469 1200v-330h659v-256h-659v-356h725v-258h-1026v1458h1008v-258h-707zM338 1593v187h668v-187h-668z" />
    <glyph glyph-name="emacron" unicode="&#x113;" horiz-adv-x="1173" 
d="M588 870q-90 0 -150.5 -57t-77.5 -172h455q-12 113 -74.5 171t-152.5 58zM575.5 -33q-147.5 0 -264 71t-178 197.5t-61.5 287.5t61.5 284t178 194.5t285.5 71.5t296 -93t176 -253q33 -104 33 -266h-748q6 -152 70.5 -221.5t157 -69.5t147.5 40t66 105h292
q-20 -96 -86.5 -176t-172 -126t-253 -46zM252 1225v186h668v-186h-668z" />
    <glyph glyph-name="Ebreve" unicode="&#x114;" horiz-adv-x="1296" 
d="M469 1200v-330h659v-256h-659v-356h725v-258h-1026v1458h1008v-258h-707zM671.5 1546q-159.5 0 -254.5 81t-104 228h195q4 -61 48 -96t115.5 -35t115.5 35t49 96h194q-8 -147 -103.5 -228t-255 -81z" />
    <glyph glyph-name="ebreve" unicode="&#x115;" horiz-adv-x="1173" 
d="M588 870q-90 0 -150.5 -57t-77.5 -172h455q-12 113 -74.5 171t-152.5 58zM575.5 -33q-147.5 0 -264 71t-178 197.5t-61.5 287.5t61.5 284t178 194.5t285.5 71.5t296 -93t176 -253q33 -104 33 -266h-748q6 -152 70.5 -221.5t157 -69.5t147.5 40t66 105h292
q-20 -96 -86.5 -176t-172 -126t-253 -46zM585.5 1149q-159.5 0 -254.5 81t-104 228h195q4 -61 48 -96t115.5 -35t115.5 35t49 96h194q-8 -147 -103.5 -228t-255 -81z" />
    <glyph glyph-name="Edotaccent" unicode="&#x116;" horiz-adv-x="1296" 
d="M469 1200v-330h659v-256h-659v-356h725v-258h-1026v1458h1008v-258h-707zM528 1575v246h287v-246h-287z" />
    <glyph glyph-name="edotaccent" unicode="&#x117;" horiz-adv-x="1173" 
d="M588 870q-90 0 -150.5 -57t-77.5 -172h455q-12 113 -74.5 171t-152.5 58zM575.5 -33q-147.5 0 -264 71t-178 197.5t-61.5 287.5t61.5 284t178 194.5t285.5 71.5t296 -93t176 -253q33 -104 33 -266h-748q6 -152 70.5 -221.5t157 -69.5t147.5 40t66 105h292
q-20 -96 -86.5 -176t-172 -126t-253 -46zM442 1212v246h287v-246h-287z" />
    <glyph glyph-name="Eogonek" unicode="&#x118;" horiz-adv-x="1296" 
d="M469 1200v-330h659v-256h-659v-356h725v-258q-78 -53 -108.5 -95t-30.5 -85q0 -63 71 -64q43 0 74 13v-146q-68 -27 -172 -27t-161.5 47.5t-57.5 122.5t39 127t121 107h-801v1458h1008v-258h-707z" />
    <glyph glyph-name="eogonek" unicode="&#x119;" horiz-adv-x="1173" 
d="M588 870q-90 0 -150.5 -57t-77.5 -172h455q-12 113 -74.5 171t-152.5 58zM788 -170q0 -74 72 -74q43 0 74 13v-146q-66 -27 -170 -27t-162.5 47.5t-58.5 131.5q0 109 112 192v4q-37 -4 -65 -4q-162 0 -278.5 71t-178 197.5t-61.5 287.5t61.5 284t178 194.5t285.5 71.5
t296 -93t176 -253q33 -104 33 -266h-748q6 -152 71 -221.5t157 -69.5t147 40t66 105h292q-27 -131 -163 -266q-74 -72 -105 -121t-31 -98z" />
    <glyph glyph-name="Ecaron" unicode="&#x11a;" horiz-adv-x="1296" 
d="M469 1200v-330h659v-256h-659v-356h725v-258h-1026v1458h1008v-258h-707zM518 1556l-233 299h262l125 -155l123 155h262l-234 -299h-305z" />
    <glyph glyph-name="ecaron" unicode="&#x11b;" horiz-adv-x="1173" 
d="M588 870q-90 0 -150.5 -57t-77.5 -172h455q-12 113 -74.5 171t-152.5 58zM575.5 -33q-147.5 0 -264 71t-178 197.5t-61.5 287.5t61.5 284t178 194.5t285.5 71.5t296 -93t176 -253q33 -104 33 -266h-748q6 -152 70.5 -221.5t157 -69.5t147.5 40t66 105h292
q-20 -96 -86.5 -176t-172 -126t-253 -46zM432 1159l-233 299h262l125 -155l123 155h262l-234 -299h-305z" />
    <glyph glyph-name="Gcircumflex" unicode="&#x11c;" horiz-adv-x="1523" 
d="M1112 158q-134 -187 -448 -187q-164 0 -301.5 91.5t-212 260.5t-74.5 402.5t84 407.5t240.5 266t367.5 92q266 0 426 -130t182 -357h-323q-41 221 -285 221q-176 0 -278.5 -134.5t-102.5 -371t100.5 -373.5t266.5 -137q330 0 336 346h-347v246h627v-801h-254v158h-4z
M903 1855l234 -299h-263l-124 156l-123 -156h-262l233 299h305z" />
    <glyph glyph-name="gcircumflex" unicode="&#x11d;" horiz-adv-x="1210" 
d="M371 541q0 -135 56 -214t154.5 -79t159 80t60.5 213t-60.5 213t-159 80t-154.5 -79t-56 -214zM801 901v139h270v-974q0 -229 -131 -346t-352 -117t-340 88t-131 243h286q4 -59 51.5 -93t139.5 -34q199 0 199 269v92h-5q-57 -82 -126.5 -119t-181 -37t-208 64.5
t-148.5 184.5t-52 279.5t53 279.5t150.5 184.5t210 64.5t182 -40t129.5 -128h4zM567 1315l-125 -156h-262l234 299h305l233 -299h-262z" />
    <glyph glyph-name="Gbreve" unicode="&#x11e;" horiz-adv-x="1523" 
d="M1112 158q-134 -187 -448 -187q-164 0 -301.5 91.5t-212 260.5t-74.5 402.5t84 407.5t240.5 266t367.5 92q266 0 426 -130t182 -357h-323q-41 221 -285 221q-176 0 -278.5 -134.5t-102.5 -371t100.5 -373.5t266.5 -137q330 0 336 346h-347v246h627v-801h-254v158h-4z
M751.5 1546q-159.5 0 -255 81t-103.5 228h195q4 -61 48 -96t115.5 -35t115.5 35t48 96h195q-8 -147 -103.5 -228t-255 -81z" />
    <glyph glyph-name="gbreve" unicode="&#x11f;" horiz-adv-x="1210" 
d="M371 541q0 -135 56 -214t154.5 -79t159 80t60.5 213t-60.5 213t-159 80t-154.5 -79t-56 -214zM801 901v139h270v-974q0 -229 -131 -346t-352 -117t-340 88t-131 243h286q4 -59 51.5 -93t139.5 -34q199 0 199 269v92h-5q-57 -82 -126.5 -119t-181 -37t-208 64.5
t-148.5 184.5t-52 279.5t53 279.5t150.5 184.5t210 64.5t182 -40t129.5 -128h4zM567.5 1149q-159.5 0 -255 81t-103.5 228h194q4 -61 48.5 -96t116 -35t115.5 35t48 96h195q-8 -147 -103.5 -228t-255 -81z" />
    <glyph glyph-name="Gdotaccent" unicode="&#x120;" horiz-adv-x="1523" 
d="M1112 158q-134 -187 -448 -187q-164 0 -301.5 91.5t-212 260.5t-74.5 402.5t84 407.5t240.5 266t367.5 92q266 0 426 -130t182 -357h-323q-41 221 -285 221q-176 0 -278.5 -134.5t-102.5 -371t100.5 -373.5t266.5 -137q330 0 336 346h-347v246h627v-801h-254v158h-4z
M608 1575v246h287v-246h-287z" />
    <glyph glyph-name="gdotaccent" unicode="&#x121;" horiz-adv-x="1210" 
d="M371 541q0 -135 56 -214t154.5 -79t159 80t60.5 213t-60.5 213t-159 80t-154.5 -79t-56 -214zM801 901v139h270v-974q0 -229 -131 -346t-352 -117t-340 88t-131 243h286q4 -59 51.5 -93t139.5 -34q199 0 199 269v92h-5q-57 -82 -126.5 -119t-181 -37t-208 64.5
t-148.5 184.5t-52 279.5t53 279.5t150.5 184.5t210 64.5t182 -40t129.5 -128h4zM424 1212v246h287v-246h-287z" />
    <glyph glyph-name="Gcommaaccent" unicode="&#x122;" horiz-adv-x="1523" 
d="M1112 158q-134 -187 -448 -187q-164 0 -301.5 91.5t-212 260.5t-74.5 402.5t84 407.5t240.5 266t367.5 92q266 0 426 -130t182 -357h-323q-41 221 -285 221q-176 0 -278.5 -134.5t-102.5 -371t100.5 -373.5t266.5 -137q330 0 336 346h-347v246h627v-801h-254v158h-4z
M623 -334v213h254v-213l-140 -219h-114l92 219h-92z" />
    <glyph glyph-name="gcommaaccent" unicode="&#x123;" horiz-adv-x="1210" 
d="M371 541q0 -135 56 -214t154.5 -79t159 80t60.5 213t-60.5 213t-159 80t-154.5 -79t-56 -214zM801 901v139h270v-974q0 -229 -131 -346t-352 -117t-340 88t-131 243h286q4 -59 51.5 -93t139.5 -34q199 0 199 269v92h-5q-57 -82 -126.5 -119t-181 -37t-208 64.5
t-148.5 184.5t-52 279.5t53 279.5t150.5 184.5t210 64.5t182 -40t129.5 -128h4zM694 1395v-213h-254v213l140 219h114l-92 -219h92z" />
    <glyph glyph-name="Hcircumflex" unicode="&#x124;" horiz-adv-x="1536" 
d="M1067 0v629h-598v-629h-301v1458h301v-571h598v571h301v-1458h-301zM920 1855l233 -299h-262l-125 156l-123 -156h-262l233 299h306z" />
    <glyph glyph-name="hcircumflex" unicode="&#x125;" 
d="M715 1065q180 0 282.5 -109.5t102.5 -316.5v-639h-287v610q0 115 -48 172.5t-137 57.5t-145.5 -73t-56.5 -210v-557h-287v1458h287v-532h4q105 139 285 139zM764 1855l233 -299h-262l-125 156l-123 -156h-262l234 299h305z" />
    <glyph glyph-name="Hbar" unicode="&#x126;" horiz-adv-x="1536" 
d="M469 1163v-276h598v276h-598zM1368 1163v-1163h-301v629h-598v-629h-301v1163h-113v148h113v147h301v-147h598v147h301v-147h113v-148h-113z" />
    <glyph glyph-name="hbar" unicode="&#x127;" 
d="M715 1065q180 0 282.5 -109.5t102.5 -316.5v-639h-287v610q0 115 -48 172.5t-137 57.5t-145.5 -73t-56.5 -210v-557h-287v1180h-151v131h151v147h287v-147h229v-131h-229v-254h4q105 139 285 139z" />
    <glyph glyph-name="Itilde" unicode="&#x128;" horiz-adv-x="636" 
d="M168 0v1458h301v-1458h-301zM451 1761q82 0 94 94h160q-7 -129 -70.5 -202.5t-171.5 -73.5q-73 0 -168 55q-37 20 -58.5 29.5t-48.5 9.5q-82 0 -94 -94h-160q6 129 70 202.5t157 73.5t185 -55q72 -39 105 -39z" />
    <glyph glyph-name="itilde" unicode="&#x129;" horiz-adv-x="565" 
d="M139 0v1040h287v-1040h-287zM401 1360q74 0 82 98h140q-7 -129 -64 -202.5t-158 -73.5q-45 0 -75.5 14t-67.5 40t-54.5 35t-39.5 9q-74 0 -82 -98h-137q6 131 62 203.5t157 72.5q44 0 76 -16q32 -14 82 -48q49 -34 79 -34z" />
    <glyph glyph-name="Imacron" unicode="&#x12a;" horiz-adv-x="636" 
d="M168 0v1458h301v-1458h-301zM-14 1593v187h667v-187h-667z" />
    <glyph glyph-name="imacron" unicode="&#x12b;" horiz-adv-x="565" 
d="M139 0v1040h287v-1040h-287zM-10 1235v186h585v-186h-585z" />
    <glyph glyph-name="Ibreve" unicode="&#x12c;" horiz-adv-x="636" 
d="M168 0v1458h301v-1458h-301zM319.5 1546q-159.5 0 -255 81t-103.5 228h195q4 -61 48 -96t115.5 -35t115.5 35t48 96h195q-8 -147 -103.5 -228t-255 -81z" />
    <glyph glyph-name="ibreve" unicode="&#x12d;" horiz-adv-x="565" 
d="M139 0v1040h287v-1040h-287zM282.5 1149q-147.5 0 -232.5 81t-93 228h180q4 -66 43 -102.5t102.5 -36.5t102.5 37t43 102h180q-8 -145 -93 -227t-232.5 -82z" />
    <glyph glyph-name="Iogonek" unicode="&#x12e;" horiz-adv-x="636" 
d="M168 0v1458h301v-1458q-78 -53 -108.5 -95t-30.5 -85q0 -63 71 -64q43 0 74 13v-146q-67 -27 -171 -27t-162 47.5t-58 122.5t39 127t121 107h-76z" />
    <glyph glyph-name="iogonek" unicode="&#x12f;" horiz-adv-x="565" 
d="M41 -234q0 75 39 127t121 107h-62v1040h287v-1040q-78 -53 -108.5 -95t-30.5 -85q0 -63 71 -64q43 1 74 13v-146q-68 -27 -171.5 -26.5t-161.5 47.5t-58 122zM139 1212v246h287v-246h-287z" />
    <glyph glyph-name="Idotaccent" unicode="&#x130;" horiz-adv-x="636" 
d="M168 0v1458h301v-1458h-301zM176 1575v246h287v-246h-287z" />
    <glyph glyph-name="dotlessi" unicode="&#x131;" horiz-adv-x="565" 
d="M139 0v1040h287v-1040h-287z" />
    <glyph glyph-name="IJ" unicode="&#x132;" horiz-adv-x="1439" 
d="M168 0v1458h301v-1458h-301zM801 -14q-78 0 -133 16v256q55 -10 114.5 -10t105.5 24q93 48 93 256v930h301v-993q0 -248 -115.5 -363.5t-365.5 -115.5z" />
    <glyph glyph-name="ij" unicode="&#x133;" horiz-adv-x="1134" 
d="M641 -389q-76 0 -141 16v207q25 -6 55 -6q80 0 117 42t37 150v1020h286v-1063q0 -188 -95 -277t-259 -89zM139 0v1040h287v-1040h-287zM709 1212v246h286v-246h-286zM139 1212v246h287v-246h-287z" />
    <glyph glyph-name="Jcircumflex" unicode="&#x134;" horiz-adv-x="802" 
d="M164 -14q-78 0 -133 16v256q55 -10 114.5 -10t105.5 24q93 48 93 256v930h301v-993q0 -248 -115.5 -363.5t-365.5 -115.5zM647 1855l234 -299h-263l-124 156l-123 -156h-262l233 299h305z" />
    <glyph glyph-name="jcircumflex" unicode="&#x135;" horiz-adv-x="569" 
d="M76 -389q-76 0 -142 16v207q25 -6 56 -6q80 0 116.5 42t36.5 150v1020h287v-1063q0 -188 -95 -277t-259 -89zM395 1161l-108 158l-109 -158h-248l211 297h289l211 -297h-246z" />
    <glyph glyph-name="Kcommaaccent" unicode="&#x136;" horiz-adv-x="1357" 
d="M469 688v-688h-301v1458h301v-641h4l477 641h353l-555 -692l602 -766h-383l-494 688h-4zM553 -334v213h254v-213l-139 -219h-115l92 219h-92z" />
    <glyph glyph-name="kcommaaccent" unicode="&#x137;" horiz-adv-x="1112" 
d="M426 487v-487h-287v1458h287v-837h4l336 419h324l-396 -479l439 -561h-355l-348 487h-4zM469 -334v213h254v-213l-139 -219h-115l92 219h-92z" />
    <glyph glyph-name="kgreenlandic" unicode="&#x138;" horiz-adv-x="1146" 
d="M426 487v-487h-287v1040h287v-419h4l336 419h324l-396 -479l439 -561h-355l-348 487h-4z" />
    <glyph glyph-name="Lacute" unicode="&#x139;" horiz-adv-x="1177" 
d="M1157 258v-258h-989v1458h301v-1200h688zM205 1556l157 299h355l-287 -299h-225z" />
    <glyph glyph-name="lacute" unicode="&#x13a;" horiz-adv-x="565" 
d="M139 0v1458h287v-1458h-287zM139 1577l158 299h354l-286 -299h-226z" />
    <glyph glyph-name="Lcommaaccent" unicode="&#x13b;" horiz-adv-x="1177" 
d="M1157 258v-258h-989v1458h301v-1200h688zM537 -334v213h254v-213l-140 -219h-114l92 219h-92z" />
    <glyph glyph-name="lcommaaccent" unicode="&#x13c;" horiz-adv-x="565" 
d="M139 0v1458h287v-1458h-287zM156 -334v213h254v-213l-140 -219h-114l92 219h-92z" />
    <glyph glyph-name="Lcaron" unicode="&#x13d;" horiz-adv-x="1177" 
d="M1157 258v-258h-989v1458h301v-1200h688zM551 999l53 459h227l-118 -459h-162z" />
    <glyph glyph-name="lcaron" unicode="&#x13e;" horiz-adv-x="565" 
d="M139 0v1458h287v-1458h-287zM483 1096l54 362h227l-119 -362h-162z" />
    <glyph glyph-name="Ldot" unicode="&#x13f;" horiz-adv-x="1341" 
d="M1157 258v-258h-989v1458h301v-1200h688zM817 713v342h316v-342h-316z" />
    <glyph glyph-name="ldot" unicode="&#x140;" horiz-adv-x="991" 
d="M139 0v1458h287v-1458h-287zM621 557v342h315v-342h-315z" />
    <glyph glyph-name="Lslash" unicode="&#x141;" horiz-adv-x="1177" 
d="M1157 0h-989v573l-141 -84v250l141 84v635h301v-475l285 170v-250l-285 -170v-475h688v-258z" />
    <glyph glyph-name="lslash" unicode="&#x142;" horiz-adv-x="679" 
d="M483 0h-286v571l-177 -104v238l177 104v649h286v-514l176 105v-238l-176 -104v-707z" />
    <glyph glyph-name="Nacute" unicode="&#x143;" horiz-adv-x="1589" 
d="M457 0h-289v1458h428l283 -592q156 -330 266 -602h4q-16 338 -16 633v561h288v-1458h-428l-282 592q-156 330 -267 602h-4q16 -338 17 -633v-561zM621 1556l157 299h355l-287 -299h-225z" />
    <glyph glyph-name="nacute" unicode="&#x144;" 
d="M711 1065q184 0 286.5 -109.5t102.5 -316.5v-639h-287v610q0 115 -48 172.5t-137 57.5t-145.5 -73t-56.5 -210v-557h-287v1040h269v-131h4q115 156 299 156zM446 1159l158 299h354l-286 -299h-226z" />
    <glyph glyph-name="Ncommaaccent" unicode="&#x145;" horiz-adv-x="1589" 
d="M457 0h-289v1458h428l283 -592q156 -330 266 -602h4q-16 338 -16 633v561h288v-1458h-428l-282 592q-156 330 -267 602h-4q16 -338 17 -633v-561zM668 -334v213h254v-213l-140 -219h-114l92 219h-92z" />
    <glyph glyph-name="ncommaaccent" unicode="&#x146;" 
d="M711 1065q184 0 286.5 -109.5t102.5 -316.5v-639h-287v610q0 115 -48 172.5t-137 57.5t-145.5 -73t-56.5 -210v-557h-287v1040h269v-131h4q115 156 299 156zM494 -334v213h254v-213l-140 -219h-114l92 219h-92z" />
    <glyph glyph-name="Ncaron" unicode="&#x147;" horiz-adv-x="1589" 
d="M457 0h-289v1458h428l283 -592q156 -330 266 -602h4q-16 338 -16 633v561h288v-1458h-428l-282 592q-156 330 -267 602h-4q16 -338 17 -633v-561zM641 1556l-233 299h262l125 -155l123 155h262l-234 -299h-305z" />
    <glyph glyph-name="ncaron" unicode="&#x148;" 
d="M711 1065q184 0 286.5 -109.5t102.5 -316.5v-639h-287v610q0 115 -48 172.5t-137 57.5t-145.5 -73t-56.5 -210v-557h-287v1040h269v-131h4q115 156 299 156zM467 1159l-234 299h263l125 -155l122 155h263l-234 -299h-305z" />
    <glyph glyph-name="napostrophe" unicode="&#x149;" horiz-adv-x="1536" 
d="M125 1167v291h268v-291l-129 -299h-145l96 299h-90zM1018 1065q184 0 286.5 -109.5t102.5 -316.5v-639h-287v610q0 115 -48 172.5t-137 57.5t-145.5 -73t-56.5 -210v-557h-287v1040h269v-131h4q115 156 299 156z" />
    <glyph glyph-name="Eng" unicode="&#x14a;" horiz-adv-x="1527" 
d="M1006 -395q-76 0 -142 16v207q28 -6 80 -6t87.5 31t35.5 85t-14.5 87.5t-71.5 134.5l-285 493q-141 248 -252 484h-4q16 -231 17 -521v-616h-289v1458h375l288 -504q141 -248 252 -483h4q-16 231 -16 520v467h289v-1487q0 -188 -95.5 -277t-258.5 -89z" />
    <glyph glyph-name="eng" unicode="&#x14b;" 
d="M727 1067q170 0 264 -98q57 -57 83 -139t26 -220v-630q0 -188 -95.5 -277.5t-259.5 -89.5q-76 0 -141 16v207q25 -6 55 -6q80 0 117 42t37 151v561q0 150 -50 204t-136 54t-143.5 -73t-57.5 -210v-559h-287v1040h271v-133h4q111 160 313 160z" />
    <glyph glyph-name="Omacron" unicode="&#x14c;" horiz-adv-x="1531" 
d="M387 729.5q0 -231.5 101.5 -364t277.5 -132.5t277.5 132.5t101.5 364t-101.5 363.5t-277.5 132t-277.5 -132t-101.5 -363.5zM1456 729.5q0 -235.5 -83 -406.5t-238.5 -263.5t-368.5 -92.5t-368.5 92.5t-238.5 263.5t-83 406.5t83 406.5t238.5 263t368.5 92t368.5 -92
t238.5 -263t83 -406.5zM432 1593v187h668v-187h-668z" />
    <glyph glyph-name="omacron" unicode="&#x14d;" horiz-adv-x="1208" 
d="M373 520.5q0 -151.5 62.5 -242t169 -90.5t169 90.5t62.5 242t-62.5 241.5t-169 90t-169 -90t-62.5 -241.5zM1137 520q0 -168 -65.5 -293t-185.5 -192.5t-282 -67.5t-281.5 67.5t-185 192.5t-65.5 293t65.5 293t185 192.5t281.5 67.5t282 -67.5t185.5 -192.5t65.5 -293z
M270 1225v186h668v-186h-668z" />
    <glyph glyph-name="Obreve" unicode="&#x14e;" horiz-adv-x="1531" 
d="M387 729.5q0 -231.5 101.5 -364t277.5 -132.5t277.5 132.5t101.5 364t-101.5 363.5t-277.5 132t-277.5 -132t-101.5 -363.5zM1456 729.5q0 -235.5 -83 -406.5t-238.5 -263.5t-368.5 -92.5t-368.5 92.5t-238.5 263.5t-83 406.5t83 406.5t238.5 263t368.5 92t368.5 -92
t238.5 -263t83 -406.5zM766 1546q-160 0 -255 81t-103 228h194q4 -61 48 -96t116 -35t116 35t48 96h194q-8 -147 -103 -228t-255 -81z" />
    <glyph glyph-name="obreve" unicode="&#x14f;" horiz-adv-x="1208" 
d="M373 520.5q0 -151.5 62.5 -242t169 -90.5t169 90.5t62.5 242t-62.5 241.5t-169 90t-169 -90t-62.5 -241.5zM1137 520q0 -168 -65.5 -293t-185.5 -192.5t-282 -67.5t-281.5 67.5t-185 192.5t-65.5 293t65.5 293t185 192.5t281.5 67.5t282 -67.5t185.5 -192.5t65.5 -293z
M604 1149q-160 0 -255 81t-103 228h194q4 -61 48 -96t116 -35t116 35t48 96h195q-9 -147 -104 -228t-255 -81z" />
    <glyph glyph-name="Ohungarumlaut" unicode="&#x150;" horiz-adv-x="1531" 
d="M387 729.5q0 -231.5 101.5 -364t277.5 -132.5t277.5 132.5t101.5 364t-101.5 363.5t-277.5 132t-277.5 -132t-101.5 -363.5zM1456 729.5q0 -235.5 -83 -406.5t-238.5 -263.5t-368.5 -92.5t-368.5 92.5t-238.5 263.5t-83 406.5t83 406.5t238.5 263t368.5 92t368.5 -92
t238.5 -263t83 -406.5zM760 1556l198 299h314l-287 -299h-225zM371 1556l198 299h314l-287 -299h-225z" />
    <glyph glyph-name="ohungarumlaut" unicode="&#x151;" horiz-adv-x="1208" 
d="M373 520.5q0 -151.5 62.5 -242t169 -90.5t169 90.5t62.5 242t-62.5 241.5t-169 90t-169 -90t-62.5 -241.5zM1137 520q0 -168 -65.5 -293t-185.5 -192.5t-282 -67.5t-281.5 67.5t-185 192.5t-65.5 293t65.5 293t185 192.5t281.5 67.5t282 -67.5t185.5 -192.5t65.5 -293z
M639 1159l199 299h313l-287 -299h-225zM250 1159l199 299h313l-287 -299h-225z" />
    <glyph glyph-name="OE" unicode="&#x152;" horiz-adv-x="2088" 
d="M387 729q0 -471 471 -471h103v942h-103q-471 0 -471 -471zM1262 1200v-330h659v-256h-659v-356h725v-258h-1129q-375 0 -578.5 189.5t-203.5 539.5t203.5 539.5t578.5 189.5h1110v-258h-706z" />
    <glyph glyph-name="oe" unicode="&#x153;" horiz-adv-x="1900" 
d="M836 520.5q0 151.5 -62.5 241.5t-169 90t-169 -90t-62.5 -241.5t62.5 -242t169 -90.5t169 90.5t62.5 242zM1325 870q-88 0 -144.5 -57t-72.5 -172h434q-12 115 -70.5 172t-146.5 57zM1325 1073q174 0 299 -93t174 -253q31 -106 31 -266h-727q6 -152 67.5 -221.5
t149.5 -69.5t140 40t63 105h293q-20 -96 -85 -176t-168.5 -126t-234.5 -46q-233 0 -358 156q-135 -156 -365 -156q-162 0 -281.5 67.5t-185 192.5t-65.5 293t65.5 293t185 192.5t281.5 67.5q229 0 365 -155q132 155 356 155z" />
    <glyph glyph-name="Racute" unicode="&#x154;" horiz-adv-x="1363" 
d="M469 797h213q252 0 252 215q0 203 -268 202h-197v-417zM1237 1047q0 -133 -71.5 -227.5t-194.5 -129.5v-4q78 -29 123 -87t96 -196l145 -403h-327l-117 346q-41 119 -95.5 165t-160.5 46h-166v-557h-301v1458h537q270 0 401 -106.5t131 -304.5zM492 1556l157 299h355
l-287 -299h-225z" />
    <glyph glyph-name="racute" unicode="&#x155;" horiz-adv-x="802" 
d="M696 807q-131 0 -200.5 -81t-69.5 -234v-492h-287v1040h264v-147h5q100 164 284 164q51 -1 94 -13v-247q-55 10 -90 10zM254 1159l158 299h354l-287 -299h-225z" />
    <glyph glyph-name="Rcommaaccent" unicode="&#x156;" horiz-adv-x="1363" 
d="M469 797h213q252 0 252 215q0 203 -268 202h-197v-417zM1237 1047q0 -133 -71.5 -227.5t-194.5 -129.5v-4q78 -29 123 -87t96 -196l145 -403h-327l-117 346q-41 119 -95.5 165t-160.5 46h-166v-557h-301v1458h537q270 0 401 -106.5t131 -304.5zM584 -334v213h254v-213
l-140 -219h-114l92 219h-92z" />
    <glyph glyph-name="rcommaaccent" unicode="&#x157;" horiz-adv-x="802" 
d="M696 807q-131 0 -200.5 -81t-69.5 -234v-492h-287v1040h264v-147h5q100 164 284 164q51 -1 94 -13v-247q-55 10 -90 10zM156 -334v213h254v-213l-140 -219h-114l92 219h-92z" />
    <glyph glyph-name="Rcaron" unicode="&#x158;" horiz-adv-x="1363" 
d="M469 797h213q252 0 252 215q0 203 -268 202h-197v-417zM1237 1047q0 -133 -71.5 -227.5t-194.5 -129.5v-4q78 -29 123 -87t96 -196l145 -403h-327l-117 346q-41 119 -95.5 165t-160.5 46h-166v-557h-301v1458h537q270 0 401 -106.5t131 -304.5zM512 1556l-233 299h262
l125 -155l122 155h263l-234 -299h-305z" />
    <glyph glyph-name="rcaron" unicode="&#x159;" horiz-adv-x="802" 
d="M696 807q-131 0 -200.5 -81t-69.5 -234v-492h-287v1040h264v-147h5q100 164 284 164q51 -1 94 -13v-247q-55 10 -90 10zM274 1159l-233 299h262l125 -155l123 155h262l-233 -299h-306z" />
    <glyph glyph-name="Sacute" unicode="&#x15a;" horiz-adv-x="1290" 
d="M369 479q0 -268 282 -268q115 0 183.5 50t68.5 123.5t-30.5 109.5t-88 56.5t-209 59.5t-256 82t-173 130t-68.5 225.5t67.5 236.5t190.5 152.5t280 54.5q273 0 413 -122t140 -357h-305q0 115 -65.5 177t-177 62t-173 -44t-61.5 -107t31 -98t96.5 -61t213 -62.5
t251.5 -80.5q238 -101 238 -370q0 -137 -72 -241.5t-201 -162t-297 -57.5q-276 0 -433 133t-157 379h312zM442 1556l158 299h354l-286 -299h-226z" />
    <glyph glyph-name="sacute" unicode="&#x15b;" horiz-adv-x="1073" 
d="M963 721h-275q0 152 -164 151q-68 0 -104.5 -25.5t-36.5 -66.5t22.5 -62.5t65.5 -35.5t154.5 -44t187.5 -60.5t130 -98t54 -186.5q0 -147 -123.5 -236.5t-339.5 -89.5t-339 93.5t-123 277.5h290q0 -78 47.5 -121t128.5 -43q158 0 158 100q0 78 -93 110q-44 15 -156.5 45
t-181 57.5t-119 91t-50.5 166t54.5 175t151.5 113.5t224 41q207 0 322 -90t115 -262zM352 1159l158 299h354l-286 -299h-226z" />
    <glyph glyph-name="Scircumflex" unicode="&#x15c;" horiz-adv-x="1290" 
d="M369 479q0 -268 282 -268q115 0 183.5 50t68.5 123.5t-30.5 109.5t-88 56.5t-209 59.5t-256 82t-173 130t-68.5 225.5t67.5 236.5t190.5 152.5t280 54.5q273 0 413 -122t140 -357h-305q0 115 -65.5 177t-177 62t-173 -44t-61.5 -107t31 -98t96.5 -61t213 -62.5
t251.5 -80.5q238 -101 238 -370q0 -137 -72 -241.5t-201 -162t-297 -57.5q-276 0 -433 133t-157 379h312zM768 1855l233 -299h-262l-125 156l-122 -156h-263l234 299h305z" />
    <glyph glyph-name="scircumflex" unicode="&#x15d;" horiz-adv-x="1073" 
d="M963 721h-275q0 152 -164 151q-68 0 -104.5 -25.5t-36.5 -66.5t22.5 -62.5t65.5 -35.5t154.5 -44t187.5 -60.5t130 -98t54 -186.5q0 -147 -123.5 -236.5t-339.5 -89.5t-339 93.5t-123 277.5h290q0 -78 47.5 -121t128.5 -43q158 0 158 100q0 78 -93 110q-44 15 -156.5 45
t-181 57.5t-119 91t-50.5 166t54.5 175t151.5 113.5t224 41q207 0 322 -90t115 -262zM526 1315l-125 -156h-262l234 299h305l233 -299h-262z" />
    <glyph glyph-name="Scedilla" unicode="&#x15e;" horiz-adv-x="1290" 
d="M369 479q0 -268 282 -268q115 0 183.5 50t68.5 123.5t-30.5 109.5t-88 56.5t-209 59.5t-256 82t-173 130t-68.5 225.5t67.5 236.5t190.5 152.5t280 54.5q272 0 412.5 -122t140.5 -357h-305q0 115 -65.5 177t-177 62t-173 -44t-61.5 -107t31 -98t96.5 -61t213 -62.5
t251.5 -80.5q238 -101 238 -370q0 -131 -66 -232.5t-184.5 -161t-276.5 -65.5l-57 -94q27 10 82 10t106 -42t51 -119.5t-65.5 -132t-186 -54.5t-231.5 62l45 92q84 -45 174 -45t90 72q0 34 -26.5 55.5t-66.5 21.5t-70 -12l-43 47l88 139q-246 16 -384.5 148.5t-138.5 361.5
h312z" />
    <glyph glyph-name="scedilla" unicode="&#x15f;" horiz-adv-x="1073" 
d="M512 -354q90 0 90 72q0 34 -26.5 55.5t-66.5 21.5t-71 -12l-43 47l86 139q-195 10 -302 103.5t-107 265.5h290q0 -78 47.5 -121t128.5 -43q158 0 158 100q0 78 -93 110q-44 15 -156.5 45t-181 57.5t-119 91t-50.5 166t54.5 175t151.5 113.5t224 41q207 0 322 -90
t115 -262h-275q0 152 -164 151q-68 0 -104.5 -25.5t-36.5 -66.5t22.5 -62.5t65.5 -35.5t154.5 -44t187.5 -60.5t130 -98t54 -194.5t-108.5 -215t-292.5 -101l-59 -94q27 10 82 10t106 -42t51 -119.5t-65.5 -132t-186.5 -54.5t-231 62l45 92q84 -45 174 -45z" />
    <glyph glyph-name="Scaron" unicode="&#x160;" horiz-adv-x="1290" 
d="M369 479q0 -268 282 -268q115 0 183.5 50t68.5 123.5t-30.5 109.5t-88 56.5t-209 59.5t-256 82t-173 130t-68.5 225.5t67.5 236.5t190.5 152.5t280 54.5q273 0 413 -122t140 -357h-305q0 115 -65.5 177t-177 62t-173 -44t-61.5 -107t31 -98t96.5 -61t213 -62.5
t251.5 -80.5q238 -101 238 -370q0 -137 -72 -241.5t-201 -162t-297 -57.5q-276 0 -433 133t-157 379h312zM463 1556l-234 299h263l124 -155l123 155h262l-233 -299h-305z" />
    <glyph glyph-name="scaron" unicode="&#x161;" horiz-adv-x="1073" 
d="M963 721h-275q0 152 -164 151q-68 0 -104.5 -25.5t-36.5 -66.5t22.5 -62.5t65.5 -35.5t154.5 -44t187.5 -60.5t130 -98t54 -186.5q0 -147 -123.5 -236.5t-339.5 -89.5t-339 93.5t-123 277.5h290q0 -78 47.5 -121t128.5 -43q158 0 158 100q0 78 -93 110q-44 15 -156.5 45
t-181 57.5t-119 91t-50.5 166t54.5 175t151.5 113.5t224 41q207 0 322 -90t115 -262zM373 1159l-234 299h262l125 -155l123 155h262l-233 -299h-305z" />
    <glyph glyph-name="uni0162" unicode="&#x162;" horiz-adv-x="1259" 
d="M780 1200v-1200h-301v1200h-459v258h1219v-258h-459zM504 -334v213h254v-213l-140 -219h-114l92 219h-92z" />
    <glyph glyph-name="uni0163" unicode="&#x163;" horiz-adv-x="731" 
d="M535 -121v-213l-140 -219h-114l92 219h-92v213h254zM471 375q-1 -160 119 -160q58 0 90 10v-219q-66 -20 -152 -20q-180 0 -262 78.5t-82 259.5v503h-168v213h168v271h287v-271h199v-213h-199v-452z" />
    <glyph glyph-name="Tcaron" unicode="&#x164;" horiz-adv-x="1259" 
d="M780 1200v-1200h-301v1200h-459v258h1219v-258h-459zM477 1556l-233 299h262l125 -155l123 155h262l-234 -299h-305z" />
    <glyph glyph-name="tcaron" unicode="&#x165;" horiz-adv-x="731" 
d="M471 375q-1 -160 119 -160q58 0 90 10v-219q-66 -20 -152 -20q-180 0 -262 78.5t-82 259.5v503h-168v213h168v271h287v-271h199v-213h-199v-452zM528 1096l54 362h227l-119 -362h-162z" />
    <glyph glyph-name="Tbar" unicode="&#x166;" horiz-adv-x="1259" 
d="M780 819h277v-217h-277v-602h-301v602h-276v217h276v381h-459v258h1219v-258h-459v-381z" />
    <glyph glyph-name="tbar" unicode="&#x167;" horiz-adv-x="731" 
d="M471 375q-1 -160 119 -160q58 0 90 10v-219q-66 -20 -152 -20q-180 0 -261 78.5t-81 259.5v137h-163v170h163v196h-170v213h170v271h285v-271h199v-213h-199v-196h193v-170h-193v-86z" />
    <glyph glyph-name="Utilde" unicode="&#x168;" horiz-adv-x="1470" 
d="M735.5 -33q-278.5 0 -429 151.5t-150.5 438.5v901h301v-891q0 -162 71.5 -248t206.5 -86t207 86.5t72 247.5v891h301v-901q0 -287 -150.5 -438.5t-429 -151.5zM866 1761q82 0 95 94h159q-6 -129 -69.5 -202.5t-171.5 -73.5q-73 0 -168 55q-37 20 -58.5 29.5t-48.5 9.5
q-82 0 -94 -94h-160q6 129 69.5 202.5t157.5 73.5t185 -55q71 -39 104 -39z" />
    <glyph glyph-name="utilde" unicode="&#x169;" 
d="M129 401v639h287v-610q0 -115 48 -172t137 -57t145.5 72.5t56.5 209.5v557h287v-1040h-269v131h-4q-115 -156 -299 -156t-286.5 110t-102.5 316zM929.5 1255.5q-63.5 -73.5 -155.5 -73.5t-184 55q-37 20 -58.5 29.5t-48.5 9.5q-82 0 -94 -94h-160q6 129 69.5 202.5
t157 73.5t185.5 -55q71 -39 104 -39q83 0 95 94h159q-6 -129 -69.5 -202.5z" />
    <glyph glyph-name="Umacron" unicode="&#x16a;" horiz-adv-x="1470" 
d="M735.5 -33q-278.5 0 -429 151.5t-150.5 438.5v901h301v-891q0 -162 71.5 -248t206.5 -86t207 86.5t72 247.5v891h301v-901q0 -287 -150.5 -438.5t-429 -151.5zM401 1593v187h668v-187h-668z" />
    <glyph glyph-name="umacron" unicode="&#x16b;" 
d="M129 401v639h287v-610q0 -115 48 -172t137 -57t145.5 72.5t56.5 209.5v557h287v-1040h-269v131h-4q-115 -156 -299 -156t-286.5 110t-102.5 316zM281 1225v186h667v-186h-667z" />
    <glyph glyph-name="Ubreve" unicode="&#x16c;" horiz-adv-x="1470" 
d="M735.5 -33q-278.5 0 -429 151.5t-150.5 438.5v901h301v-891q0 -162 71.5 -248t206.5 -86t207 86.5t72 247.5v891h301v-901q0 -287 -150.5 -438.5t-429 -151.5zM735 1546q-160 0 -255 81t-103 228h194q4 -61 48.5 -96t116 -35t115.5 35t48 96h195q-9 -147 -104 -228
t-255 -81z" />
    <glyph glyph-name="ubreve" unicode="&#x16d;" 
d="M129 401v639h287v-610q0 -115 48 -172t137 -57t145.5 72.5t56.5 209.5v557h287v-1040h-269v131h-4q-115 -156 -299 -156t-286.5 110t-102.5 316zM614.5 1149q-159.5 0 -255 81t-103.5 228h195q4 -61 48 -96t115.5 -35t115.5 35t48 96h195q-8 -147 -103.5 -228t-255 -81z
" />
    <glyph glyph-name="Uring" unicode="&#x16e;" horiz-adv-x="1470" 
d="M735.5 -33q-278.5 0 -429 151.5t-150.5 438.5v901h301v-891q0 -162 71.5 -248t206.5 -86t207 86.5t72 247.5v891h301v-901q0 -287 -150.5 -438.5t-429 -151.5zM625 1758q0 -46 32.5 -78.5t78.5 -32.5t78 32.5t32 78.5t-32 78t-78 32t-78.5 -32t-32.5 -78zM956 1757
q0 -92 -64.5 -156.5t-156.5 -64.5t-156.5 64.5t-64.5 156.5t64.5 156.5t156.5 64.5t156.5 -64.5t64.5 -156.5z" />
    <glyph glyph-name="uring" unicode="&#x16f;" 
d="M129 401v639h287v-610q0 -115 48 -172t137 -57t145.5 72.5t56.5 209.5v557h287v-1040h-269v131h-4q-115 -156 -299 -156t-286.5 110t-102.5 316zM504 1361q0 -46 32.5 -79t78.5 -33t78 33t32 79t-31.5 77.5t-78 31.5t-79 -31.5t-32.5 -77.5zM836 1360q0 -92 -64.5 -156.5
t-157 -64.5t-157 64.5t-64.5 156.5t64.5 156.5t157 64.5t157 -64.5t64.5 -156.5z" />
    <glyph glyph-name="Uhungarumlaut" unicode="&#x170;" horiz-adv-x="1470" 
d="M735.5 -33q-278.5 0 -429 151.5t-150.5 438.5v901h301v-891q0 -162 71.5 -248t206.5 -86t207 86.5t72 247.5v891h301v-901q0 -287 -150.5 -438.5t-429 -151.5zM729 1556l199 299h313l-287 -299h-225zM340 1556l199 299h313l-287 -299h-225z" />
    <glyph glyph-name="uhungarumlaut" unicode="&#x171;" 
d="M129 401v639h287v-610q0 -115 48 -172t137 -57t145.5 72.5t56.5 209.5v557h287v-1040h-269v131h-4q-115 -156 -299 -156t-286.5 110t-102.5 316zM649 1159l199 299h313l-287 -299h-225zM260 1159l199 299h313l-287 -299h-225z" />
    <glyph glyph-name="Uogonek" unicode="&#x172;" horiz-adv-x="1470" 
d="M944 -164q0 -80 72 -80q43 0 74 13v-146q-66 -27 -170 -27t-163 48.5t-59 138.5q0 55 27 98t84 88v4q-35 -6 -74 -6q-279 0 -429 151.5t-150 438.5v901h301v-891q0 -162 71.5 -248t206.5 -86t207 86.5t72 247.5v891h301v-901q0 -342 -236 -524q-76 -59 -105.5 -104.5
t-29.5 -92.5z" />
    <glyph glyph-name="uogonek" unicode="&#x173;" 
d="M129 401v639h287v-610q0 -115 48 -172t137 -57t145.5 72.5t56.5 209.5v557h287v-1040q-78 -53 -109 -95t-31 -85q0 -63 72 -64q43 1 74 13v-146q-66 -27 -170.5 -26.5t-162.5 47.5t-58 122t38.5 127t120.5 107h-43v131h-4q-115 -156 -299 -156t-286.5 110t-102.5 316z
" />
    <glyph glyph-name="Wcircumflex" unicode="&#x174;" horiz-adv-x="1957" 
d="M1243 0l-135 578q-76 322 -127 624h-4q-51 -303 -127 -624l-135 -578h-391l-306 1458h295l105 -530q66 -332 106 -631h4q55 309 134 631l126 530h381l127 -530q78 -322 134 -631h4q41 299 106 631l105 530h294l-305 -1458h-391zM1126 1855l234 -299h-262l-125 156
l-123 -156h-262l233 299h305z" />
    <glyph glyph-name="wcircumflex" unicode="&#x175;" horiz-adv-x="1658" 
d="M1010 0l-92 410q-47 213 -87 444h-4q-39 -231 -86 -444l-92 -410h-409l-230 1040h285l78 -401q49 -252 76 -453h4q37 229 88 449l92 405h393l92 -405q51 -219 88 -449h4q27 201 76 453l78 401h285l-230 -1040h-409zM829 1315l-124 -156h-263l234 299h305l233 -299h-262z
" />
    <glyph glyph-name="Ycircumflex" unicode="&#x176;" horiz-adv-x="1306" 
d="M803 0h-301v567l-498 891h338l139 -274q92 -182 170 -371h4q78 188 170 371l140 274h335l-497 -891v-567zM805 1855l233 -299h-262l-125 156l-123 -156h-262l234 299h305z" />
    <glyph glyph-name="ycircumflex" unicode="&#x177;" horiz-adv-x="1032" 
d="M204.5 -391q-106.5 0 -175.5 16v230q45 -16 120.5 -16.5t128 45.5t52.5 108.5t-49 202.5l-295 845h307l106 -348q66 -219 115 -436h4q61 252 121 436l113 348h295l-373 -1046q-53 -148 -117.5 -230.5t-155 -118.5t-197 -36zM516 1315l-125 -156h-262l233 299h306
l233 -299h-262z" />
    <glyph glyph-name="Ydieresis" unicode="&#x178;" horiz-adv-x="1306" 
d="M803 0h-301v567l-498 891h338l139 -274q92 -182 170 -371h4q78 188 170 371l140 274h335l-497 -891v-567zM750 1575v246h251v-246h-251zM305 1575v246h252v-246h-252z" />
    <glyph glyph-name="Zacute" unicode="&#x179;" horiz-adv-x="1191" 
d="M399 254h752v-254h-1110v264l717 936v4h-684v254h1042v-264l-717 -936v-4zM422 1556l158 299h354l-287 -299h-225z" />
    <glyph glyph-name="zacute" unicode="&#x17a;" horiz-adv-x="991" 
d="M403 225h531v-225h-877v233l510 578v4h-489v225h835v-233l-510 -578v-4zM307 1159l158 299h354l-287 -299h-225z" />
    <glyph glyph-name="Zdotaccent" unicode="&#x17b;" horiz-adv-x="1191" 
d="M399 254h752v-254h-1110v264l717 936v4h-684v254h1042v-264l-717 -936v-4zM453 1575v246h286v-246h-286z" />
    <glyph glyph-name="zdotaccent" unicode="&#x17c;" horiz-adv-x="991" 
d="M403 225h531v-225h-877v233l510 578v4h-489v225h835v-233l-510 -578v-4zM338 1212v246h287v-246h-287z" />
    <glyph glyph-name="Zcaron" unicode="&#x17d;" horiz-adv-x="1191" 
d="M399 254h752v-254h-1110v264l717 936v4h-684v254h1042v-264l-717 -936v-4zM442 1556l-233 299h262l125 -155l123 155h262l-233 -299h-306z" />
    <glyph glyph-name="zcaron" unicode="&#x17e;" horiz-adv-x="991" 
d="M403 225h531v-225h-877v233l510 578v4h-489v225h835v-233l-510 -578v-4zM328 1159l-234 299h262l125 -155l123 155h262l-233 -299h-305z" />
    <glyph glyph-name="longs" unicode="&#x17f;" horiz-adv-x="698" 
d="M193 1135q0 340 344 340q71 -1 141 -17v-203q-18 7 -74 7t-92.5 -38t-36.5 -124v-1100h-282v827h-173v213h173v95z" />
    <glyph glyph-name="Schwa" unicode="&#x18f;" horiz-adv-x="1564" 
d="M778 233q154 0 257.5 90.5t129.5 258.5h-774q25 -170 129 -259.5t258 -89.5zM1489 738q0 -224 -86 -398t-249 -273.5t-378 -99.5t-372.5 93.5t-242.5 264.5t-85 402q0 68 6 104h1094q-12 203 -128 301.5t-270 98.5t-237.5 -60.5t-104.5 -156.5h-321q67 288 267 382.5
t402 94.5t366.5 -93t251.5 -264.5t87 -395.5z" />
    <glyph glyph-name="florin" unicode="&#x192;" 
d="M1071 1253q-72 0 -119 -42t-73 -146l-27 -107h225v-213h-276l-187 -733q-55 -221 -153.5 -312t-280.5 -91q-82 0 -137 16v221q43 -12 111 -12t109.5 41t72.5 160l180 710h-207v213h258l33 129q53 207 152.5 300.5t269.5 93.5q88 -1 164 -21v-219q-43 12 -115 12z" />
    <glyph glyph-name="Aringacute" unicode="&#x1fa;" horiz-adv-x="1429" 
d="M883 711q-100 319 -166 569h-4q-76 -287 -164 -569l-31 -97h395zM436 356l-114 -356h-316l506 1458h406l505 -1458h-315l-113 356h-559zM604 1723q0 -46 33 -78.5t79 -32.5t77.5 32.5t31.5 78.5t-31.5 78t-77.5 32t-79 -32t-33 -78zM936 1722.5q0 -92.5 -64.5 -157
t-156.5 -64.5t-156.5 64.5t-64.5 157t64.5 157t156.5 64.5t156.5 -64.5t64.5 -157zM541 1987l157 299h355l-287 -299h-225z" />
    <glyph glyph-name="aringacute" unicode="&#x1fb;" horiz-adv-x="1120" 
d="M340 312.5q0 -60.5 40 -96.5t100 -36q119 0 177 60q35 35 47.5 78.5t12.5 119.5v39q-275 -18 -338 -71q-39 -33 -39 -93.5zM547 1073q446 0 446 -411v-377q0 -176 29 -285h-258q-14 59 -14 139h-5q-115 -164 -337 -164q-162 0 -258.5 89.5t-96.5 224.5q-1 135 93 217
q135 118 571 145v37q0 94 -45 139t-125 45t-124 -42t-48 -115h-279q8 158 123 258t328 100zM424 1338q0 -46 32.5 -78.5t79 -32.5t78 32.5t31.5 78.5t-31.5 78t-78 32t-79 -32t-32.5 -78zM756 1337.5q0 -92.5 -64.5 -157t-157 -64.5t-157 64.5t-64.5 157t64.5 157t157 64.5
t157 -64.5t64.5 -157zM360 1602l158 299h354l-286 -299h-226z" />
    <glyph glyph-name="AEacute" unicode="&#x1fc;" horiz-adv-x="1976" 
d="M883 1219h-29l-258 -598h373zM1874 0h-815l-53 367h-521l-157 -367h-340l680 1458h1187v-258h-679l47 -330h585v-256h-548l51 -356h563v-258zM887 1556l157 299h355l-287 -299h-225z" />
    <glyph glyph-name="aeacute" unicode="&#x1fd;" horiz-adv-x="1802" 
d="M608 461q-147 0 -207.5 -37t-60.5 -106.5t43 -107.5t105 -38q122 0 186 64q37 37 50 81.5t13 120.5v23h-129zM1226 870q-89 0 -146.5 -60t-71.5 -179h436q-10 119 -69.5 179t-148.5 60zM737 688q0 184 -180 184q-84 0 -130 -42t-50 -115h-279q8 158 125 258t343.5 100
t334.5 -123q129 123 314.5 123t310.5 -93t174 -253q31 -106 31 -266h-727q6 -152 67.5 -221.5t149.5 -69.5t140 40t62 105h293q-20 -96 -84.5 -176t-168 -126t-234.5 -46q-249 0 -379 183q-61 -90 -163.5 -136.5t-227.5 -46.5t-216 42t-140.5 116t-49.5 166q0 164 124 252
t401 88h159v57zM719 1159l158 299h354l-287 -299h-225z" />
    <glyph glyph-name="Oslashacute" unicode="&#x1fe;" horiz-adv-x="1531" 
d="M1157 729q0 180 -63 307l-555 -745q96 -74 227 -74q182 0 286.5 137.5t104.5 374.5zM766 1241q-182 0 -286.5 -137t-104.5 -375q0 -178 61 -307l557 743q-94 76 -227 76zM1456 729q0 -236 -83 -406.5t-238.5 -263t-375.5 -92.5t-382 105l-121 -160l-127 98l125 168
q-178 203 -178 551q0 236 83 407t238.5 263t375.5 92t384 -107l121 162l125 -98l-125 -168q178 -203 178 -551zM592 1556l158 299h354l-287 -299h-225z" />
    <glyph glyph-name="oslashacute" unicode="&#x1ff;" horiz-adv-x="1208" 
d="M852 520q0 100 -29 176l-356 -473q57 -47 137 -47q115 0 181.5 93t66.5 251zM356 520q0 -106 31 -180l356 475q-59 49 -139 49q-112 0 -180 -93t-68 -251zM72 520q0 168 65.5 293t185 192.5t280.5 67.5t284 -67l106 141l107 -84l-107 -141q144 -150 144 -402
q0 -168 -65.5 -293t-185.5 -192.5t-281 -67.5t-281 68l-105 -141l-108 79l106 142q-145 153 -145 405zM430 1159l158 299h354l-287 -299h-225z" />
    <glyph glyph-name="Scommaaccent" unicode="&#x218;" horiz-adv-x="1290" 
d="M369 479q0 -268 282 -268q115 0 183.5 50t68.5 123.5t-30.5 109.5t-88 56.5t-209 59.5t-256 82t-173 130t-68.5 225.5t67.5 236.5t190.5 152.5t280 54.5q273 0 413 -122t140 -357h-305q0 115 -65.5 177t-177 62t-173 -44t-61.5 -107t31 -98t96.5 -61t213 -62.5
t251.5 -80.5q238 -101 238 -370q0 -137 -72 -241.5t-201 -162t-297 -57.5q-276 0 -433 133t-157 379h312zM504 -334v213h254v-213l-140 -219h-114l92 219h-92z" />
    <glyph glyph-name="scommaaccent" unicode="&#x219;" horiz-adv-x="1073" 
d="M963 721h-275q0 152 -164 151q-68 0 -104.5 -25.5t-36.5 -66.5t22.5 -62.5t65.5 -35.5t154.5 -44t187.5 -60.5t130 -98t54 -186.5q0 -147 -123.5 -236.5t-339.5 -89.5t-339 93.5t-123 277.5h290q0 -78 47.5 -121t128.5 -43q158 0 158 100q0 78 -93 110q-44 15 -156.5 45
t-181 57.5t-119 91t-50.5 166t54.5 175t151.5 113.5t224 41q207 0 322 -90t115 -262zM408 -334v213h254v-213l-140 -219h-114l92 219h-92z" />
    <glyph glyph-name="uni021A" unicode="&#x21a;" horiz-adv-x="1259" 
d="M780 1200v-1200h-301v1200h-459v258h1219v-258h-459zM504 -334v213h254v-213l-140 -219h-114l92 219h-92z" />
    <glyph glyph-name="uni021B" unicode="&#x21b;" horiz-adv-x="731" 
d="M471 375q-1 -160 119 -160q58 0 90 10v-219q-66 -20 -152 -20q-180 0 -262 78.5t-82 259.5v503h-168v213h168v271h287v-271h199v-213h-199v-452zM281 -334v213h254v-213l-140 -219h-114l92 219h-92z" />
    <glyph glyph-name="dotlessj" unicode="&#x237;" horiz-adv-x="569" 
d="M76 -389q-76 0 -142 16v207q25 -6 56 -6q80 0 116.5 42t36.5 150v1020h287v-1063q0 -188 -95 -277t-259 -89z" />
    <glyph glyph-name="schwa" unicode="&#x259;" horiz-adv-x="1173" 
d="M585 170q91 0 151.5 60.5t76.5 179.5h-455q12 -119 74 -179.5t153 -60.5zM1102 523q0 -161 -61.5 -285.5t-180 -197.5t-274.5 -73t-272.5 67.5t-179 192.5t-62.5 293q0 37 4 70h743q-6 145 -72.5 212.5t-156.5 67.5t-139.5 -37.5t-59.5 -97.5h-293q33 145 159 241.5
t304 96.5t297 -69.5t181.5 -194.5t62.5 -286z" />
    <glyph glyph-name="uni02BC" unicode="&#x2bc;" horiz-adv-x="520" 
d="M125 1167v291h268v-291l-129 -299h-145l96 299h-90z" />
    <glyph glyph-name="circumflex" unicode="&#x2c6;" horiz-adv-x="976" 
d="M489 1315l-124 -156h-263l234 299h305l233 -299h-262z" />
    <glyph glyph-name="caron" unicode="&#x2c7;" horiz-adv-x="976" 
d="M336 1159l-234 299h263l124 -155l123 155h262l-233 -299h-305z" />
    <glyph glyph-name="uni02C9" unicode="&#x2c9;" horiz-adv-x="872" 
d="M102 1225v186h668v-186h-668z" />
    <glyph glyph-name="breve" unicode="&#x2d8;" horiz-adv-x="921" 
d="M461 1149q-160 0 -255 81t-104 228h195q4 -61 48 -96t115.5 -35t116 35t48.5 96h194q-8 -147 -103 -228t-255 -81z" />
    <glyph glyph-name="dotaccent" unicode="&#x2d9;" horiz-adv-x="491" 
d="M102 1212v246h287v-246h-287z" />
    <glyph glyph-name="ring" unicode="&#x2da;" horiz-adv-x="647" 
d="M213 1361q0 -46 33 -79t79 -33t77.5 33t31.5 79t-31.5 77.5t-77.5 31.5t-79 -31.5t-33 -77.5zM545 1360q0 -92 -64.5 -156.5t-157 -64.5t-157 64.5t-64.5 156.5t64.5 156.5t157 64.5t157 -64.5t64.5 -156.5z" />
    <glyph glyph-name="ogonek" unicode="&#x2db;" horiz-adv-x="595" 
d="M348 -180q0 -63 72 -64q43 0 74 13v-146q-68 -27 -172 -27t-162 47.5t-58 122.5t39 127t121 107h225q-77 -53 -108 -95t-31 -85z" />
    <glyph glyph-name="tilde" unicode="&#x2dc;" horiz-adv-x="974" 
d="M618 1364q83 0 95 94h159q-6 -129 -69.5 -202.5t-155.5 -73.5t-184 55q-37 20 -58.5 29.5t-48.5 9.5q-82 0 -94 -94h-160q6 129 70 202.5t157 73.5t185 -55q71 -39 104 -39z" />
    <glyph glyph-name="hungarumlaut" unicode="&#x2dd;" horiz-adv-x="1105" 
d="M492 1159l198 299h314l-287 -299h-225zM102 1159l199 299h313l-286 -299h-226z" />
    <glyph glyph-name="uni0312" unicode="&#x312;" horiz-adv-x="0" 
d="M356 1395v-213h-254v213l140 219h114l-92 -219h92z" />
    <glyph glyph-name="commaaccent" unicode="&#x326;" horiz-adv-x="0" 
d="M102 -334v213h254v-213l-139 -219h-115l93 219h-93z" />
    <glyph glyph-name="uni0333" unicode="&#x333;" horiz-adv-x="0" 
d="M-1024 -545v146h1024v-146h-1024zM-1024 -248v146h1024v-146h-1024z" />
    <glyph glyph-name="numeralsigngreek" unicode="&#x374;" horiz-adv-x="440" 
d="M61 1040l62 418h256l-137 -418h-181z" />
    <glyph glyph-name="numeralsignlowergreek" unicode="&#x375;" horiz-adv-x="440" 
d="M61 -188l62 417h256l-137 -417h-181z" />
    <glyph glyph-name="questiongreek" unicode="&#x37e;" horiz-adv-x="528" 
d="M106 0v342h316v-342l-152 -352h-172l113 352h-105zM106 698v342h316v-342h-316z" />
    <glyph glyph-name="tonos" unicode="&#x384;" horiz-adv-x="557" 
d="M102 1163l72 336h281l-140 -336h-213z" />
    <glyph glyph-name="dieresistonos" unicode="&#x385;" horiz-adv-x="1105" 
d="M772 1188v239h232v-239h-232zM102 1188v239h232v-239h-232zM410 1163l67 320h238l-111 -320h-194z" />
    <glyph glyph-name="Alphatonos" unicode="&#x386;" horiz-adv-x="1429" 
d="M883 711q-100 319 -166 569h-4q-76 -287 -164 -569l-31 -97h395zM436 356l-114 -356h-316l506 1458h406l505 -1458h-315l-113 356h-559zM6 1040l72 418h280l-139 -418h-213z" />
    <glyph glyph-name="anoteleia" unicode="&#x387;" horiz-adv-x="528" 
d="M106 698v342h316v-342h-316z" />
    <glyph glyph-name="Epsilontonos" unicode="&#x388;" horiz-adv-x="1296" 
d="M469 1200v-330h659v-256h-659v-356h725v-258h-1026v1458h1008v-258h-707zM-272 1040l71 418h281l-139 -418h-213z" />
    <glyph glyph-name="Etatonos" unicode="&#x389;" horiz-adv-x="1536" 
d="M1067 0v629h-598v-629h-301v1458h301v-571h598v571h301v-1458h-301zM-272 1040l71 418h281l-139 -418h-213z" />
    <glyph glyph-name="Iotatonos" unicode="&#x38a;" horiz-adv-x="636" 
d="M168 0v1458h301v-1458h-301zM-272 1040l71 418h281l-139 -418h-213z" />
    <glyph glyph-name="Omicrontonos" unicode="&#x38c;" horiz-adv-x="1531" 
d="M387 729.5q0 -231.5 101.5 -364t277.5 -132.5t277.5 132.5t101.5 364t-101.5 363.5t-277.5 132t-277.5 -132t-101.5 -363.5zM1456 729.5q0 -235.5 -83 -406.5t-238.5 -263.5t-368.5 -92.5t-368.5 92.5t-238.5 263.5t-83 406.5t83 406.5t238.5 263t368.5 92t368.5 -92
t238.5 -263t83 -406.5zM-184 1040l71 418h281l-139 -418h-213z" />
    <glyph glyph-name="Upsilontonos" unicode="&#x38e;" horiz-adv-x="1306" 
d="M803 0h-301v567l-498 891h338l139 -274q92 -182 170 -371h4q78 188 170 371l140 274h335l-497 -891v-567zM-391 1040l72 418h280l-139 -418h-213z" />
    <glyph glyph-name="Omegatonos" unicode="&#x38f;" horiz-adv-x="1503" 
d="M1417 848q0 -178 -74.5 -316.5t-209.5 -273.5v-4h307v-254h-586v266q121 123 186.5 248t65.5 309.5t-96.5 293t-258 108.5t-258 -108.5t-96.5 -293t65.5 -309.5t186.5 -248v-266h-586v254h308v4q-135 135 -210 273.5t-75 316.5q0 315 181.5 479t484.5 164t484 -164
t181 -479zM-203 1040l72 418h281l-140 -418h-213z" />
    <glyph glyph-name="iotadieresistonos" unicode="&#x390;" horiz-adv-x="647" 
d="M416 416q0 -201 120 -201q58 0 89 10v-221q-61 -18 -152 -18q-180 0 -262 89t-82 290v675h287v-624zM492 1188v239h231v-239h-231zM-178 1188v239h231v-239h-231zM129 1163l68 320h237l-110 -320h-195z" />
    <glyph glyph-name="Alpha" unicode="&#x391;" horiz-adv-x="1429" 
d="M883 711q-100 319 -166 569h-4q-76 -287 -164 -569l-31 -97h395zM436 356l-114 -356h-316l506 1458h406l505 -1458h-315l-113 356h-559z" />
    <glyph glyph-name="Beta" unicode="&#x392;" horiz-adv-x="1331" 
d="M469 248h223q137 0 199 44q61 44 61 141t-62 142t-206 46h-215v-373zM469 858h213q131 0 191 43q61 43 61 135t-56 134t-182 42h-227v-354zM1223 1083q0 -247 -254 -340v-4q149 -33 219 -115t69 -225q0 -183 -138 -291t-382 -108h-569v1458h524q265 0 398 -100t133 -275z
" />
    <glyph glyph-name="Gamma" unicode="&#x393;" horiz-adv-x="1040" 
d="M168 1458h852v-258h-551v-1200h-301v1458z" />
    <glyph glyph-name="uni0394" unicode="&#x394;" horiz-adv-x="1429" 
d="M879 711q-88 283 -164 569h-4q-66 -250 -166 -569l-146 -453h623zM6 0l510 1458h406l501 -1458h-1417z" />
    <glyph glyph-name="Epsilon" unicode="&#x395;" horiz-adv-x="1296" 
d="M469 1200v-330h659v-256h-659v-356h725v-258h-1026v1458h1008v-258h-707z" />
    <glyph glyph-name="Zeta" unicode="&#x396;" horiz-adv-x="1191" 
d="M399 254h752v-254h-1110v264l717 936v4h-684v254h1042v-264l-717 -936v-4z" />
    <glyph glyph-name="Eta" unicode="&#x397;" horiz-adv-x="1536" 
d="M1067 0v629h-598v-629h-301v1458h301v-571h598v571h301v-1458h-301z" />
    <glyph glyph-name="Theta" unicode="&#x398;" horiz-adv-x="1531" 
d="M494 614v232h544v-232h-544zM375 731.5q0 -235.5 104.5 -371t286.5 -135.5t286.5 135.5t104.5 371t-104.5 370.5t-286.5 135t-286.5 -135t-104.5 -370.5zM1456 730q0 -235 -83 -406.5t-238.5 -264t-368.5 -92.5t-368.5 92.5t-238.5 264.5t-83 406t83 405.5t238.5 263.5
t368.5 92t368.5 -92t238.5 -263t83 -406z" />
    <glyph glyph-name="Iota" unicode="&#x399;" horiz-adv-x="636" 
d="M168 0v1458h301v-1458h-301z" />
    <glyph glyph-name="Kappa" unicode="&#x39a;" horiz-adv-x="1357" 
d="M469 688v-688h-301v1458h301v-641h4l477 641h353l-555 -692l602 -766h-383l-494 688h-4z" />
    <glyph glyph-name="Lambda" unicode="&#x39b;" horiz-adv-x="1400" 
d="M1069 0l-213 700q-82 264 -154 564h-4q-72 -299 -153 -564l-213 -700h-326l490 1458h409l490 -1458h-326z" />
    <glyph glyph-name="Mu" unicode="&#x39c;" horiz-adv-x="2015" 
d="M1559 0v725q0 274 12 547h-4q-68 -258 -156 -537l-231 -735h-344l-232 735q-88 279 -155 537h-5q12 -272 13 -547v-725h-289v1458h483l211 -670q86 -274 144 -536h4q57 262 143 536l211 670h483v-1458h-288z" />
    <glyph glyph-name="Nu" unicode="&#x39d;" horiz-adv-x="1589" 
d="M457 0h-289v1458h428l283 -592q156 -330 266 -602h4q-16 338 -16 633v561h288v-1458h-428l-282 592q-156 330 -267 602h-4q16 -338 17 -633v-561z" />
    <glyph glyph-name="Xi" unicode="&#x39e;" horiz-adv-x="1382" 
d="M102 0v301h1178v-301h-1178zM166 584v301h1051v-301h-1051zM131 1157v301h1120v-301h-1120z" />
    <glyph glyph-name="Omicron" unicode="&#x39f;" horiz-adv-x="1531" 
d="M387 729.5q0 -231.5 101.5 -364t277.5 -132.5t277.5 132.5t101.5 364t-101.5 363.5t-277.5 132t-277.5 -132t-101.5 -363.5zM1456 729.5q0 -235.5 -83 -406.5t-238.5 -263.5t-368.5 -92.5t-368.5 92.5t-238.5 263.5t-83 406.5t83 406.5t238.5 263t368.5 92t368.5 -92
t238.5 -263t83 -406.5z" />
    <glyph glyph-name="Pi" unicode="&#x3a0;" horiz-adv-x="1513" 
d="M1047 0v1200h-578v-1200h-301v1458h1178v-1458h-299z" />
    <glyph glyph-name="Rho" unicode="&#x3a1;" horiz-adv-x="1302" 
d="M469 766h209q268 0 268 221t-268 221h-209v-442zM1253 987q0 -217 -137 -344t-397 -127h-250v-516h-301v1458h551q260 0 397 -127t137 -344z" />
    <glyph glyph-name="Sigma" unicode="&#x3a3;" horiz-adv-x="1198" 
d="M434 1204v-4l344 -459l-375 -483v-4h754v-254h-1110v264l371 477l-348 463v254h1058v-254h-694z" />
    <glyph glyph-name="Tau" unicode="&#x3a4;" horiz-adv-x="1259" 
d="M780 1200v-1200h-301v1200h-459v258h1219v-258h-459z" />
    <glyph glyph-name="Upsilon" unicode="&#x3a5;" horiz-adv-x="1306" 
d="M803 0h-301v567l-498 891h338l139 -274q92 -182 170 -371h4q78 188 170 371l140 274h335l-497 -891v-567z" />
    <glyph glyph-name="Phi" unicode="&#x3a6;" horiz-adv-x="1705" 
d="M1323 736q0 183 -85 282.5t-241 111.5v-790q156 12 241 112.5t85 283.5zM383 742q0 -184 84 -287t242 -115v790q-326 -24 -326 -388zM1630 736q0 -298 -166 -459.5t-467 -184.5v-153h-288v153q-301 23 -467 187.5t-166 462.5t166 457t467 179v142h288v-142
q301 -20 467 -182t166 -460z" />
    <glyph glyph-name="Chi" unicode="&#x3a7;" horiz-adv-x="1290" 
d="M1284 0h-350l-287 516h-4l-287 -516h-350l457 741l-434 717h344l270 -504h4l271 504h344l-435 -717z" />
    <glyph glyph-name="Psi" unicode="&#x3a8;" horiz-adv-x="1722" 
d="M1012 0h-301v334q-324 23 -476.5 180.5t-152.5 476.5v467h301v-459q0 -203 74.5 -297t253.5 -108v864h301v-864q178 14 252.5 108.5t74.5 296.5v459h301v-467q0 -319 -152.5 -477t-475.5 -180v-334z" />
    <glyph glyph-name="uni03A9" unicode="&#x3a9;" horiz-adv-x="1503" 
d="M1417 848q0 -178 -74.5 -316.5t-209.5 -273.5v-4h307v-254h-586v266q121 123 186.5 248t65.5 309.5t-96.5 293t-258 108.5t-258 -108.5t-96.5 -293t65.5 -309.5t186.5 -248v-266h-586v254h308v4q-135 135 -210 273.5t-75 316.5q0 315 181.5 479t484.5 164t484 -164
t181 -479z" />
    <glyph glyph-name="Iotadieresis" unicode="&#x3aa;" horiz-adv-x="636" 
d="M168 0v1458h301v-1458h-301zM416 1630v246h252v-246h-252zM-29 1630v246h252v-246h-252z" />
    <glyph glyph-name="Upsilondieresis" unicode="&#x3ab;" horiz-adv-x="1306" 
d="M803 0h-301v567l-498 891h338l139 -274q92 -182 170 -371h4q78 188 170 371l140 274h335l-497 -891v-567zM750 1575v246h251v-246h-251zM305 1575v246h252v-246h-252z" />
    <glyph glyph-name="alphatonos" unicode="&#x3ac;" horiz-adv-x="1255" 
d="M371 520.5q0 -149.5 61.5 -238.5t161.5 -89t159.5 87t59.5 240.5t-59.5 240.5t-159.5 87t-161.5 -89t-61.5 -238.5zM811 145q-99 -172 -327 -172q-112 0 -210 68t-150 191.5t-52 287.5t53 288t151 192t210 67q219 0 321 -170h4q4 76 16 143h279q-20 -147 -21 -368v-328
q-1 -137 79 -137q36 0 61 6v-205q-74 -25 -174 -24q-199 0 -236 161h-4zM479 1163l72 336h280l-139 -336h-213z" />
    <glyph glyph-name="epsilontonos" unicode="&#x3ad;" horiz-adv-x="1060" 
d="M977 707h-285q0 76 -44 115.5t-118 39.5t-113.5 -30.5t-39.5 -85.5t46 -88t126 -33h102v-207h-102q-193 0 -193 -125q0 -53 45 -84t119 -31q190 0 191 164h286q0 -184 -122.5 -279.5t-341 -95.5t-339 83t-120.5 231q0 100 50 161.5t161 94.5v4q-98 35 -142.5 90
t-44.5 141q0 141 114 221t317.5 80t325.5 -96t122 -270zM406 1163l71 336h281l-140 -336h-212z" />
    <glyph glyph-name="etatonos" unicode="&#x3ae;" horiz-adv-x="1261" 
d="M172 690q0 152 -82 152q-39 0 -59 -6v194q86 27 175 27t144.5 -44t75.5 -145h4q51 94 138 146.5t196 52.5q174 0 271.5 -109.5t97.5 -320.5v-1016h-287v981q0 242 -180 242q-92 0 -149.5 -75t-57.5 -208v-561h-287v690zM449 1163l71 336h281l-139 -336h-213z" />
    <glyph glyph-name="iotatonos" unicode="&#x3af;" horiz-adv-x="647" 
d="M416 416q0 -201 120 -201q58 0 89 10v-221q-61 -18 -152 -18q-180 0 -262 89t-82 290v675h287v-624zM164 1163l72 336h280l-139 -336h-213z" />
    <glyph glyph-name="upsilondieresistonos" unicode="&#x3b0;" horiz-adv-x="1232" 
d="M457 737v-342q0 -109 44 -157t132 -48q215 0 215 345q0 279 -72 505h279q78 -238 78 -515q0 -558 -496 -558q-233 0 -351 97.5t-118 306.5v299q0 94 -20.5 129t-59.5 35t-61 -7v203q86 27 166 27q135 0 199.5 -72t64.5 -248zM811 1188v239h231v-239h-231zM141 1188v239
h232v-239h-232zM449 1163l67 320h238l-111 -320h-194z" />
    <glyph glyph-name="alpha" unicode="&#x3b1;" horiz-adv-x="1255" 
d="M371 520.5q0 -149.5 61.5 -238.5t161.5 -89t159.5 87t59.5 240.5t-59.5 240.5t-159.5 87t-161.5 -89t-61.5 -238.5zM811 145q-99 -172 -327 -172q-112 0 -210 68t-150 191.5t-52 287.5t53 288t151 192t210 67q219 0 321 -170h4q4 76 16 143h279q-20 -147 -21 -368v-328
q-1 -137 79 -137q36 0 61 6v-205q-74 -25 -174 -24q-199 0 -236 161h-4z" />
    <glyph glyph-name="beta" unicode="&#x3b2;" horiz-adv-x="1241" 
d="M829 1086q1 192 -201 192q-102 0 -152 -68.5t-50 -216.5v-596q0 -96 54 -150t164 -54t173.5 62t63.5 173q0 238 -306 238h-28v223h28q125 0 189.5 51.5t64.5 145.5zM718 -20q-208 0 -288 114h-4v-473h-287l2 1364q0 242 126.5 374t352.5 132t353 -100.5t127 -270.5
q0 -260 -262 -332v-4q336 -70 336 -385q0 -195 -124 -307t-332 -112z" />
    <glyph glyph-name="gamma" unicode="&#x3b3;" horiz-adv-x="1138" 
d="M705 -12q0 -192 -23 -367h-287q23 175 23 340q0 166 -46 358.5t-110 322.5t-105.5 165t-93.5 35q-18 0 -47 -4v198q72 23 162 23t158 -51.5t126 -176.5q112 -240 148 -507h4q177 347 207 716h297q-31 -292 -127 -525.5t-286 -502.5v-24z" />
    <glyph glyph-name="delta" unicode="&#x3b4;" horiz-adv-x="1208" 
d="M373 471q0 -131 63.5 -208t168 -77t168 78t63.5 211q0 242 -238 348q-106 -43 -165.5 -132t-59.5 -220zM633 1270q-70 0 -95.5 -14.5t-25.5 -46.5t50 -66.5t179 -102.5q396 -202 396 -546q0 -337 -186.5 -432t-346.5 -95t-279.5 61.5t-186 174t-66.5 276.5t95 287
t271 182v4q-121 78 -175 141.5t-54 145.5q0 240 387 240q231 -1 426 -54v-235q-193 80 -389 80z" />
    <glyph glyph-name="epsilon" unicode="&#x3b5;" horiz-adv-x="1060" 
d="M977 707h-285q0 76 -44 115.5t-118 39.5t-113.5 -30.5t-39.5 -85.5t46 -88t126 -33h102v-207h-102q-193 0 -193 -125q0 -53 45 -84t119 -31q190 0 191 164h286q0 -184 -122.5 -279.5t-341 -95.5t-339 83t-120.5 231q0 100 50 161.5t161 94.5v4q-98 35 -142.5 90
t-44.5 141q0 141 114 221t317.5 80t325.5 -96t122 -270z" />
    <glyph glyph-name="zeta" unicode="&#x3b6;" horiz-adv-x="987" 
d="M371 492q0 -121 69.5 -183.5t234.5 -88.5t224 -98.5t59 -193.5t-57 -225h-227q33 71 33 143t-42 110t-163 52q-236 29 -333 128.5t-97 291.5q0 240 144 449.5t396 369.5v4h-487v207h821v-207q-575 -325 -575 -759z" />
    <glyph glyph-name="eta" unicode="&#x3b7;" horiz-adv-x="1261" 
d="M172 690q0 152 -82 152q-39 0 -59 -6v194q86 27 175 27t144.5 -44t75.5 -145h4q51 94 138 146.5t196 52.5q174 0 271.5 -109.5t97.5 -320.5v-1016h-287v981q0 242 -180 242q-92 0 -149.5 -75t-57.5 -208v-561h-287v690z" />
    <glyph glyph-name="theta" unicode="&#x3b8;" horiz-adv-x="1275" 
d="M636 180q118 0 187.5 116t81.5 333h-538q12 -217 81.5 -333t187.5 -116zM636 1278q-118 0 -187.5 -115.5t-81.5 -333.5h538q-12 217 -81.5 333t-187.5 116zM1202 729.5q0 -362.5 -146.5 -560.5t-417.5 -198t-417.5 198t-146.5 560.5t146.5 560t417.5 197.5t417.5 -197.5
t146.5 -560z" />
    <glyph glyph-name="iota" unicode="&#x3b9;" horiz-adv-x="647" 
d="M416 416q0 -201 120 -201q58 0 89 10v-221q-61 -18 -152 -18q-180 0 -262 89t-82 290v675h287v-624z" />
    <glyph glyph-name="kappa" unicode="&#x3ba;" horiz-adv-x="1146" 
d="M418 0h-287v1040h287v-444h4l184 215q119 139 210 191.5t208 52.5q49 0 98 -15v-235q-31 10 -67 10q-88 0 -172 -55t-203 -187l494 -573h-345l-323 375l-88 -99v-276z" />
    <glyph glyph-name="lambda" unicode="&#x3bb;" horiz-adv-x="1222" 
d="M1180 199q12 0 28 4v-203q-52 -16 -128 -16t-161.5 36.5t-162.5 262.5q-55 150 -162 456h-2q-80 -209 -170 -426l-129 -313h-307l465 1030q-45 127 -92.5 175t-112.5 48t-109 -16v213q65 27 173 27t183.5 -36t138 -127t126.5 -261l243 -645q47 -125 87 -167t92 -42z" />
    <glyph glyph-name="uni03BC" unicode="&#x3bc;" horiz-adv-x="1255" 
d="M1096 344q0 -137 79 -137q36 0 60 6v-205q-74 -25 -174 -24q-190 0 -227 166h-5q-29 -76 -95 -119t-159 -43t-149 43v-410h-287v1419h287v-610q0 -229 178 -229q92 0 148.5 72.5t56.5 209.5v557h287v-696z" />
    <glyph glyph-name="nu" unicode="&#x3bd;" horiz-adv-x="1110" 
d="M791 961q0 43 -7 79h283q10 -41 10 -127t-37.5 -248t-283.5 -665h-381l-189 662q-29 104 -58.5 142t-65.5 38t-50 -6v194q58 27 158 27t174 -74t111 -240l118 -526h5q121 274 167 438t46 306z" />
    <glyph glyph-name="xi" unicode="&#x3be;" horiz-adv-x="997" 
d="M166 1001q0 193 164 246v4h-213v207h850v-207h-199q-170 0 -257 -56.5t-87 -154.5t68.5 -143t183.5 -45h211v-205h-187q-168 0 -248.5 -60.5t-80.5 -157.5t71.5 -143t241.5 -68t229.5 -94.5t59.5 -194.5t-58 -226h-227q35 77 35 147t-51 110t-193 54q-407 39 -407 359
q0 295 311 370v5q-217 60 -217 253z" />
    <glyph glyph-name="omicron" unicode="&#x3bf;" horiz-adv-x="1208" 
d="M373 520.5q0 -151.5 62.5 -242t169 -90.5t169 90.5t62.5 242t-62.5 241.5t-169 90t-169 -90t-62.5 -241.5zM1137 520q0 -168 -65.5 -293t-185.5 -192.5t-282 -67.5t-281.5 67.5t-185 192.5t-65.5 293t65.5 293t185 192.5t281.5 67.5t282 -67.5t185.5 -192.5t65.5 -293z
" />
    <glyph glyph-name="pi" unicode="&#x3c0;" horiz-adv-x="1376" 
d="M1135 827v-473q0 -88 28.5 -121.5t77.5 -33.5t68 8v-203q-68 -20 -164 -20q-152 0 -224.5 75.5t-72.5 255.5v512h-352v-827h-287v827h-191v213h1321v-213h-204z" />
    <glyph glyph-name="rho" unicode="&#x3c1;" horiz-adv-x="1232" 
d="M399 521q0 -151 60.5 -238.5t168.5 -87.5t170 87.5t62 239.5t-62 240t-170 88t-168.5 -89t-60.5 -240zM659 -25q-164 0 -239 105h-4v-459h-287v899q0 168 62.5 293t178 192.5t271.5 67.5t274.5 -68.5t182 -196.5t63.5 -295t-59.5 -287t-169 -185.5t-273.5 -65.5z" />
    <glyph glyph-name="sigma1" unicode="&#x3c2;" horiz-adv-x="1130" 
d="M577 854q-97 0 -154.5 -76t-57.5 -214t79.5 -216t249.5 -102t234.5 -103.5t64.5 -207.5t-57 -232h-229q35 69 35 147t-50.5 120t-193.5 59q-435 46 -435 508q0 252 138.5 394t376.5 142t366.5 -119.5t142.5 -324.5h-296q-8 104 -62.5 164.5t-151.5 60.5z" />
    <glyph glyph-name="sigma" unicode="&#x3c3;" horiz-adv-x="1269" 
d="M373 513q0 -155 60.5 -240t170.5 -85t171 85t61 240t-61 240t-171 85t-170.5 -85t-60.5 -240zM1130 492q0 -160 -64.5 -279t-183 -182.5t-279.5 -63.5t-280.5 65.5t-185 187.5t-65.5 286t65.5 284.5t185 185t281.5 64.5h645v-206h-266v-5q147 -108 147 -337z" />
    <glyph glyph-name="tau" unicode="&#x3c4;" horiz-adv-x="958" 
d="M610 354q0 -155 107 -155q49 0 67 8v-203q-68 -20 -163 -20q-152 0 -224.5 75.5t-72.5 255.5v519h-306v206h922v-206h-330v-480z" />
    <glyph glyph-name="upsilon" unicode="&#x3c5;" horiz-adv-x="1232" 
d="M457 737v-342q0 -109 44 -157t132 -48q215 0 215 345q0 279 -72 505h279q78 -238 78 -515q0 -558 -496 -558q-233 0 -351 97.5t-118 306.5v299q0 94 -20.5 129t-59.5 35t-61 -7v203q86 27 166 27q135 0 199.5 -72t64.5 -248z" />
    <glyph glyph-name="phi" unicode="&#x3c6;" horiz-adv-x="1628" 
d="M1264 520q0 160 -81 250t-233 98v-696q152 8 233 98t81 250zM362 520q0 -160 82 -250t234 -98v696q-152 -8 -234 -98t-82 -250zM950 -379h-272v346q-281 10 -443.5 156.5t-162.5 396.5t162.5 396.5t443.5 156.5v283h272v-283q281 -10 443.5 -156.5t162.5 -396.5
t-162.5 -396.5t-443.5 -156.5v-346z" />
    <glyph glyph-name="chi" unicode="&#x3c7;" horiz-adv-x="1230" 
d="M200 1067q111 0 184 -56.5t134 -197.5l109 -246h4l278 473h316l-443 -712l158 -334q49 -104 92.5 -139t93.5 -35t80 6v-195q-74 -27 -180 -27t-179 56.5t-138 200.5l-99 219h-4l-293 -459h-315l463 692l-168 359q-49 106 -93 143t-96 37t-88 -10v194q73 31 184 31z" />
    <glyph glyph-name="psi" unicode="&#x3c8;" horiz-adv-x="1685" 
d="M993 -379h-286v361q-287 10 -432.5 128.5t-145.5 360.5v569h287v-540q0 -145 72.5 -218t218.5 -85v1159h286v-1157q303 31 303 354q0 272 -79 487h282q84 -228 84 -496q0 -535 -590 -562v-361z" />
    <glyph glyph-name="omega" unicode="&#x3c9;" horiz-adv-x="1703" 
d="M1602 459q0 -236 -102.5 -362t-309.5 -126q-274 0 -336 215h-4q-61 -215 -336 -215q-207 0 -309.5 126t-102.5 362q0 319 134 581h299q-136 -249 -136 -551.5t170 -302.5q139 0 140 189v418h286v-418q0 -188 140 -189q170 0 170 303.5t-136 550.5h299q134 -262 134 -581z
" />
    <glyph glyph-name="iotadieresis" unicode="&#x3ca;" horiz-adv-x="647" 
d="M416 416q0 -201 120 -201q58 0 89 10v-221q-61 -18 -152 -18q-180 0 -262 89t-82 290v675h287v-624zM369 1212v246h252v-246h-252zM-76 1212v246h252v-246h-252z" />
    <glyph glyph-name="upsilondieresis" unicode="&#x3cb;" horiz-adv-x="1232" 
d="M457 737v-342q0 -109 44 -157t132 -48q215 0 215 345q0 279 -72 505h279q78 -238 78 -515q0 -558 -496 -558q-233 0 -351 97.5t-118 306.5v299q0 94 -20.5 129t-59.5 35t-61 -7v203q86 27 166 27q135 0 199.5 -72t64.5 -248zM688 1212v246h252v-246h-252zM244 1212v246
h252v-246h-252z" />
    <glyph glyph-name="omicrontonos" unicode="&#x3cc;" horiz-adv-x="1208" 
d="M373 520.5q0 -151.5 62.5 -242t169 -90.5t169 90.5t62.5 242t-62.5 241.5t-169 90t-169 -90t-62.5 -241.5zM1137 520q0 -168 -65.5 -293t-185.5 -192.5t-282 -67.5t-281.5 67.5t-185 192.5t-65.5 293t65.5 293t185 192.5t281.5 67.5t282 -67.5t185.5 -192.5t65.5 -293z
M496 1163l71 336h281l-139 -336h-213z" />
    <glyph glyph-name="upsilontonos" unicode="&#x3cd;" horiz-adv-x="1232" 
d="M457 737v-342q0 -109 44 -157t132 -48q215 0 215 345q0 279 -72 505h279q78 -238 78 -515q0 -558 -496 -558q-233 0 -351 97.5t-118 306.5v299q0 94 -20.5 129t-59.5 35t-61 -7v203q86 27 166 27q135 0 199.5 -72t64.5 -248zM483 1163l72 336h281l-140 -336h-213z" />
    <glyph glyph-name="omegatonos" unicode="&#x3ce;" horiz-adv-x="1703" 
d="M1602 459q0 -236 -102.5 -362t-309.5 -126q-274 0 -336 215h-4q-61 -215 -336 -215q-207 0 -309.5 126t-102.5 362q0 319 134 581h299q-136 -249 -136 -551.5t170 -302.5q139 0 140 189v418h286v-418q0 -188 140 -189q170 0 170 303.5t-136 550.5h299q134 -262 134 -581z
M743 1163l72 336h281l-140 -336h-213z" />
    <glyph glyph-name="uni0400" unicode="&#x400;" horiz-adv-x="1296" 
d="M469 1200v-330h659v-256h-659v-356h725v-258h-1026v1458h1008v-258h-707zM846 1556h-225l-287 299h354z" />
    <glyph glyph-name="uni0401" unicode="&#x401;" horiz-adv-x="1296" 
d="M469 1200v-330h659v-256h-659v-356h725v-258h-1026v1458h1008v-258h-707zM768 1575v246h252v-246h-252zM324 1575v246h251v-246h-251z" />
    <glyph glyph-name="uni0402" unicode="&#x402;" horiz-adv-x="1642" 
d="M780 1200v-321q135 68 312 67q238 0 369.5 -129t131.5 -355t-131 -357.5t-360 -131.5q-111 0 -191 27v250q66 -18 146 -19q236 0 235 224q0 233 -256 233q-145 0 -256 -59v-629h-301v1200h-459v258h1219v-258h-459z" />
    <glyph glyph-name="uni0403" unicode="&#x403;" horiz-adv-x="1040" 
d="M168 1458h852v-258h-551v-1200h-301v1458zM420 1556l158 299h354l-287 -299h-225z" />
    <glyph glyph-name="uni0404" unicode="&#x404;" horiz-adv-x="1456" 
d="M750 -33q-207 0 -359.5 92.5t-233.5 263.5t-81 405t82 406.5t235.5 264.5t348 92t329.5 -67.5t213 -190.5t84 -281h-303q-16 127 -97 200t-219 73t-232.5 -97.5t-121.5 -269.5h508v-258h-508q27 -174 119 -270.5t230.5 -96.5t220.5 73t100 206h309q-22 -258 -187 -401.5
t-437 -143.5z" />
    <glyph glyph-name="uni0405" unicode="&#x405;" horiz-adv-x="1290" 
d="M369 479q0 -268 282 -268q115 0 183.5 50t68.5 123.5t-30.5 109.5t-88 56.5t-209 59.5t-256 82t-173 130t-68.5 225.5t67.5 236.5t190.5 152.5t280 54.5q273 0 413 -122t140 -357h-305q0 115 -65.5 177t-177 62t-173 -44t-61.5 -107t31 -98t96.5 -61t213 -62.5
t251.5 -80.5q238 -101 238 -370q0 -137 -72 -241.5t-201 -162t-297 -57.5q-276 0 -433 133t-157 379h312z" />
    <glyph glyph-name="uni0406" unicode="&#x406;" horiz-adv-x="636" 
d="M168 0v1458h301v-1458h-301z" />
    <glyph glyph-name="uni0407" unicode="&#x407;" horiz-adv-x="636" 
d="M168 0v1458h301v-1458h-301zM416 1575v246h252v-246h-252zM-29 1575v246h252v-246h-252z" />
    <glyph glyph-name="uni0408" unicode="&#x408;" horiz-adv-x="802" 
d="M164 -14q-78 0 -133 16v256q55 -10 114.5 -10t105.5 24q93 48 93 256v930h301v-993q0 -248 -115.5 -363.5t-365.5 -115.5z" />
    <glyph glyph-name="uni0409" unicode="&#x409;" horiz-adv-x="2170" 
d="M1337 250h209q268 0 268.5 221t-268.5 221h-209v-442zM1587 942q260 0 397.5 -127t137.5 -344t-137.5 -344t-397.5 -127h-551v1200h-409q-16 -512 -69.5 -770t-153 -350t-281.5 -92q-59 0 -100 12v246q16 -4 36 -4q102 0 155.5 89t81.5 344t42 783h999v-516h250z" />
    <glyph glyph-name="uni040A" unicode="&#x40a;" horiz-adv-x="2201" 
d="M1845 471q0 221 -268 221h-209v-442h209q268 0 268 221zM2152 471q0 -217 -137 -344t-397 -127h-551v629h-598v-629h-301v1458h301v-571h598v571h301v-516h250q260 0 397 -127t137 -344z" />
    <glyph glyph-name="uni040B" unicode="&#x40b;" horiz-adv-x="1640" 
d="M1272 389q0 250 -252 250q-131 0 -240 -37v-602h-301v1200h-459v258h1219v-258h-459v-350q145 47 351 47t324 -115.5t118 -332.5v-449h-301v389z" />
    <glyph glyph-name="uni040C" unicode="&#x40c;" horiz-adv-x="1357" 
d="M469 688v-688h-301v1458h301v-641h4l477 641h353l-555 -692l602 -766h-383l-494 688h-4zM506 1556l158 299h354l-287 -299h-225z" />
    <glyph glyph-name="uni040D" unicode="&#x40d;" horiz-adv-x="1589" 
d="M457 897q0 -295 -17 -633h4q111 272 267 602l282 592h428v-1458h-288v561q0 295 16 633h-4q-111 -272 -266 -602l-283 -592h-428v1458h289v-561zM948 1556h-225l-287 299h355z" />
    <glyph glyph-name="uni040E" unicode="&#x40e;" horiz-adv-x="1396" 
d="M413 -18q-122 0 -188 18v252q39 -12 111 -12t121 38.5t49 112.5q0 41 -13.5 75t-82.5 173l-406 819h326l186 -420q102 -227 182 -422h4q86 217 179 422l186 420h326l-570 -1171q-82 -166 -185 -235.5t-225 -69.5zM698.5 1546q-159.5 0 -255 81t-103.5 228h195
q4 -61 48 -96t115.5 -35t115.5 35t48 96h195q-8 -147 -103.5 -228t-255 -81z" />
    <glyph glyph-name="uni040F" unicode="&#x40f;" horiz-adv-x="1515" 
d="M891 0v-328h-287v328h-436v1458h301v-1200h578v1200h301v-1458h-457z" />
    <glyph glyph-name="uni0410" unicode="&#x410;" horiz-adv-x="1429" 
d="M883 711q-100 319 -166 569h-4q-76 -287 -164 -569l-31 -97h395zM436 356l-114 -356h-316l506 1458h406l505 -1458h-315l-113 356h-559z" />
    <glyph glyph-name="uni0411" unicode="&#x411;" horiz-adv-x="1361" 
d="M711 250q266 0 266 204t-266 203h-242v-407h242zM469 1208v-301h301q242 0 379 -121.5t137 -332.5t-136 -332t-380 -121h-602v1458h1026v-250h-725z" />
    <glyph glyph-name="uni0412" unicode="&#x412;" horiz-adv-x="1331" 
d="M469 248h223q137 0 199 44q61 44 61 141t-62 142t-206 46h-215v-373zM469 858h213q131 0 191 43q61 43 61 135t-56 134t-182 42h-227v-354zM1223 1083q0 -247 -254 -340v-4q149 -33 219 -115t69 -225q0 -183 -138 -291t-382 -108h-569v1458h524q265 0 398 -100t133 -275z
" />
    <glyph glyph-name="uni0413" unicode="&#x413;" horiz-adv-x="1040" 
d="M168 1458h852v-258h-551v-1200h-301v1458z" />
    <glyph glyph-name="uni0414" unicode="&#x414;" horiz-adv-x="1626" 
d="M1112 258v942h-465q-18 -643 -119 -942h584zM1597 -328h-286v328h-983v-328h-287v586h174q63 131 99 396.5t44 803.5h1055v-1200h184v-586z" />
    <glyph glyph-name="uni0415" unicode="&#x415;" horiz-adv-x="1296" 
d="M469 1200v-330h659v-256h-659v-356h725v-258h-1026v1458h1008v-258h-707z" />
    <glyph glyph-name="uni0416" unicode="&#x416;" horiz-adv-x="1880" 
d="M1087 729v-729h-294v729h-5l-423 -729h-357l502 766l-451 692h347l382 -682h5v682h294v-682h5l383 682h346l-451 -692l502 -766h-356l-424 729h-5z" />
    <glyph glyph-name="uni0417" unicode="&#x417;" horiz-adv-x="1302" 
d="M905 406q0 198 -309 198h-94v248h94q135 0 213 53t78 141t-65.5 138.5t-176.5 50.5q-250 0 -250 -242h-323q0 236 152.5 366t420.5 130t413.5 -108.5t145.5 -301.5q0 -123 -61.5 -200.5t-194.5 -124.5v-4q145 -47 213 -133.5t68 -220.5t-72 -229t-201 -147.5t-299 -52.5
q-293 0 -448.5 130t-155.5 378h320q0 -254 284 -254q113 0 180.5 50.5t67.5 134.5z" />
    <glyph glyph-name="uni0418" unicode="&#x418;" horiz-adv-x="1589" 
d="M457 897q0 -295 -17 -633h4q111 272 267 602l282 592h428v-1458h-288v561q0 295 16 633h-4q-111 -272 -266 -602l-283 -592h-428v1458h289v-561z" />
    <glyph glyph-name="uni0419" unicode="&#x419;" horiz-adv-x="1589" 
d="M457 897q0 -295 -17 -633h4q111 272 267 602l282 592h428v-1458h-288v561q0 295 16 633h-4q-111 -272 -266 -602l-283 -592h-428v1458h289v-561zM774 1546q-160 0 -255 81t-103 228h194q4 -61 48 -96t116 -35t116 35t48 96h195q-9 -147 -104 -228t-255 -81z" />
    <glyph glyph-name="uni041A" unicode="&#x41a;" horiz-adv-x="1357" 
d="M469 688v-688h-301v1458h301v-641h4l477 641h353l-555 -692l602 -766h-383l-494 688h-4z" />
    <glyph glyph-name="uni041B" unicode="&#x41b;" horiz-adv-x="1505" 
d="M1036 0v1200h-409q-16 -512 -69.5 -770t-153 -350t-281.5 -92q-59 0 -100 12v246q16 -4 36 -4q102 0 155.5 89t81.5 344t42 783h999v-1458h-301z" />
    <glyph glyph-name="uni041C" unicode="&#x41c;" horiz-adv-x="2015" 
d="M1559 0v725q0 274 12 547h-4q-68 -258 -156 -537l-231 -735h-344l-232 735q-88 279 -155 537h-5q12 -272 13 -547v-725h-289v1458h483l211 -670q86 -274 144 -536h4q57 262 143 536l211 670h483v-1458h-288z" />
    <glyph glyph-name="uni041D" unicode="&#x41d;" horiz-adv-x="1536" 
d="M1067 0v629h-598v-629h-301v1458h301v-571h598v571h301v-1458h-301z" />
    <glyph glyph-name="uni041E" unicode="&#x41e;" horiz-adv-x="1531" 
d="M387 729.5q0 -231.5 101.5 -364t277.5 -132.5t277.5 132.5t101.5 364t-101.5 363.5t-277.5 132t-277.5 -132t-101.5 -363.5zM1456 729.5q0 -235.5 -83 -406.5t-238.5 -263.5t-368.5 -92.5t-368.5 92.5t-238.5 263.5t-83 406.5t83 406.5t238.5 263t368.5 92t368.5 -92
t238.5 -263t83 -406.5z" />
    <glyph glyph-name="uni041F" unicode="&#x41f;" horiz-adv-x="1513" 
d="M1047 0v1200h-578v-1200h-301v1458h1178v-1458h-299z" />
    <glyph glyph-name="uni0420" unicode="&#x420;" horiz-adv-x="1302" 
d="M469 766h209q268 0 268 221t-268 221h-209v-442zM1253 987q0 -217 -137 -344t-397 -127h-250v-516h-301v1458h551q260 0 397 -127t137 -344z" />
    <glyph glyph-name="uni0421" unicode="&#x421;" horiz-adv-x="1435" 
d="M743 1225q-166 0 -261 -132t-95 -363.5t93 -364t257 -132.5q129 0 210 73t97 206h310q-20 -258 -184 -401.5t-433 -143.5q-203 0 -352 92.5t-229 263.5t-80 405t81 406.5t231.5 264.5t342 92t325.5 -67.5t209.5 -190.5t82.5 -281h-304q-14 127 -94 200t-207 73z" />
    <glyph glyph-name="uni0422" unicode="&#x422;" horiz-adv-x="1259" 
d="M780 1200v-1200h-301v1200h-459v258h1219v-258h-459z" />
    <glyph glyph-name="uni0423" unicode="&#x423;" horiz-adv-x="1396" 
d="M413 -18q-122 0 -188 18v252q39 -12 111 -12t121 38.5t49 112.5q0 41 -13.5 75t-82.5 173l-406 819h326l186 -420q102 -227 182 -422h4q86 217 179 422l186 420h326l-570 -1171q-82 -166 -185 -235.5t-225 -69.5z" />
    <glyph glyph-name="uni0424" unicode="&#x424;" horiz-adv-x="1765" 
d="M387 729q0 -162 90 -258t258 -117v750q-168 -20 -258 -116.5t-90 -258.5zM1378 729q0 162 -91 259t-259 116v-750q168 19 259 116t91 259zM1028 -53h-293v157q-317 18 -488 180t-171 445t171 444.5t488 180.5v157h293v-157q319 -18 490.5 -180t171.5 -445t-171 -444.5
t-491 -180.5v-157z" />
    <glyph glyph-name="uni0425" unicode="&#x425;" horiz-adv-x="1290" 
d="M1284 0h-350l-287 516h-4l-287 -516h-350l457 741l-434 717h344l270 -504h4l271 504h344l-435 -717z" />
    <glyph glyph-name="uni0426" unicode="&#x426;" horiz-adv-x="1576" 
d="M1532 258v-586h-287v328h-1077v1458h301v-1200h578v1200h301v-1200h184z" />
    <glyph glyph-name="uni0427" unicode="&#x427;" horiz-adv-x="1390" 
d="M651 764q141 0 271 37v657h301v-1458h-301v551q-171 -45 -357 -45q-242 0 -369.5 115.5t-127.5 332.5v504h301v-444q0 -121 70.5 -185.5t211.5 -64.5z" />
    <glyph glyph-name="uni0428" unicode="&#x428;" horiz-adv-x="2105" 
d="M168 0v1458h301v-1200h434v1200h301v-1200h434v1200h299v-1458h-1769z" />
    <glyph glyph-name="uni0429" unicode="&#x429;" horiz-adv-x="2150" 
d="M2122 258v-586h-287v328h-1667v1458h301v-1200h434v1200h301v-1200h434v1200h299v-1200h185z" />
    <glyph glyph-name="uni042A" unicode="&#x42a;" horiz-adv-x="1552" 
d="M719 250h209q268 0 268 221t-268 221h-209v-442zM969 942q260 0 397 -127t137 -344t-137 -344t-397 -127h-551v1200h-398v258h699v-516h250z" />
    <glyph glyph-name="uni042B" unicode="&#x42b;" horiz-adv-x="1939" 
d="M946 471q0 221 -268 221h-209v-442h209q268 0 268 221zM1470 0v1458h302v-1458h-302zM168 1458h301v-516h250q260 0 397 -127t137 -344t-137 -344t-397 -127h-551v1458z" />
    <glyph glyph-name="uni042C" unicode="&#x42c;" horiz-adv-x="1302" 
d="M946 471q0 221 -268 221h-209v-442h209q268 0 268 221zM168 1458h301v-516h250q260 0 397 -127t137 -344t-137 -344t-397 -127h-551v1458z" />
    <glyph glyph-name="uni042D" unicode="&#x42d;" horiz-adv-x="1456" 
d="M1380 728q0 -235 -80.5 -405.5t-233.5 -263t-359 -92.5q-272 0 -437.5 143.5t-187.5 401.5h309q18 -133 100 -206t220.5 -73t230.5 96.5t119 270.5h-508v258h508q-27 172 -121 269.5t-232.5 97.5t-219 -73t-97.5 -200h-303q6 158 84 281t213 190.5t329.5 67.5t348.5 -92
t235.5 -264t81.5 -407z" />
    <glyph glyph-name="uni042E" unicode="&#x42e;" horiz-adv-x="2119" 
d="M1733 729.5q0 231.5 -94.5 363.5t-259.5 132t-260 -133.5t-95 -362.5t95 -362.5t260 -133.5t259.5 132.5t94.5 364zM2044 729.5q0 -235.5 -80 -406.5t-230.5 -263.5t-355.5 -92.5q-279 0 -452.5 168t-206.5 465h-250v-600h-301v1458h301v-600h250q33 297 207 465t452 168
q205 0 355.5 -92t230.5 -263t80 -406.5z" />
    <glyph glyph-name="uni042F" unicode="&#x42f;" horiz-adv-x="1355" 
d="M653 1214q-268 0 -268 -210q0 -223 252 -224h250v434h-234zM82 1004q0 219 134 336.5t398 117.5h574v-1458h-301v541h-295l-262 -541h-328l313 596q-233 110 -233 408z" />
    <glyph glyph-name="uni0430" unicode="&#x430;" horiz-adv-x="1120" 
d="M340 312.5q0 -60.5 40 -96.5t100 -36q119 0 177 60q35 35 47.5 78.5t12.5 119.5v39q-275 -18 -338 -71q-39 -33 -39 -93.5zM547 1073q446 0 446 -411v-377q0 -176 29 -285h-258q-14 59 -14 139h-5q-115 -164 -337 -164q-162 0 -258.5 89.5t-96.5 224.5q-1 135 93 217
q135 118 571 145v37q0 94 -45 139t-125 45t-124 -42t-48 -115h-279q8 158 123 258t328 100z" />
    <glyph glyph-name="uni0431" unicode="&#x431;" 
d="M602 803q-229 0 -229 -297q0 -152 60.5 -235t173 -83t173 80t60.5 225.5t-62.5 227.5t-175.5 82zM659 1012q145 0 254 -60.5t168.5 -172t59.5 -271.5t-65.5 -284t-185.5 -190.5t-282 -66.5q-256 0 -394 158.5t-138 466.5t66.5 490t199.5 263t385 99t360 47v-240
q-97 -29 -299 -39t-296.5 -53t-138.5 -125t-60 -221h4q88 199 362 199z" />
    <glyph glyph-name="uni0432" unicode="&#x432;" horiz-adv-x="1124" 
d="M416 186h153q195 0 195 127t-195 127h-153v-254zM416 612h155q174 0 174 121t-174 121h-155v-242zM1026 760q0 -176 -192 -223v-5q217 -39 217 -241q0 -139 -108.5 -215t-307.5 -76h-496v1040h467q420 1 420 -280z" />
    <glyph glyph-name="uni0433" unicode="&#x433;" horiz-adv-x="903" 
d="M426 827v-827h-287v1040h744v-213h-457z" />
    <glyph glyph-name="uni0434" unicode="&#x434;" horiz-adv-x="1310" 
d="M864 213v614h-303q-23 -406 -88 -614h391zM1294 -328h-286v328h-705v-328h-287v541h131q55 92 89 272.5t51 554.5h864v-827h143v-541z" />
    <glyph glyph-name="uni0435" unicode="&#x435;" horiz-adv-x="1173" 
d="M588 870q-90 0 -150.5 -57t-77.5 -172h455q-12 113 -74.5 171t-152.5 58zM575.5 -33q-147.5 0 -264 71t-178 197.5t-61.5 287.5t61.5 284t178 194.5t285.5 71.5t296 -93t176 -253q33 -104 33 -266h-748q6 -152 70.5 -221.5t157 -69.5t147.5 40t66 105h292
q-20 -96 -86.5 -176t-172 -126t-253 -46z" />
    <glyph glyph-name="uni0436" unicode="&#x436;" horiz-adv-x="1556" 
d="M918 530v-530h-279v530h-4l-316 -530h-344l385 561l-344 479h314l305 -462h4v462h279v-462h4l305 462h313l-344 -479l385 -561h-344l-315 530h-4z" />
    <glyph glyph-name="uni0437" unicode="&#x437;" horiz-adv-x="1056" 
d="M958 772q0 -86 -44 -141.5t-142 -89.5v-4q111 -33 161 -94.5t50 -161.5q0 -147 -120.5 -230.5t-338.5 -83.5t-341.5 95.5t-123.5 279.5h287q0 -164 191 -164q74 0 118.5 31t44.5 84q0 125 -192 125h-102v207h102q80 0 126 32.5t46 88.5t-40 86t-114 30t-117.5 -40
t-43.5 -115h-285q0 174 122 270t326 96t317 -80t113 -221z" />
    <glyph glyph-name="uni0438" unicode="&#x438;" horiz-adv-x="1372" 
d="M946 0v387q0 190 17 408h-5q-76 -199 -178 -385l-223 -410h-418v1040h287v-389q0 -188 -16 -405h4q76 199 178 385l223 409h418v-1040h-287z" />
    <glyph glyph-name="uni0439" unicode="&#x439;" horiz-adv-x="1372" 
d="M946 0v387q0 190 17 408h-5q-76 -199 -178 -385l-223 -410h-418v1040h287v-389q0 -188 -16 -405h4q76 199 178 385l223 409h418v-1040h-287zM688 1149q-160 0 -255 81t-103 228h194q4 -61 48 -96t116 -35t116 35t48 96h195q-9 -147 -104 -228t-255 -81z" />
    <glyph glyph-name="uni043A" unicode="&#x43a;" horiz-adv-x="1146" 
d="M426 487v-487h-287v1040h287v-419h4l336 419h324l-396 -479l439 -561h-355l-348 487h-4z" />
    <glyph glyph-name="uni043B" unicode="&#x43b;" horiz-adv-x="1175" 
d="M750 0v827h-244q-8 -348 -52 -529t-124 -245.5t-215 -64.5q-55 0 -103 12v203q20 -4 39 -4q68 0 122 91.5t67 749.5h796v-1040h-286z" />
    <glyph glyph-name="uni043C" unicode="&#x43c;" horiz-adv-x="1708" 
d="M1303 0v477q0 166 10 375h-2q-47 -164 -119 -371l-168 -481h-340l-170 481q-78 233 -117 371h-4q10 -209 10 -375v-477h-264v1040h451l155 -444q59 -172 107 -381h4q39 182 107 381l153 444h453v-1040h-266z" />
    <glyph glyph-name="uni043D" unicode="&#x43d;" horiz-adv-x="1255" 
d="M829 0v422h-403v-422h-287v1040h287v-405h403v405h287v-1040h-287z" />
    <glyph glyph-name="uni043E" unicode="&#x43e;" horiz-adv-x="1208" 
d="M373 520.5q0 -151.5 62.5 -242t169 -90.5t169 90.5t62.5 242t-62.5 241.5t-169 90t-169 -90t-62.5 -241.5zM1137 520q0 -168 -65.5 -293t-185.5 -192.5t-282 -67.5t-281.5 67.5t-185 192.5t-65.5 293t65.5 293t185 192.5t281.5 67.5t282 -67.5t185.5 -192.5t65.5 -293z
" />
    <glyph glyph-name="uni043F" unicode="&#x43f;" horiz-adv-x="1239" 
d="M813 0v827h-387v-827h-287v1040h961v-1040h-287z" />
    <glyph glyph-name="uni0440" unicode="&#x440;" horiz-adv-x="1224" 
d="M412 520q0 -154 59 -240t159 -87q100 0 163 89q61 88 61 238t-61 239t-162 89t-160 -87t-59 -241zM422 903q100 164 318 164q110 0 208 -68q98 -67 152 -191t53 -288q0 -164 -52 -288q-51 -124 -149 -192t-208 -67q-215 0 -314 152h-4v-504h-287v1419h279v-137h4z" />
    <glyph glyph-name="uni0441" unicode="&#x441;" horiz-adv-x="1150" 
d="M583 852q-93 0 -152.5 -89t-59.5 -242.5t59 -243t152.5 -89.5t145.5 58.5t58 161.5h301q-16 -199 -149 -320t-342 -121q-158 0 -276.5 68.5t-183 193.5t-64.5 291t64.5 291t183 193.5t266 68.5t255 -53t172 -149.5t74.5 -217.5h-299q-8 92 -60 145.5t-145 53.5z" />
    <glyph glyph-name="uni0442" unicode="&#x442;" horiz-adv-x="970" 
d="M629 827v-827h-287v827h-330v213h946v-213h-329z" />
    <glyph glyph-name="uni0443" unicode="&#x443;" horiz-adv-x="1032" 
d="M204.5 -391q-106.5 0 -175.5 16v230q45 -16 120.5 -16.5t128 45.5t52.5 108.5t-49 202.5l-295 845h307l106 -348q66 -219 115 -436h4q61 252 121 436l113 348h295l-373 -1046q-53 -148 -117.5 -230.5t-155 -118.5t-197 -36z" />
    <glyph glyph-name="uni0444" unicode="&#x444;" horiz-adv-x="1679" 
d="M1096 193q96 0 154.5 89t58.5 238.5t-58.5 238.5t-154.5 89q-64 0 -113 -49v-557q49 -49 113 -49zM371 520.5q0 -149.5 57 -238.5t156 -89q63 0 112 49v557q-49 49 -112 49q-99 0 -156 -89t-57 -238.5zM1196 1067q121 0 215 -67.5t145.5 -191.5t51.5 -288t-51.5 -287.5
t-146.5 -191.5t-215 -68t-212 74v-426h-287v426q-92 -74 -212 -74t-215 68t-146 191.5t-51 287.5t51 288t145 191.5t215 67.5t213 -76v467h287v-467q92 76 213 76z" />
    <glyph glyph-name="uni0445" unicode="&#x445;" horiz-adv-x="1040" 
d="M1053 0h-334l-197 352h-4l-196 -352h-334l356 535l-334 505h330l178 -305h4l178 305h330l-334 -505z" />
    <glyph glyph-name="uni0446" unicode="&#x446;" horiz-adv-x="1259" 
d="M1243 213v-541h-287v328h-817v1040h287v-827h387v827h287v-827h143z" />
    <glyph glyph-name="uni0447" unicode="&#x447;" horiz-adv-x="1142" 
d="M346 719q0 -166 189 -166q95 0 182 29v458h287v-1040h-287v377q-131 -37 -299 -37t-263.5 83t-95.5 236v381h287v-321z" />
    <glyph glyph-name="uni0448" unicode="&#x448;" horiz-adv-x="1748" 
d="M139 0v1040h287v-827h305v827h287v-827h305v827h287v-1040h-1471z" />
    <glyph glyph-name="uni0449" unicode="&#x449;" horiz-adv-x="1769" 
d="M1753 213v-541h-287v328h-1327v1040h287v-827h305v827h287v-827h305v827h287v-827h143z" />
    <glyph glyph-name="uni044A" unicode="&#x44a;" horiz-adv-x="1280" 
d="M567 207h191q172 0 172 145.5t-172 145.5h-191v-291zM797 705q205 0 312.5 -91.5t107.5 -262.5t-108 -261t-312 -90h-516v827h-269v213h555v-335h230z" />
    <glyph glyph-name="uni044B" unicode="&#x44b;" horiz-adv-x="1642" 
d="M426 207h190q172 0 172 145.5t-172 145.5h-190v-291zM655 705q205 0 312.5 -91.5t107.5 -262.5t-107.5 -261t-312.5 -90h-516v1040h287v-335h229zM1217 0v1040h286v-1040h-286z" />
    <glyph glyph-name="uni044C" unicode="&#x44c;" horiz-adv-x="1138" 
d="M426 207h190q172 0 172 145.5t-172 145.5h-190v-291zM655 705q205 0 312.5 -91.5t107.5 -262.5t-107.5 -261t-312.5 -90h-516v1040h287v-335h229z" />
    <glyph glyph-name="uni044D" unicode="&#x44d;" horiz-adv-x="1150" 
d="M1079 520q0 -166 -64.5 -291t-183 -193.5t-276.5 -68.5q-209 0 -342 117t-150 311h293q6 -98 60.5 -156.5t142.5 -58.5t147.5 65.5t75.5 182.5h-344v205h340q-18 106 -76.5 166.5t-144.5 60.5t-140.5 -52t-62.5 -142h-291q12 119 76 211t171.5 144t255 52t266 -68.5
t183 -193.5t64.5 -291z" />
    <glyph glyph-name="uni044E" unicode="&#x44e;" horiz-adv-x="1732" 
d="M1360 520.5q0 151.5 -62.5 241.5t-169 90t-169 -90t-62.5 -241.5t62.5 -242t169 -90.5t169 90.5t62.5 242zM1661 520q0 -168 -65.5 -293t-185.5 -192.5t-282 -67.5q-217 0 -356 119t-168 328h-178v-414h-287v1040h287v-413h178q29 209 168 327.5t356 118.5
q162 0 282 -67.5t185.5 -192.5t65.5 -293z" />
    <glyph glyph-name="uni044F" unicode="&#x44f;" horiz-adv-x="1153" 
d="M563 829q-211 0 -211 -143t199 -143h186v286h-174zM1014 0h-277v340h-237l-185 -340h-299l234 393q-172 86 -172 303q0 168 112.5 256t337.5 88h486v-1040z" />
    <glyph glyph-name="uni0450" unicode="&#x450;" horiz-adv-x="1173" 
d="M588 870q-90 0 -150.5 -57t-77.5 -172h455q-12 113 -74.5 171t-152.5 58zM575.5 -33q-147.5 0 -264 71t-178 197.5t-61.5 287.5t61.5 284t178 194.5t285.5 71.5t296 -93t176 -253q33 -104 33 -266h-748q6 -152 70.5 -221.5t157 -69.5t147.5 40t66 105h292
q-20 -96 -86.5 -176t-172 -126t-253 -46zM760 1159h-225l-287 299h354z" />
    <glyph glyph-name="uni0451" unicode="&#x451;" horiz-adv-x="1173" 
d="M588 870q-90 0 -150.5 -57t-77.5 -172h455q-12 113 -74.5 171t-152.5 58zM575.5 -33q-147.5 0 -264 71t-178 197.5t-61.5 287.5t61.5 284t178 194.5t285.5 71.5t296 -93t176 -253q33 -104 33 -266h-748q6 -152 70.5 -221.5t157 -69.5t147.5 40t66 105h292
q-20 -96 -86.5 -176t-172 -126t-253 -46zM682 1212v246h252v-246h-252zM238 1212v246h251v-246h-251z" />
    <glyph glyph-name="uni0452" unicode="&#x452;" 
d="M715 954q180 0 282.5 -109.5t102.5 -316.5v-551q0 -188 -95.5 -277t-259.5 -89q-76 0 -141 16v207q25 -6 55 -6q80 0 117 42t37 150v480q0 115 -48 172t-137 57t-145.5 -72.5t-56.5 -210.5v-446h-287v1114h-151v180h151v164h287v-164h434v-180h-434v-299h4
q105 139 285 139z" />
    <glyph glyph-name="uni0453" unicode="&#x453;" horiz-adv-x="903" 
d="M426 827v-827h-287v1040h744v-213h-457zM338 1159l158 299h354l-287 -299h-225z" />
    <glyph glyph-name="uni0454" unicode="&#x454;" horiz-adv-x="1150" 
d="M596 -33q-158 0 -276.5 68.5t-183 193.5t-64.5 291t64.5 291t183 193.5t266 68.5t255 -52t171 -144.5t75.5 -210.5h-290q-8 90 -62.5 142t-140.5 52t-144.5 -60.5t-76.5 -166.5h340v-205h-344q16 -117 75.5 -182.5t147.5 -65.5t142 58.5t61 156.5h292
q-16 -195 -149 -311.5t-342 -116.5z" />
    <glyph glyph-name="uni0455" unicode="&#x455;" horiz-adv-x="1073" 
d="M963 721h-275q0 152 -164 151q-68 0 -104.5 -25.5t-36.5 -66.5t22.5 -62.5t65.5 -35.5t154.5 -44t187.5 -60.5t130 -98t54 -186.5q0 -147 -123.5 -236.5t-339.5 -89.5t-339 93.5t-123 277.5h290q0 -78 47.5 -121t128.5 -43q158 0 158 100q0 78 -93 110q-44 15 -156.5 45
t-181 57.5t-119 91t-50.5 166t54.5 175t151.5 113.5t224 41q207 0 322 -90t115 -262z" />
    <glyph glyph-name="uni0456" unicode="&#x456;" horiz-adv-x="565" 
d="M139 0v1040h287v-1040h-287zM139 1212v246h287v-246h-287z" />
    <glyph glyph-name="uni0457" unicode="&#x457;" horiz-adv-x="565" 
d="M139 0v1040h287v-1040h-287zM334 1212v246h252v-246h-252zM-20 1212v246h251v-246h-251z" />
    <glyph glyph-name="uni0458" unicode="&#x458;" horiz-adv-x="569" 
d="M76 -389q-76 0 -142 16v207q25 -6 56 -6q80 0 116.5 42t36.5 150v1020h287v-1063q0 -188 -95 -277t-259 -89zM143 1212v246h287v-246h-287z" />
    <glyph glyph-name="uni0459" unicode="&#x459;" horiz-adv-x="1748" 
d="M1036 207h191q172 0 172 145.5t-172 145.5h-191v-291zM1266 705q205 0 312.5 -91.5t107.5 -262.5t-108 -261t-312 -90h-516v827h-244q-8 -348 -52 -529t-124 -245.5t-215 -64.5q-55 0 -103 12v203q20 -4 39 -4q68 0 122 91.5t67 749.5h796v-335h230z" />
    <glyph glyph-name="uni045A" unicode="&#x45a;" horiz-adv-x="1828" 
d="M1116 207h191q172 0 172 145.5t-172 145.5h-191v-291zM1346 705q205 0 312 -91.5t107 -262.5t-107.5 -261t-311.5 -90h-517v422h-403v-422h-287v1040h287v-405h403v405h287v-335h230z" />
    <glyph glyph-name="uni045B" unicode="&#x45b;" 
d="M715 954q180 0 282.5 -109.5t102.5 -316.5v-528h-287v500q0 115 -48 172t-137 57t-145.5 -72.5t-56.5 -210.5v-446h-287v1114h-151v180h151v164h287v-164h434v-180h-434v-299h4q105 139 285 139z" />
    <glyph glyph-name="uni045C" unicode="&#x45c;" horiz-adv-x="1146" 
d="M426 487v-487h-287v1040h287v-419h4l336 419h324l-396 -479l439 -561h-355l-348 487h-4zM422 1159l158 299h354l-287 -299h-225z" />
    <glyph glyph-name="uni045D" unicode="&#x45d;" horiz-adv-x="1372" 
d="M946 0v387q0 190 17 408h-5q-76 -199 -178 -385l-223 -410h-418v1040h287v-389q0 -188 -16 -405h4q76 199 178 385l223 409h418v-1040h-287zM862 1159h-225l-287 299h355z" />
    <glyph glyph-name="uni045E" unicode="&#x45e;" horiz-adv-x="1032" 
d="M204.5 -391q-106.5 0 -175.5 16v230q45 -16 120.5 -16.5t128 45.5t52.5 108.5t-49 202.5l-295 845h307l106 -348q66 -219 115 -436h4q61 252 121 436l113 348h295l-373 -1046q-53 -148 -117.5 -230.5t-155 -118.5t-197 -36zM516 1149q-160 0 -255 81t-103 228h194
q4 -61 48 -96t116 -35t116 35t48 96h194q-8 -147 -103 -228t-255 -81z" />
    <glyph glyph-name="uni045F" unicode="&#x45f;" horiz-adv-x="1239" 
d="M758 0v-328h-287v328h-332v1040h287v-827h387v827h287v-1040h-342z" />
    <glyph glyph-name="uni0490" unicode="&#x490;" horiz-adv-x="1040" 
d="M469 1200v-1200h-301v1458h565v283h287v-541h-551z" />
    <glyph glyph-name="uni0491" unicode="&#x491;" horiz-adv-x="903" 
d="M426 827v-827h-287v1040h477v328h267v-541h-457z" />
    <glyph glyph-name="uni0492" unicode="&#x492;" horiz-adv-x="1040" 
d="M469 774h297v-217h-297v-557h-301v557h-131v217h131v684h852v-258h-551v-426z" />
    <glyph glyph-name="uni0493" unicode="&#x493;" horiz-adv-x="913" 
d="M436 569h258v-196h-258v-373h-286v373h-123v196h123v471h743v-213h-457v-258z" />
    <glyph glyph-name="uni0496" unicode="&#x496;" horiz-adv-x="1880" 
d="M1872 -328h-287v328h-69l-424 729h-5v-729h-294v729h-5l-423 -729h-357l502 766l-451 692h347l382 -682h5v682h294v-682h5l383 682h346l-451 -692l332 -508h170v-586z" />
    <glyph glyph-name="uni0497" unicode="&#x497;" horiz-adv-x="1556" 
d="M1581 -328h-287v328h-57l-315 530h-4v-530h-279v530h-4l-316 -530h-344l385 561l-344 479h314l305 -462h4v462h279v-462h4l305 462h313l-344 -479l240 -348h145v-541z" />
    <glyph glyph-name="uni049A" unicode="&#x49a;" horiz-adv-x="1357" 
d="M1350 -328h-287v328h-96l-494 688h-4v-688h-301v1458h301v-641h4l477 641h353l-555 -692l399 -508h203v-586z" />
    <glyph glyph-name="uni049B" unicode="&#x49b;" horiz-adv-x="1146" 
d="M1133 -328h-287v328h-68l-348 487h-4v-487h-287v1040h287v-419h4l336 419h324l-396 -479l273 -348h166v-541z" />
    <glyph glyph-name="uni049C" unicode="&#x49c;" horiz-adv-x="1509" 
d="M778 629v-318h-225v318h-90v-629h-295v1458h295v-571h90v317h225v-317h4l322 571h346l-449 -690l500 -768h-356l-363 629h-4z" />
    <glyph glyph-name="uni049D" unicode="&#x49d;" horiz-adv-x="1265" 
d="M672 449v-244h-178v244h-76v-449h-279v1040h279v-378h76v243h178v-243h10l250 378h313l-344 -479l385 -561h-344l-266 449h-4z" />
    <glyph glyph-name="uni04A2" unicode="&#x4a2;" horiz-adv-x="1597" 
d="M1266 -328v328h-199v629h-598v-629h-301v1458h301v-571h598v571h301v-1200h184v-586h-286z" />
    <glyph glyph-name="uni04A3" unicode="&#x4a3;" horiz-adv-x="1275" 
d="M973 -328v328h-144v422h-403v-422h-287v1040h287v-405h403v405h287v-827h144v-541h-287z" />
    <glyph glyph-name="uni04AE" unicode="&#x4ae;" horiz-adv-x="1306" 
d="M803 0h-301v567l-498 891h338l139 -274q92 -182 170 -371h4q78 188 170 371l140 274h335l-497 -891v-567z" />
    <glyph glyph-name="uni04AF" unicode="&#x4af;" horiz-adv-x="1044" 
d="M666 -379h-287v352l-393 1067h299l121 -360q59 -172 114 -401h4q55 229 115 401l121 360h299l-393 -1067v-352z" />
    <glyph glyph-name="uni04B2" unicode="&#x4b2;" horiz-adv-x="1290" 
d="M1284 -328h-287v328h-63l-287 516h-4l-287 -516h-350l457 741l-434 717h344l270 -504h4l271 504h344l-435 -717l297 -483h160v-586z" />
    <glyph glyph-name="uni04B3" unicode="&#x4b3;" horiz-adv-x="1040" 
d="M1053 -328h-287v328h-47l-197 352h-4l-196 -352h-334l356 535l-334 505h330l178 -305h4l178 305h330l-334 -505l215 -322h142v-541z" />
    <glyph glyph-name="uni04B8" unicode="&#x4b8;" horiz-adv-x="1390" 
d="M1223 0h-301v551q-63 -18 -154 -31v-274h-246v260q-221 10 -337.5 126t-116.5 322v504h301v-444q0 -182 153 -232v381h246v-391q82 8 154 29v657h301v-1458z" />
    <glyph glyph-name="uni04B9" unicode="&#x4b9;" horiz-adv-x="1142" 
d="M1004 0h-287v377q-59 -16 -96 -21v-194h-179v178h-14q-178 0 -273.5 83t-95.5 236v381h287v-321q0 -127 96 -156v299h179v-303q53 10 96 23v458h287v-1040z" />
    <glyph glyph-name="uni04BA" unicode="&#x4ba;" horiz-adv-x="1390" 
d="M739 694q-142 0 -270 -37v-657h-301v1458h301v-551q171 45 356 45q242 0 370 -115.5t128 -332.5v-504h-301v444q0 121 -70.5 185.5t-212.5 64.5z" />
    <glyph glyph-name="uni04BB" unicode="&#x4bb;" 
d="M715 1065q180 0 282.5 -109.5t102.5 -316.5v-639h-287v610q0 115 -48 172.5t-137 57.5t-145.5 -73t-56.5 -210v-557h-287v1458h287v-532h4q105 139 285 139z" />
    <glyph glyph-name="uni04C0" unicode="&#x4c0;" horiz-adv-x="636" 
d="M168 0v1458h301v-1458h-301z" />
    <glyph glyph-name="uni04CF" unicode="&#x4cf;" horiz-adv-x="565" 
d="M139 0v1458h287v-1458h-287z" />
    <glyph glyph-name="uni04D8" unicode="&#x4d8;" horiz-adv-x="1564" 
d="M778 234q154 0 257 90t130 258h-774q25 -170 129 -259t258 -89zM1489 738q0 -224 -86 -398t-249 -273t-378 -99t-373 92q-159 92 -243 264t-84 403q0 68 6 104h1094q-12 203 -128 301t-270 99q-154 -1 -237 -61q-84 -60 -105 -156h-321q67 288 330 412q136 65 338 65
t367 -93t252 -265q87 -171 87 -395z" />
    <glyph glyph-name="uni04D9" unicode="&#x4d9;" horiz-adv-x="1173" 
d="M584 170q92 0 152 60t77 180h-455q12 -120 74 -180q60 -60 152 -60zM586 -33q-156 0 -273 68q-117 69 -179 193t-62 292q0 37 4 70h743q-6 145 -73 213q-67 67 -157 67q-91 0 -139 -38t-59 -97h-293q33 145 159 241t304 98q178 0 297 -70t181 -195q63 -125 63 -286
t-62 -285t-179 -198q-119 -73 -275 -73z" />
    <glyph glyph-name="uni04E8" unicode="&#x4e8;" horiz-adv-x="1531" 
d="M767 217q159 0 260 101.5t130 281.5h-780q29 -180 130 -281.5t260 -101.5zM767 1241q-159 0 -260 -101.5t-130 -281.5h780q-29 180 -130 281.5t-260 101.5zM1456 729.5q0 -235.5 -83 -406.5t-238.5 -263.5t-368.5 -92.5t-368.5 92.5t-238.5 263.5t-83 406.5t83 406.5
t238.5 263t368.5 92t368.5 -92t238.5 -263t83 -406.5z" />
    <glyph glyph-name="uni04E9" unicode="&#x4e9;" horiz-adv-x="1208" 
d="M603 176q95 0 158.5 66.5t82.5 185.5h-482q18 -119 82 -185.5t159 -66.5zM603 864q-95 0 -158.5 -67.5t-82.5 -184.5h482q-18 117 -82 184.5t-159 67.5zM1137 520q0 -168 -65.5 -293t-185.5 -192.5t-282 -67.5t-281.5 67.5t-185 192.5t-65.5 293t65.5 293t185 192.5
t281.5 67.5t282 -67.5t185.5 -192.5t65.5 -293z" />
    <glyph glyph-name="Wgrave" unicode="&#x1e80;" horiz-adv-x="1957" 
d="M1243 0l-135 578q-76 322 -127 624h-4q-51 -303 -127 -624l-135 -578h-391l-306 1458h295l105 -530q66 -332 106 -631h4q55 309 134 631l126 530h381l127 -530q78 -322 134 -631h4q41 299 106 631l105 530h294l-305 -1458h-391zM1149 1556h-225l-287 299h354z" />
    <glyph glyph-name="wgrave" unicode="&#x1e81;" horiz-adv-x="1658" 
d="M1010 0l-92 410q-47 213 -87 444h-4q-39 -231 -86 -444l-92 -410h-409l-230 1040h285l78 -401q49 -252 76 -453h4q37 229 88 449l92 405h393l92 -405q51 -219 88 -449h4q27 201 76 453l78 401h285l-230 -1040h-409zM1004 1159h-226l-286 299h354z" />
    <glyph glyph-name="Wacute" unicode="&#x1e82;" horiz-adv-x="1957" 
d="M1243 0l-135 578q-76 322 -127 624h-4q-51 -303 -127 -624l-135 -578h-391l-306 1458h295l105 -530q66 -332 106 -631h4q55 309 134 631l126 530h381l127 -530q78 -322 134 -631h4q41 299 106 631l105 530h294l-305 -1458h-391zM801 1556l157 299h355l-287 -299h-225z
" />
    <glyph glyph-name="wacute" unicode="&#x1e83;" horiz-adv-x="1658" 
d="M1010 0l-92 410q-47 213 -87 444h-4q-39 -231 -86 -444l-92 -410h-409l-230 1040h285l78 -401q49 -252 76 -453h4q37 229 88 449l92 405h393l92 -405q51 -219 88 -449h4q27 201 76 453l78 401h285l-230 -1040h-409zM655 1159l158 299h354l-286 -299h-226z" />
    <glyph glyph-name="Wdieresis" unicode="&#x1e84;" horiz-adv-x="1957" 
d="M1243 0l-135 578q-76 322 -127 624h-4q-51 -303 -127 -624l-135 -578h-391l-306 1458h295l105 -530q66 -332 106 -631h4q55 309 134 631l126 530h381l127 -530q78 -322 134 -631h4q41 299 106 631l105 530h294l-305 -1458h-391zM1071 1575v246h252v-246h-252zM627 1575
v246h252v-246h-252z" />
    <glyph glyph-name="wdieresis" unicode="&#x1e85;" horiz-adv-x="1658" 
d="M1010 0l-92 410q-47 213 -87 444h-4q-39 -231 -86 -444l-92 -410h-409l-230 1040h285l78 -401q49 -252 76 -453h4q37 229 88 449l92 405h393l92 -405q51 -219 88 -449h4q27 201 76 453l78 401h285l-230 -1040h-409zM926 1212v246h252v-246h-252zM481 1212v246h252v-246
h-252z" />
    <glyph glyph-name="Germandbls" unicode="&#x1e9e;" horiz-adv-x="1640" 
d="M1563 399q0 -205 -136.5 -316.5t-370.5 -111.5t-357.5 106.5t-123.5 315.5h289q0 -176 189 -176q92 0 143 48t51 138q0 129 -105.5 195t-314.5 80v205l248 272q-99 86 -268 86q-170 0 -264 -100.5t-94 -296.5v-844h-302v838q0 319 178.5 484t516.5 165q190 0 349 -76
t261 -205l-305 -334q416 -105 416 -473z" />
    <glyph glyph-name="Ygrave" unicode="&#x1ef2;" horiz-adv-x="1306" 
d="M803 0h-301v567l-498 891h338l139 -274q92 -182 170 -371h4q78 188 170 371l140 274h335l-497 -891v-567zM827 1556h-225l-287 299h355z" />
    <glyph glyph-name="ygrave" unicode="&#x1ef3;" horiz-adv-x="1032" 
d="M204.5 -391q-106.5 0 -175.5 16v230q45 -16 120.5 -16.5t128 45.5t52.5 108.5t-49 202.5l-295 845h307l106 -348q66 -219 115 -436h4q61 252 121 436l113 348h295l-373 -1046q-53 -148 -117.5 -230.5t-155 -118.5t-197 -36zM690 1159h-225l-287 299h354z" />
    <glyph glyph-name="uni2010" unicode="&#x2010;" horiz-adv-x="655" 
d="M61 485v226h533v-226h-533z" />
    <glyph glyph-name="endash" unicode="&#x2013;" horiz-adv-x="1024" 
d="M41 485v226h942v-226h-942z" />
    <glyph glyph-name="emdash" unicode="&#x2014;" horiz-adv-x="2048" 
d="M41 485v226h1966v-226h-1966z" />
    <glyph glyph-name="uni2015" unicode="&#x2015;" horiz-adv-x="2048" 
d="M41 485v226h1966v-226h-1966z" />
    <glyph glyph-name="underscoredbl" unicode="&#x2017;" horiz-adv-x="1024" 
d="M0 -545v146h1024v-146h-1024zM0 -248v146h1024v-146h-1024z" />
    <glyph glyph-name="quoteleft" unicode="&#x2018;" horiz-adv-x="520" 
d="M395 1159v-291h-268v291l129 299h145l-96 -299h90z" />
    <glyph glyph-name="quoteright" unicode="&#x2019;" horiz-adv-x="520" 
d="M125 1167v291h268v-291l-129 -299h-145l96 299h-90z" />
    <glyph glyph-name="quotesinglbase" unicode="&#x201a;" horiz-adv-x="520" 
d="M125 0v291h268v-291l-129 -299h-145l96 299h-90z" />
    <glyph glyph-name="quotereversed" unicode="&#x201b;" horiz-adv-x="520" 
d="M395 1167h-90l96 -299h-145l-129 299v291h268v-291z" />
    <glyph glyph-name="quotedblleft" unicode="&#x201c;" horiz-adv-x="892" 
d="M768 1159v-291h-268v291l129 299h145l-96 -299h90zM395 1159v-291h-268v291l129 299h145l-96 -299h90z" />
    <glyph glyph-name="quotedblright" unicode="&#x201d;" horiz-adv-x="892" 
d="M125 1167v291h268v-291l-129 -299h-145l96 299h-90zM498 1167v291h268v-291l-129 -299h-145l96 299h-90z" />
    <glyph glyph-name="quotedblbase" unicode="&#x201e;" horiz-adv-x="892" 
d="M125 0v291h268v-291l-129 -299h-145l96 299h-90zM498 0v291h268v-291l-129 -299h-145l96 299h-90z" />
    <glyph glyph-name="dagger" unicode="&#x2020;" horiz-adv-x="1155" 
d="M1044 1098v-228h-323v-1116h-287v1116h-323v228h323v360h287v-360h323z" />
    <glyph glyph-name="daggerdbl" unicode="&#x2021;" horiz-adv-x="1155" 
d="M1044 1098v-228h-323v-528h323v-227h-323v-361h-287v361h-323v227h323v528h-323v228h323v360h287v-360h323z" />
    <glyph glyph-name="bullet" unicode="&#x2022;" horiz-adv-x="737" 
d="M82 729q0 78 39 144.5t104.5 104.5t143 38t144.5 -38t104.5 -104.5t37.5 -144.5t-37.5 -143.5t-104.5 -104.5t-144.5 -39t-143 39t-104.5 104.5t-39 143.5z" />
    <glyph glyph-name="ellipsis" unicode="&#x2026;" horiz-adv-x="1839" 
d="M106 0v342h316v-342h-316zM762 0v342h315v-342h-315zM1417 0v342h316v-342h-316z" />
    <glyph glyph-name="perthousand" unicode="&#x2030;" horiz-adv-x="2234" 
d="M1772 317.5q0 -94.5 26.5 -145.5t75.5 -51t75.5 51t26.5 145.5t-26.5 145.5t-75.5 51t-75.5 -51t-26.5 -145.5zM1057 317.5q0 -94.5 26.5 -145.5t75.5 -51t76 51t27 145.5t-27 145.5t-76 51t-75.5 -51t-26.5 -145.5zM2173 317.5q0 -167.5 -78 -259t-221 -91.5t-221 91.5
t-78 259t78 259t221 91.5t221 -91.5t78 -259zM1458 317.5q0 -167.5 -77.5 -259t-221 -91.5t-221.5 91.5t-78 259t78 259t221.5 91.5t221 -91.5t77.5 -259zM258 1063q0 -94 26.5 -145.5t76 -51.5t76 51.5t26.5 145.5t-26.5 145.5t-76 51.5t-76 -51.5t-26.5 -145.5zM659 1063
q0 -168 -77.5 -259t-221 -91t-221.5 91t-78 259t78 259t221.5 91t221 -91t77.5 -259zM244 -61l860 1503h172l-860 -1503h-172z" />
    <glyph glyph-name="minute" unicode="&#x2032;" horiz-adv-x="440" 
d="M61 899l62 481h256l-137 -481h-181z" />
    <glyph glyph-name="second" unicode="&#x2033;" horiz-adv-x="817" 
d="M438 899l62 481h256l-138 -481h-180zM61 899l62 481h256l-137 -481h-181z" />
    <glyph glyph-name="guilsinglleft" unicode="&#x2039;" horiz-adv-x="663" 
d="M573 111h-249l-234 409l234 410h249l-221 -410z" />
    <glyph glyph-name="guilsinglright" unicode="&#x203a;" horiz-adv-x="663" 
d="M573 520l-233 -409h-250l221 409l-221 410h250z" />
    <glyph glyph-name="exclamdbl" unicode="&#x203c;" horiz-adv-x="1175" 
d="M686 0v270h315v-270h-315zM733 406l-63 1052h348l-64 -1052h-221zM174 0v270h315v-270h-315zM221 406l-63 1052h348l-64 -1052h-221z" />
    <glyph glyph-name="interrobang" unicode="&#x203d;" horiz-adv-x="1120" 
d="M694 270v-270h-315v270h315zM1044 962q0 -138 -46 -216t-160 -153t-145 -112t-31 -100h-244q-2 19 -2 73t15 102t55 89t124 102.5t109.5 100t25.5 104.5t-46 107t-139 41q-190 0 -200 -189h-299q4 172 90.5 278.5t245.5 141.5l-6 127h332l-8 -125q157 -33 243 -133
t86 -238z" />
    <glyph glyph-name="overline" unicode="&#x203e;" horiz-adv-x="1024" 
d="M0 1593v187h1024v-187h-1024z" />
    <glyph glyph-name="fraction" unicode="&#x2044;" horiz-adv-x="303" 
d="M-319 0l755 1380h187l-756 -1380h-186z" />
    <glyph glyph-name="zero.superior" unicode="&#x2070;" horiz-adv-x="960" 
d="M322 1159.5q0 -149.5 40.5 -231.5t117.5 -82t117 82t40 231.5t-40 230t-117 80.5t-117.5 -80.5t-40.5 -230zM897 1158q0 -243 -108.5 -374t-309.5 -131t-308.5 131t-107.5 374t108.5 375t308.5 132t308.5 -132t108.5 -375z" />
    <glyph glyph-name="four.superior" unicode="&#x2074;" horiz-adv-x="919" 
d="M502 1063v106q0 131 10 295h-2q-76 -129 -172 -266l-94 -135h258zM741 874v-198h-247v198h-471v199l389 569h329v-579h156v-189h-156z" />
    <glyph glyph-name="five.superior" unicode="&#x2075;" horiz-adv-x="925" 
d="M536 1323q133 0 226.5 -89.5t93.5 -239.5t-109.5 -245.5t-287.5 -95.5t-283.5 80t-105.5 219h254q2 -51 38.5 -79.5t99.5 -28.5t99.5 38t36.5 108t-38 109.5t-95 39.5q-107 0 -135 -92l-248 14l55 581h662v-202h-459l-18 -189h4q77 72 210 72z" />
    <glyph glyph-name="six.superior" unicode="&#x2076;" horiz-adv-x="917" 
d="M338 986q0 -64 37 -102t96 -38t96 38t37 101.5t-36 102t-96 38.5t-97 -38t-37 -102zM477 1477q-164 0 -172 -265h4q85 92 227 92t233 -85.5t91 -223.5q0 -100 -49 -178t-138 -121t-204 -43q-195 0 -300.5 123t-105.5 367t113 383t313 139q158 0 253.5 -78t105.5 -219
h-256q-12 109 -115 109z" />
    <glyph glyph-name="seven.superior" unicode="&#x2077;" horiz-adv-x="819" 
d="M23 1432v210h774v-202q-111 -152 -193 -351.5t-121 -412.5h-274q49 225 142 427t198 329h-526z" />
    <glyph glyph-name="eight.superior" unicode="&#x2078;" horiz-adv-x="923" 
d="M315 960.5q0 -53.5 40 -85t107 -31.5t105.5 31.5t38.5 85t-39 85t-105 31.5t-106.5 -31.5t-40.5 -85zM324 1370q0 -49 36.5 -78.5t100 -29.5t100.5 29.5t37 78.5t-37 78t-100.5 29t-100 -29t-36.5 -78zM838 1395q0 -78 -49.5 -135.5t-133.5 -79.5v-4q92 -20 148.5 -84
t56.5 -154q0 -133 -107.5 -209t-292 -76t-291 76t-106.5 209q0 90 55.5 153.5t147.5 84.5v4q-84 23 -133 80t-49 135q0 123 104.5 196.5t272.5 73.5t272.5 -73.5t104.5 -196.5z" />
    <glyph glyph-name="nine.superior" unicode="&#x2079;" horiz-adv-x="917" 
d="M580 1334q0 62 -37 100.5t-96.5 38.5t-96.5 -38t-37 -101.5t36.5 -102.5t96.5 -39t97 40t37 102zM383 1014q-143 0 -234.5 86t-91.5 223q0 100 49.5 178t138.5 121t204 43q195 0 300 -122.5t105 -366.5t-112.5 -383.5t-313.5 -139.5q-158 0 -253 78t-105 219h256
q12 -109 114 -108q164 0 172 264h-4q-82 -92 -225 -92z" />
    <glyph glyph-name="plussuperior" unicode="&#x207a;" horiz-adv-x="845" 
d="M754 1225v-191h-234v-227h-194v227h-234v191h234v227h194v-227h234z" />
    <glyph glyph-name="uni207B" unicode="&#x207b;" horiz-adv-x="845" 
d="M92 1034v191h662v-191h-662z" />
    <glyph glyph-name="equalsuperior" unicode="&#x207c;" horiz-adv-x="845" 
d="M92 891v182h662v-182h-662zM92 1186v182h662v-182h-662z" />
    <glyph glyph-name="parenleftsuperior" unicode="&#x207d;" horiz-adv-x="514" 
d="M322 1181q0 -245 34.5 -395.5t114.5 -320.5h-199q-111 154 -162 306.5t-51 330.5t51.5 331.5t161.5 305.5h199q-149 -313 -149 -558z" />
    <glyph glyph-name="parenrightsuperior" unicode="&#x207e;" horiz-adv-x="514" 
d="M193 1024q0 244 -35 394.5t-115 320.5h199q111 -154 162 -306.5t51 -414t-213 -553.5h-199q150 315 150 559z" />
    <glyph glyph-name="zero.inferior" unicode="&#x2080;" horiz-adv-x="960" 
d="M480 -182q77 0 117 82t40 232t-40 230t-117 80t-118 -81q-40 -81 -40 -231t40 -230q40 -82 118 -82zM897 130q0 -243 -109 -374q-110 -131 -310 -131t-308 131t-107 374q0 243 108 375t308 132t309 -132t109 -375z" />
    <glyph glyph-name="one.inferior" unicode="&#x2081;" horiz-adv-x="667" 
d="M283 -352v616h-263v182q137 0 205 39t84 129h228v-966h-254z" />
    <glyph glyph-name="two.inferior" unicode="&#x2082;" horiz-adv-x="937" 
d="M870 -150v-202h-796q-2 14 -2 47q0 154 61 253q61 100 205 174t194 118q52 44 52 97q0 52 -30 79t-83 26q-129 0 -133 -141h-254q2 162 104 249t278 87t277 -80q103 -80 103 -203q0 -122 -66 -194t-194 -134t-169 -98q-42 -36 -46 -78h499z" />
    <glyph glyph-name="three.inferior" unicode="&#x2083;" horiz-adv-x="925" 
d="M315 -31q0 -149 154 -149q59 0 96 28t37 76q0 115 -178 115h-29v188h33q76 0 120 30t44 79t-35 78t-94 28q-137 0 -137 -143h-252q0 160 103 249t283 89t282 -74q101 -74 102 -201q0 -80 -42 -130t-132 -82v-5q96 -31 141 -86t45 -143q0 -133 -105 -212t-293 -79t-293 88
t-106 256h256z" />
    <glyph glyph-name="four.inferior" unicode="&#x2084;" horiz-adv-x="919" 
d="M500 35v106q0 131 10 295h-2q-76 -129 -172 -266l-94 -135h258zM739 -154v-198h-247v198h-472v199l390 569h329v-579h156v-189h-156z" />
    <glyph glyph-name="five.inferior" unicode="&#x2085;" horiz-adv-x="925" 
d="M856 -34q0 -151 -110 -246t-288 -95t-283 80t-105 219h254q2 -51 38 -80q36 -28 100 -28t100 38t36 108t-38 110q-38 39 -95 39q-108 0 -135 -93l-248 15l55 581h662v-202h-459l-18 -189h4q74 70 208 71t228 -88t94 -240z" />
    <glyph glyph-name="six.inferior" unicode="&#x2086;" horiz-adv-x="917" 
d="M338 -43q0 -63 37 -101t96 -38t96 38t37 101t-36 102t-96 39t-97 -39t-37 -102zM477 449q-164 0 -172 -265h4q85 92 227 92t233 -86t91 -223q0 -100 -49 -178t-138 -121t-204 -43q-195 0 -300 123t-105 367t112 383q113 139 313 139q158 0 253 -78t106 -219h-256
q-12 109 -115 109z" />
    <glyph glyph-name="seven.inferior" unicode="&#x2087;" horiz-adv-x="819" 
d="M20 403v211h775v-202q-111 -152 -193 -352t-121 -412h-274q49 225 142 427t198 328h-527z" />
    <glyph glyph-name="eight.inferior" unicode="&#x2088;" horiz-adv-x="923" 
d="M315 -68q0 -53 40 -85q40 -31 107 -31q68 0 106 32t38 84q0 53 -39 85t-105 32t-107 -32q-40 -32 -40 -85zM460 233q64 0 101 30t37 79t-37 78t-101 29t-100 -29t-36 -78t36 -79t100 -30zM860 -90q0 -133 -108 -209t-291 -76q-184 0 -291 76q-106 76 -107 209
q-1 90 55 153t148 84v5q-84 24 -133 80t-49 135q0 123 104 197t272 73q168 0 273 -74q104 -74 105 -196q0 -77 -50 -135t-133 -80v-5q93 -19 149 -83t56 -154z" />
    <glyph glyph-name="nine.inferior" unicode="&#x2089;" horiz-adv-x="917" 
d="M580 306q0 62 -37 100t-97 38t-96 -38q-37 -38 -37 -100q0 -64 36 -103q37 -39 97 -39t97 40t37 102zM383 -14q-143 0 -235 86q-91 86 -91 223q0 100 49 178q48 78 138 121t205 43q195 0 300 -123q105 -122 105 -366t-113 -384t-313 -139q-158 0 -253 78t-105 219h256
q12 -109 114 -108q164 0 172 264h-4q-82 -92 -225 -92z" />
    <glyph glyph-name="uni208A" unicode="&#x208a;" horiz-adv-x="845" 
d="M754 197v-191h-234v-227h-194v227h-234v191h234v227h194v-227h234z" />
    <glyph glyph-name="uni208B" unicode="&#x208b;" horiz-adv-x="845" 
d="M92 6v191h662v-191h-662z" />
    <glyph glyph-name="uni208C" unicode="&#x208c;" horiz-adv-x="845" 
d="M92 -137v182h662v-182h-662zM92 158v182h662v-182h-662z" />
    <glyph glyph-name="uni208D" unicode="&#x208d;" horiz-adv-x="514" 
d="M471 711q-151 -317 -150 -638t150 -636h-199q-112 155 -162 307t-51 330q0 345 213 637h199z" />
    <glyph glyph-name="uni208E" unicode="&#x208e;" horiz-adv-x="514" 
d="M193 71q0 321 -150 640h199q211 -293 212 -637t-212 -637h-199q150 313 150 634z" />
    <glyph glyph-name="uni2099" unicode="&#x2099;" horiz-adv-x="913" 
d="M578 68q0 137 -109 137q-59 0 -92 -46t-33 -136v-375h-246v729h230v-88h2q82 106 215 106t206 -77t72 -222v-448h-245v420z" />
    <glyph glyph-name="franc" unicode="&#x20a3;" 
d="M510 864h612v-258h-612v-188h336v-219h-336v-199h-301v199h-160v219h160v962h965v-258h-664v-258z" />
    <glyph glyph-name="lira" unicode="&#x20a4;" 
d="M233 924q0 489 484 489q213 0 333.5 -118.5t120.5 -325.5h-288q0 96 -43 147t-123 51q-182 0 -182 -243v-74h249v-143h-249v-82h249v-144h-249q-4 -94 -33 -149.5t-94 -89.5v-4h749v-238h-1108v242q88 0 134 55t50 184h-184v144h184v82h-184v143h184v74z" />
    <glyph glyph-name="peseta" unicode="&#x20a7;" horiz-adv-x="1832" 
d="M885 909q0 221 -269 221h-147v-442h147q269 0 269 221zM1573 375q-1 -160 119 -160q58 0 90 10v-219q-66 -20 -152 -20q-180 0 -262 78.5t-82 259.5v503h-100q-25 -182 -160 -285.5t-369 -103.5h-188v-438h-301v1380h489q217 0 350.5 -90t170.5 -250h108v271h287v-271
h199v-213h-199v-452z" />
    <glyph glyph-name="Euro" unicode="&#x20ac;" 
d="M680 211q94 0 154.5 58.5t76.5 160.5h289q-18 -215 -157.5 -339t-367.5 -124t-370.5 136.5t-179.5 394.5h-123l27 143h82v82h-109l27 143h92q37 264 181 405.5t376 141.5t367 -122t149 -335h-283q-16 100 -73.5 156.5t-159.5 56.5t-171 -76.5t-93 -226.5h448l-26 -143
h-435v-82h418l-26 -143h-375q51 -287 262 -287z" />
    <glyph glyph-name="uni20B9" unicode="&#x20b9;" 
d="M248 559h-33v191h96q224 0 289 139h-543l49 176h506q-45 139 -282 139h-273l49 176h1068l-50 -176h-307v-4q94 -41 123 -135h234l-50 -176h-180q-25 -104 -107.5 -172t-215.5 -92v-4q70 -27 124 -85.5t107 -166.5l180 -369h-344l-160 348q-51 113 -117.5 162t-162.5 49z
" />
    <glyph glyph-name="uni20BA" unicode="&#x20ba;" 
d="M492 -16q-143 0 -287 16v498l-178 -97v185l178 96v137l-178 -96v184l178 97v376h301v-231l340 184v-184l-340 -184v-138l340 185v-185l-340 -184v-395q182 0 279.5 104.5t97.5 306.5h311q0 -331 -182.5 -503t-519.5 -172z" />
    <glyph glyph-name="uni20BC" unicode="&#x20bc;" horiz-adv-x="1466" 
d="M598 1458h270v-190q264 -23 390 -180.5t126 -477.5v-610h-270v602q0 205 -55 298t-191 108v-1008h-270v1008q-133 -14 -189.5 -108.5t-56.5 -297.5v-602h-270v610q0 320 126 477.5t390 180.5v190z" />
    <glyph glyph-name="uni20BD" unicode="&#x20bd;" 
d="M481 752h170q225 0 226 200q0 94 -54.5 146.5t-171.5 52.5h-170v-399zM1186 951q0 -200 -126 -314.5t-366 -114.5h-213v-110h371v-217h-371v-195h-301v195h-162v217h162v110h-162v230h162v628h514q240 0 366 -114.5t126 -314.5z" />
    <glyph glyph-name="uni2105" unicode="&#x2105;" horiz-adv-x="1937" 
d="M437 1227q-56 0 -93 -53q-37 -54 -37 -148t37 -148t92 -54t88 36q33 37 35 96h256q-9 -145 -111 -231t-272 -86t-276 105q-106 104 -106 282t106 282t274 105q168 0 270 -83t115 -220h-254q-4 53 -36 85t-88 32zM481 0l756 1380h186l-755 -1380h-187zM1352 354
q0 -94 38 -148t101 -54t101 54t38 148t-37 148t-102 53q-65 0 -102 -53q-37 -54 -37 -148zM1491 741q182 0 290 -105q107 -104 107 -282t-108 -282t-289 -104q-182 0 -290 104q-107 104 -107 281t107 283q108 105 290 105z" />
    <glyph glyph-name="uni2113" unicode="&#x2113;" horiz-adv-x="921" 
d="M457 1018v-422q186 113 186 414q0 221 -100 221q-47 0 -66.5 -44t-19.5 -169zM457 344q1 -162 125 -162q60 0 110 15v-195q-80 -23 -170 -22q-180 0 -265 87t-85 271v45q-59 4 -100 12v158q45 -8 100 -12v415q0 330 103.5 393.5t213.5 63.5q145 0 234.5 -97.5
t89.5 -323.5t-94 -372.5t-262 -201.5v-74z" />
    <glyph glyph-name="uni2116" unicode="&#x2116;" horiz-adv-x="2422" 
d="M1614 182v215h719v-215h-719zM1837 885q0 -94 38 -148.5t101.5 -54.5t101.5 54.5t38 148.5t-37 147t-102.5 53t-102.5 -53t-37 -147zM2374 884q0 -177 -107.5 -281.5t-290 -104.5t-290 104.5t-107.5 281.5t107.5 282.5t290 105.5t290 -105.5t107.5 -282.5zM457 0h-289
v1458h428l283 -592q156 -330 266 -602h4q-16 338 -16 633v561h288v-1458h-428l-282 592q-156 330 -267 602h-4q16 -338 17 -633v-561z" />
    <glyph glyph-name="uni2117" unicode="&#x2117;" horiz-adv-x="1642" 
d="M866 737q176 1 176 143t-176 142h-145v-285h145zM1241 878.5q0 -141.5 -88 -222.5t-260 -81h-172v-317h-193v924h365q172 0 260 -81t88 -222.5zM195 729.5q0 -192.5 77.5 -338t220 -226.5t329 -81t328.5 81t221 226.5t79 338t-79 337.5t-221 226t-328.5 81t-329 -81
t-220 -226t-77.5 -337.5zM1559 729q0 -225 -92.5 -397t-259.5 -266.5t-386 -94.5t-386 94.5t-259 266.5t-92 397t92 397t259 266.5t386 94.5t386 -94.5t259.5 -266.5t92.5 -397z" />
    <glyph glyph-name="trademark" unicode="&#x2122;" horiz-adv-x="1697" 
d="M1430 729v334q0 133 6 264h-4l-146 -598h-233l-146 598h-4q6 -131 6 -264v-334h-184v729h311l74 -289q37 -147 57 -268h4q20 121 58 268l74 289h311v-729h-184zM430 1288v-559h-203v559h-217v170h637v-170h-217z" />
    <glyph glyph-name="Omega" unicode="&#x2126;" horiz-adv-x="1503" 
d="M1417 848q0 -178 -75 -316t-209 -274v-4h307v-254h-586v266q121 123 186 248q66 126 66 310t-96 292t-258 109q-162 0 -258 -109t-96 -293t65 -309q66 -125 186 -248v-266h-586v254h308v4q-135 135 -210 273t-75 317q0 315 181 479t485 164t484 -164q181 -164 181 -479z
" />
    <glyph glyph-name="estimated" unicode="&#x212e;" horiz-adv-x="1767" 
d="M1350 717q26 0 26 24v342q0 57 -30 84q-195 193 -464 193t-462 -193q-33 -29 -33 -84v-342q0 -24 29 -24h934zM1669 672h-1253q-12 0 -20.5 -8.5t-8.5 -18.5v-342q0 -59 33 -90q190 -186 465 -186q147 0 277 62.5t212 162.5h142q-82 -115 -242 -196t-391 -81t-410.5 92.5
t-278 254t-98.5 367.5t95.5 371t275 259t419.5 94t417.5 -100.5t271.5 -270.5t94 -370z" />
    <glyph glyph-name="oneeighth" unicode="&#x215b;" horiz-adv-x="1683" 
d="M18 1235q195 0 234 145h217v-827h-240v516h-211v166zM248 0l756 1380h186l-756 -1380h-186zM1157 246q0 -42 32 -69q32 -25 88 -25t89 26t33 68t-34 68t-88 26t-87 -26t-33 -68zM1163 594q0 -38 31 -64q31 -24 83 -24t84 24t32 63t-32 63t-84 24t-83 -24t-31 -62z
M1610 610q0 -66 -42 -114t-116 -64v-4q82 -14 130 -68t48 -131q0 -117 -94 -183t-260 -66t-259 66t-93 183q0 76 49 129t131 70v4q-74 16 -117 64t-43 114q0 106 92 172t242 66t241 -66t91 -172z" />
    <glyph glyph-name="threeeighths" unicode="&#x215c;" horiz-adv-x="1935" 
d="M383 885h-29v168h27q65 -1 103 25t38 65t-30 61t-85 23q-54 0 -85 -30t-31 -83h-228q1 135 93 211t250 76t251 -65q92 -65 93 -173q0 -67 -36 -109t-116 -71v-2q84 -27 123 -75t39 -126q0 -116 -91 -182t-259 -66t-264 76q-95 76 -95 219h234q0 -119 131 -118q51 1 83 23
t31 61q0 92 -147 92zM500 0l755 1380h187l-756 -1380h-186zM1409 246q0 -42 32 -69q32 -25 88 -25t89 26t33 68t-34 68t-88 26t-87 -26t-33 -68zM1415 594q0 -38 31 -64q31 -24 83 -24t84 24t32 63t-32 63t-84 24t-83 -24t-31 -62zM1882 229q0 -117 -94 -183t-260 -66
t-259 66t-93 183q0 76 49 129t131 70v4q-74 16 -117 64t-43 114q0 106 92 172t242 66t240 -66q91 -66 92 -172q0 -66 -42 -114t-116 -64v-4q82 -14 130 -68t48 -131z" />
    <glyph glyph-name="fiveeighths" unicode="&#x215d;" horiz-adv-x="1933" 
d="M412 944q-97 0 -113 -78l-227 15l49 499h588v-184h-402l-16 -145h4q67 57 185 57t199 -78t81 -207t-96 -210t-255 -81t-253 70t-95 191h236q2 -43 32 -67t83 -24t85 33q31 33 31 89t-31 88q-32 32 -85 32zM498 0l755 1380h187l-756 -1380h-186zM1407 246q0 -42 32 -69
q32 -25 88 -25t89 26t33 68t-34 68t-88 26t-87 -26t-33 -68zM1413 594q0 -38 31 -64q31 -24 83 -24t84 24q31 24 31 63t-32 63t-83 24q-52 0 -83 -24t-31 -62zM1880 229q0 -117 -94 -183t-260 -66t-259 66t-93 183q0 76 49 129t131 70v4q-74 16 -117 64t-43 114
q0 106 92 172t242 66t240 -66q91 -66 92 -172q0 -66 -42 -114t-116 -64v-4q82 -14 130 -68t48 -131z" />
    <glyph glyph-name="seveneighths" unicode="&#x215e;" horiz-adv-x="1736" 
d="M18 1194v186h684v-182q-194 -261 -272 -645h-250q41 188 122 358t173 283h-457zM301 0l756 1380h186l-756 -1380h-186zM1210 246q0 -42 32 -69q32 -25 88 -25t89 26t33 68t-34 68t-88 26t-87 -26t-33 -68zM1446 593q0 39 -32 63t-84 24t-83 -24t-31 -62t32 -64
q30 -24 82 -24t84 24t32 63zM1663 610q0 -66 -42 -114t-116 -64v-4q82 -14 130 -68t48 -131q0 -117 -94 -183t-260 -66t-259 66t-93 183q0 76 49 129t131 70v4q-74 16 -117 64t-43 114q1 106 93 172t242 66t240 -66q91 -66 91 -172z" />
    <glyph glyph-name="Sevenroman" unicode="&#x2166;" horiz-adv-x="2539" 
d="M465 0l-453 1458h307l175 -567q94 -299 157 -596h4q57 260 158 596l174 567h307l-452 -1458h-377zM1434 0v1458h301v-1458h-301zM2071 0v1458h301v-1458h-301z" />
    <glyph glyph-name="partialdiff" unicode="&#x2202;" horiz-adv-x="1280" 
d="M375 467q0 -127 56 -193.5t165 -66.5t174.5 81t65.5 209t-60 198.5t-166 70.5t-170.5 -86t-64.5 -213zM593 981q167 0 263 -107h4q2 14 2 48q0 98 -34.5 172.5t-94 115.5t-133.5 41q-156 0 -178 -153h-297q18 182 134 287.5t325 105.5q276 0 418.5 -182.5t142.5 -530.5
q0 -276 -73 -457.5t-200 -267.5t-288 -86q-244 0 -375 135.5t-131 358.5q0 150 60.5 267.5t174 185t280.5 67.5z" />
    <glyph glyph-name="Delta" unicode="&#x2206;" horiz-adv-x="1429" 
d="M879 711q-88 283 -164 569h-4q-66 -250 -166 -569l-146 -453h623zM6 0l510 1458h406l501 -1458h-1417z" />
    <glyph glyph-name="product" unicode="&#x220f;" horiz-adv-x="1390" 
d="M924 -246v1446h-455v-1446h-301v1704h1055v-1704h-299z" />
    <glyph glyph-name="summation" unicode="&#x2211;" horiz-adv-x="1054" 
d="M983 18v-264h-911v264l360 586l-360 592v262h911v-262h-580l355 -592l-355 -586h580z" />
    <glyph glyph-name="minus" unicode="&#x2212;" horiz-adv-x="1159" 
d="M131 537v223h897v-223h-897z" />
    <glyph glyph-name="uni2215" unicode="&#x2215;" horiz-adv-x="999" 
d="M61 -182l611 1708h223l-610 -1708h-224z" />
    <glyph glyph-name="uni2219" unicode="&#x2219;" horiz-adv-x="741" 
d="M213 455v342h315v-342h-315z" />
    <glyph glyph-name="radical" unicode="&#x221a;" horiz-adv-x="1312" 
d="M51 543v229h363l186 -778h4l418 1464h250l-488 -1704h-378l-185 789h-170z" />
    <glyph glyph-name="infinity" unicode="&#x221e;" horiz-adv-x="1380" 
d="M1135 630.5q0 63.5 -35 101.5t-94 38t-105.5 -36t-95.5 -103q49 -68 95 -103.5t106 -35.5t94.5 37.5t34.5 101zM375 770q-59 0 -94 -38t-35 -101.5t34 -101t94 -37.5t105 35.5t94 103.5q-49 68 -94 103.5t-104 35.5zM1350 630.5q0 -157.5 -88 -252.5t-216 -95t-208 50
t-148 136q-70 -88 -148.5 -137t-206.5 -49t-216 95t-88 252.5t88 253t216 95.5t207 -49t148 -137q68 86 148 136t190 50q146 0 234 -95.5t88 -253z" />
    <glyph glyph-name="integral" unicode="&#x222b;" horiz-adv-x="720" 
d="M219 1135q0 340 344 340q72 -1 142 -17v-203q-18 7 -74 7t-92.5 -38t-36.5 -124v-1155q0 -340 -344 -340q-72 0 -142 16v203q18 -6 52 -6q78 0 114.5 38t36.5 124v1155z" />
    <glyph glyph-name="approxequal" unicode="&#x2248;" horiz-adv-x="1159" 
d="M763 461q42 0 69.5 34.5t27.5 96.5h176q0 -154 -74.5 -247t-199.5 -93q-59 0 -107.5 23.5t-102.5 62.5t-85 55.5t-71 16.5t-68.5 -36t-28.5 -95h-176q0 154 74.5 246.5t199.5 92.5q60 0 107 -23.5t100 -61.5t85 -55t74 -17zM762 889q41 0 69.5 36t28.5 95h176
q0 -154 -74.5 -247t-199.5 -93q-59 0 -107.5 23.5t-102.5 62.5t-85 55.5t-71 16.5t-68.5 -35t-28.5 -96h-176q0 154 74.5 247t199.5 93q60 0 107 -24t100 -62t85 -55t73 -17z" />
    <glyph glyph-name="notequal" unicode="&#x2260;" horiz-adv-x="1159" 
d="M1028 565v-223h-522l-137 -240h-201l137 240h-174v223h299l96 166h-395v223h520l137 240h203l-137 -240h174v-223h-301l-94 -166h395z" />
    <glyph glyph-name="lessequal" unicode="&#x2264;" horiz-adv-x="1159" 
d="M1028 0h-897v215h897v-215zM395 707v-5l633 -213v-225l-897 303v275l897 303v-225z" />
    <glyph glyph-name="greaterequal" unicode="&#x2265;" horiz-adv-x="1159" 
d="M131 0v215h897v-215h-897zM1028 567l-897 -303v225l633 213v5l-633 213v225l897 -303v-275z" />
    <glyph glyph-name="lozenge" unicode="&#x25ca;" horiz-adv-x="1318" 
d="M659 205l283 524l-283 524l-282 -524zM850 0h-381l-387 729l387 729h381l387 -729z" />
    <glyph glyph-name="uniF8FF" unicode="&#xf8ff;" horiz-adv-x="1314" 
d="M514 133v229h262v-229h-262zM1030 1016q0 -84 -31 -142t-115 -137q-84 -78 -109 -133q-26 -55 -25 -155h-209q-2 23 -2 99t26 138q27 61 99 135t91 108q17 34 17 83t-29 78q-29 28 -88 28q-121 -1 -125 -164h-256q2 180 104 276t278 95q178 0 276 -83t98 -226zM164 1315
v-1172q0 -69 39 -107t106 -38h697q68 0 106 39t39 106v1172q0 69 -39 107t-106 38h-697q-67 0 -106 -39t-39 -106zM1282 1315v-1172q0 -127 -75 -201t-201 -75h-697q-127 0 -201 75t-75 201v1172q0 127 75 202t201 74h697q126 1 201 -74t75 -202z" />
    <glyph glyph-name="ff" unicode="&#xfb00;" horiz-adv-x="1335" 
d="M193 1135q0 340 344 340q72 0 141 -17v-203q-18 7 -74 7t-92 -38q-37 -38 -37 -124v-60h354v95q1 170 89 255t256 85q72 0 141 -17v-203q-17 7 -73 7t-93 -38t-37 -124v-60h197v-213h-197v-827h-283v827h-354v-827h-282v827h-173v213h173v95z" />
    <glyph glyph-name="fi" unicode="&#xfb01;" horiz-adv-x="1263" 
d="M1124 1040v-1040h-286v1040h286zM1124 1212h-286v246h286v-246zM193 1135q0 340 344 340q72 0 141 -17v-203q-18 7 -74 7t-92.5 -38t-36.5 -124v-60h197v-213h-197v-827h-282v827h-173v213h173v95z" />
    <glyph glyph-name="fl" unicode="&#xfb02;" horiz-adv-x="1263" 
d="M193 1135q0 340 344 340q72 0 141 -17v-203q-18 7 -74 7t-92 -38q-37 -38 -37 -124v-60h197v-213h-197v-827h-282v827h-173v213h173v95zM838 0v1458h286v-1458h-286z" />
    <glyph glyph-name="ffi" unicode="&#xfb03;" horiz-adv-x="1900" 
d="M1761 1040v-1040h-286v1040h286zM1761 1212h-286v246h286v-246zM1174 1475q72 0 141 -17v-203q-17 7 -73 7t-93 -38t-37 -124v-60h197v-213h-197v-827h-283v827h-354v-827h-282v827h-173v213h173v95q0 340 344 340q72 0 141 -17v-203q-18 7 -74 7t-92 -38
q-37 -38 -37 -124v-60h354v95q2 340 345 340z" />
    <glyph glyph-name="ffl" unicode="&#xfb04;" horiz-adv-x="1900" 
d="M1761 0h-286v1458h286v-1458zM193 1135q0 340 344 340q72 0 141 -17v-203q-18 7 -74 7t-92.5 -38t-36.5 -124v-60h354v95q0 170 88.5 255t256.5 85q72 0 141 -17v-203q-17 7 -73 7t-93 -38t-37 -124v-60h197v-213h-197v-827h-283v827h-354v-827h-282v827h-173v213h173v95
z" />
    <glyph glyph-name="uniFEFF" unicode="&#xfeff;" horiz-adv-x="0" 
 />
    <glyph glyph-name="J.acute.loclNLD" horiz-adv-x="802" 
d="M164 -14q-78 0 -133 16v256q55 -10 114.5 -10t105.5 24q93 48 93 256v930h301v-993q0 -248 -115.5 -363.5t-365.5 -115.5zM322 1577l157 299h355l-287 -299h-225z" />
    <glyph glyph-name="Ccedilla.ss01" horiz-adv-x="1435" 
d="M743 1225q-166 0 -261 -132t-95 -363.5t93 -364t257 -132.5q129 0 210 73t97 206h310q-20 -258 -184 -401.5t-433 -143.5q-203 0 -352 92.5t-229 263.5t-80 405t81 406.5t231.5 264.5t342 92t325.5 -67.5t209.5 -190.5t82.5 -281h-304q-14 127 -94 200t-207 73zM360 -444
l287 344h246l-199 -344h-334z" />
    <glyph glyph-name="Scedilla.ss01" horiz-adv-x="1290" 
d="M369 479q0 -268 282 -268q115 0 183.5 50t68.5 123.5t-30.5 109.5t-88 56.5t-209 59.5t-256 82t-173 130t-68.5 225.5t67.5 236.5t190.5 152.5t280 54.5q273 0 413 -122t140 -357h-305q0 115 -65.5 177t-177 62t-173 -44t-61.5 -107t31 -98t96.5 -61t213 -62.5
t251.5 -80.5q238 -101 238 -370q0 -137 -72 -241.5t-201 -162t-297 -57.5q-276 0 -433 133t-157 379h312zM248 -444l287 344h245l-198 -344h-334z" />
    <glyph glyph-name="uni0162.ss01" horiz-adv-x="1259" 
d="M780 1200v-1200h-301v1200h-459v258h1219v-258h-459zM248 -444l287 344h245l-198 -344h-334z" />
    <glyph glyph-name="i.loclTRK" horiz-adv-x="565" 
d="M139 0v1040h287v-1040h-287zM139 1212v246h287v-246h-287z" />
    <glyph glyph-name="j.acute.loclNLD" horiz-adv-x="569" 
d="M76 -389q-76 0 -142 16v207q25 -6 56 -6q80 0 116.5 42t36.5 150v1020h287v-1063q0 -188 -95 -277t-259 -89zM113 1159l157 299h355l-287 -299h-225z" />
    <glyph glyph-name="ccedilla.ss01" horiz-adv-x="1150" 
d="M583 852q-93 0 -152.5 -89t-59.5 -242.5t59 -243t152.5 -89.5t145.5 58.5t58 161.5h301q-16 -199 -149 -320t-342 -121q-158 0 -276.5 68.5t-183 193.5t-64.5 291t64.5 291t183 193.5t266 68.5t255 -53t172 -149.5t74.5 -217.5h-299q-8 92 -60 145.5t-145 53.5zM213 -444
l287 344h245l-198 -344h-334z" />
    <glyph glyph-name="scedilla.ss01" horiz-adv-x="1073" 
d="M963 721h-275q0 152 -164 151q-68 0 -104.5 -25.5t-36.5 -66.5t22.5 -62.5t65.5 -35.5t154.5 -44t187.5 -60.5t130 -98t54 -186.5q0 -147 -123.5 -236.5t-339.5 -89.5t-339 93.5t-123 277.5h290q0 -78 47.5 -121t128.5 -43q158 0 158 100q0 78 -93 110q-44 15 -156.5 45
t-181 57.5t-119 91t-50.5 166t54.5 175t151.5 113.5t224 41q207 0 322 -90t115 -262zM152 -444l286 344h246l-199 -344h-333z" />
    <glyph glyph-name="uni0163.ss01" horiz-adv-x="731" 
d="M471 375q-1 -160 119 -160q58 0 90 10v-219q-66 -20 -152 -20q-180 0 -262 78.5t-82 259.5v503h-168v213h168v271h287v-271h199v-213h-199v-452zM25 -444l286 344h246l-199 -344h-333z" />
    <glyph glyph-name="a.sups" horiz-adv-x="843" 
d="M386 817q128 0 128 162v27q-169 -12 -201 -41t-32.5 -88.5t105.5 -59.5zM412 1427q340 0 340 -297v-247q0 -127 22 -207h-221q-12 43 -12 94h-2q-86 -113 -244 -113q-119 0 -188.5 63.5t-69.5 161.5t69.5 155t199.5 76t208 24v26q0 111 -102 111t-107 -100h-237
q6 111 92 182t252 71z" />
    <glyph glyph-name="b.sups" horiz-adv-x="915" 
d="M332 1040.5q0 -92.5 37 -145.5t99 -53t101 54t39 144t-39 144.5t-101 54.5t-99 -53t-37 -145.5zM555 1425q139 0 224 -104t85 -280.5t-87 -281t-229 -104.5t-210 109h-2v-88h-238v1020h246v-369h4q68 98 207 98z" />
    <glyph glyph-name="c.sups" horiz-adv-x="860" 
d="M438 1241q-56 0 -93.5 -53.5t-37.5 -147.5t37 -148t92 -54t88 36.5t35 96.5h256q-10 -145 -111.5 -231.5t-271.5 -86.5t-276.5 105.5t-106.5 282.5t106.5 281.5t274.5 104.5t270.5 -82.5t114.5 -220.5h-254q-4 53 -35.5 85t-87.5 32z" />
    <glyph glyph-name="d.sups" horiz-adv-x="915" 
d="M307 1040q0 -90 39.5 -144t101.5 -54t99 53t37 145.5t-37 145.5t-99 53t-101.5 -54.5t-39.5 -144.5zM368 655q-142 0 -229.5 104.5t-87.5 281t85 280.5t229 104q61 0 115.5 -25.5t86.5 -72.5h4v369h246v-1020h-237v88h-2q-68 -109 -210 -109z" />
    <glyph glyph-name="e.sups" horiz-adv-x="872" 
d="M295 1126h280q-8 72 -45.5 107t-93.5 35q-118 -1 -141 -142zM421 653q-165 0 -268.5 108.5t-103.5 282.5q0 109 46 196t134 137t213 50q124 0 218 -61q133 -87 155 -258q6 -47 6 -119h-530q4 -92 44 -132t96 -40t90 22.5t40 59.5h250q-25 -106 -125 -176t-265 -70z" />
    <glyph glyph-name="egrave.sups" horiz-adv-x="872" 
d="M295 1126h280q-8 72 -45.5 107t-93.5 35q-118 -1 -141 -142zM421 653q-165 0 -268.5 108.5t-103.5 282.5q0 109 46 196t134 137t213 50q124 0 218 -61q133 -87 155 -258q6 -47 6 -119h-530q4 -92 44 -132t96 -40t90 22.5t40 59.5h250q-25 -106 -125 -176t-265 -70z
M125 1696h309l148 -213h-217z" />
    <glyph glyph-name="f.sups" horiz-adv-x="536" 
d="M133 1454q0 256 273 256q63 0 116 -14v-168q-16 4 -54 4t-63.5 -24.5t-25.5 -80.5v-22h137v-178h-137v-551h-246v551h-119v178h119v49z" />
    <glyph glyph-name="g.sups" horiz-adv-x="901" 
d="M303 1061q0 -82 36 -129t98 -47t98 48t36 128t-35.5 128t-97.5 48t-98.5 -47t-36.5 -129zM319 631q5 -78 121 -78q126 0 125 170v78h-4q-76 -105 -211 -105t-218 98.5t-83 266.5t84 266.5t220 98.5t218 -117h2v96h230v-680q0 -166 -97.5 -248t-266.5 -82t-258 61.5
t-99 174.5h237z" />
    <glyph glyph-name="h.sups" horiz-adv-x="913" 
d="M578 1096q0 137 -109 137q-59 0 -92 -46t-33 -136v-375h-246v1020h246v-363h4q74 90 202 90t200.5 -76.5t72.5 -222.5v-448h-245v420z" />
    <glyph glyph-name="i.sups" horiz-adv-x="442" 
d="M98 676v729h246v-729h-246zM98 1505v191h246v-191h-246z" />
    <glyph glyph-name="j.sups" horiz-adv-x="448" 
d="M74 403q-70 0 -119 13v172q25 -4 39 -4q57 0 83.5 30.5t26.5 108.5v682h246v-723q0 -143 -74.5 -211t-201.5 -68zM104 1505v191h246v-191h-246z" />
    <glyph glyph-name="k.sups" horiz-adv-x="843" 
d="M344 1004v-328h-246v1022h246v-578h4l199 285h284l-266 -342l293 -387h-301l-209 328h-4z" />
    <glyph glyph-name="l.sups" horiz-adv-x="442" 
d="M98 676v1020h246v-1020h-246z" />
    <glyph glyph-name="m.sups" horiz-adv-x="1355" 
d="M461 1233q-117 0 -117 -189v-368h-246v729h230v-84h4q80 102 211 102q158 0 221 -125q88 125 240 125q122 0 192 -76.5t70 -222.5v-448h-246v420q0 137 -98 137q-55 0 -86 -47t-31 -142v-368h-246v430q0 127 -98 127z" />
    <glyph glyph-name="n.sups" horiz-adv-x="913" 
d="M578 1096q0 137 -109 137q-59 0 -92 -46t-33 -136v-375h-246v729h230v-88h2q82 106 215 106t205.5 -76.5t72.5 -222.5v-448h-245v420z" />
    <glyph glyph-name="o.sups" horiz-adv-x="897" 
d="M309 1040.5q0 -94.5 38 -148.5t101.5 -54t101.5 54t38 148.5t-37 147.5t-102.5 53t-102.5 -53t-37 -147.5zM846 1040q0 -178 -107.5 -282.5t-290 -104.5t-290 104.5t-107.5 281.5t107.5 282.5t290 105.5t290 -104.5t107.5 -282.5z" />
    <glyph glyph-name="p.sups" horiz-adv-x="915" 
d="M332 1040.5q0 -92.5 37 -145.5t99 -53t101 54t39 144t-39 144.5t-101 54.5t-99 -53t-37 -145.5zM548 1425q142 0 229 -104t87 -280.5t-85 -281t-224 -104.5t-207 97h-4v-340h-246v993h238v-90h2q68 110 210 110z" />
    <glyph glyph-name="q.sups" horiz-adv-x="915" 
d="M307 1040q0 -90 39.5 -144t101.5 -54t99 53t37 145.5t-37 145.5t-99 53t-101.5 -54.5t-39.5 -144.5zM367 1425q142 0 211 -110h2v90h237v-993h-246v340h-4q-68 -97 -207 -97q-138 0 -223.5 104.5t-85.5 281t87 280.5t229 104z" />
    <glyph glyph-name="r.sups" horiz-adv-x="624" 
d="M541 1415q40 0 71 -8v-211q-33 8 -75 8q-94 0 -143.5 -55t-49.5 -160v-313h-246v729h228v-100h4q75 110 211 110z" />
    <glyph glyph-name="s.sups" horiz-adv-x="811" 
d="M414 813q94 1 94 63q0 32 -35 49t-130 41t-184 58t-89 174q0 102 87 165.5t244.5 63.5t244.5 -61t87 -182h-235q0 90 -92 90t-93 -55q0 -31 31 -46t124 -39t191.5 -63.5t98.5 -183.5q0 -106 -93 -170t-261 -64t-260.5 64.5t-92.5 195.5h248q0 -100 115 -100z" />
    <glyph glyph-name="t.sups" horiz-adv-x="561" 
d="M375 967q1 -109 85 -109q42 0 64 6v-184q-66 -16 -125 -16q-141 0 -204.5 57t-63.5 186v320h-119v178h119v197h244v-197h141v-178h-141v-260z" />
    <glyph glyph-name="u.sups" horiz-adv-x="913" 
d="M336 985q0 -137 108 -137q59 0 92 46t33 136v375h246v-729h-229v88h-2q-82 -106 -215 -106t-206 76.5t-73 221.5v449h246v-420z" />
    <glyph glyph-name="v.sups" horiz-adv-x="790" 
d="M231 676l-241 729h262l72 -262q47 -180 69 -309h4q23 129 70 309l72 262h262l-242 -729h-328z" />
    <glyph glyph-name="w.sups" horiz-adv-x="1255" 
d="M745 676l-59 270q-29 133 -57 305h-2q-25 -158 -56 -305l-61 -270h-336l-166 729h240l49 -266q33 -178 45 -308h4q29 184 60 310l61 264h321l62 -264q37 -150 61 -310h2q16 137 48 308l47 266h239l-166 -729h-336z" />
    <glyph glyph-name="x.sups" horiz-adv-x="790" 
d="M799 676h-281l-121 231h-4l-121 -231h-280l250 375l-234 354h279l106 -207h4l107 207h278l-233 -354z" />
    <glyph glyph-name="y.sups" horiz-adv-x="788" 
d="M200 401q-86 0 -137 13v184q35 -10 81 -10t77 23t31 55t-7 58t-34 95l-221 586h266l70 -244q49 -170 75 -303h5q33 158 73 303l68 244h252l-246 -705q-41 -114 -88 -178.5t-113 -92.5t-152 -28z" />
    <glyph glyph-name="z.sups" horiz-adv-x="737" 
d="M344 864h352v-188h-655v194l340 342v5h-328v188h631v-195l-340 -342v-4z" />
    <glyph glyph-name="a.smcp" horiz-adv-x="1200" 
d="M717 532q-72 227 -115 398h-4q-49 -201 -113 -398l-22 -69h274zM387 219l-68 -219h-313l397 1122h394l397 -1122h-313l-68 219h-426z" />
    <glyph glyph-name="aacute.smcp" horiz-adv-x="1200" 
d="M717 532q-72 227 -115 398h-4q-49 -201 -113 -398l-22 -69h274zM387 219l-68 -219h-313l397 1122h394l397 -1122h-313l-68 219h-426zM426 1241l158 299h354l-287 -299h-225z" />
    <glyph glyph-name="abreve.smcp" horiz-adv-x="1200" 
d="M717 532q-72 227 -115 398h-4q-49 -201 -113 -398l-22 -69h274zM387 219l-68 -219h-313l397 1122h394l397 -1122h-313l-68 219h-426zM600 1231q-160 0 -255 81t-103 228h194q4 -61 48 -96t116 -35t116 35t48 96h194q-8 -147 -103 -228t-255 -81z" />
    <glyph glyph-name="acircumflex.smcp" horiz-adv-x="1200" 
d="M717 532q-72 227 -115 398h-4q-49 -201 -113 -398l-22 -69h274zM387 219l-68 -219h-313l397 1122h394l397 -1122h-313l-68 219h-426zM600 1397l-125 -156h-262l233 299h306l233 -299h-262z" />
    <glyph glyph-name="adieresis.smcp" horiz-adv-x="1200" 
d="M717 532q-72 227 -115 398h-4q-49 -201 -113 -398l-22 -69h274zM387 219l-68 -219h-313l397 1122h394l397 -1122h-313l-68 219h-426zM696 1294v246h252v-246h-252zM252 1294v246h252v-246h-252z" />
    <glyph glyph-name="agrave.smcp" horiz-adv-x="1200" 
d="M717 532q-72 227 -115 398h-4q-49 -201 -113 -398l-22 -69h274zM387 219l-68 -219h-313l397 1122h394l397 -1122h-313l-68 219h-426zM774 1241h-225l-287 299h354z" />
    <glyph glyph-name="amacron.smcp" horiz-adv-x="1200" 
d="M717 532q-72 227 -115 398h-4q-49 -201 -113 -398l-22 -69h274zM387 219l-68 -219h-313l397 1122h394l397 -1122h-313l-68 219h-426zM266 1307v186h668v-186h-668z" />
    <glyph glyph-name="aogonek.smcp" horiz-adv-x="1200" 
d="M717 532q-72 227 -115 398h-4q-49 -201 -113 -398l-22 -69h274zM1055 -180q0 -63 71 -64q43 0 74 13v-146q-68 -27 -171.5 -26.5t-161.5 47.5t-58 122t39 127t121 107h-88l-68 219h-426l-68 -219h-313l397 1122h394l397 -1122q-78 -53 -108.5 -95t-30.5 -85z" />
    <glyph glyph-name="aring.smcp" horiz-adv-x="1200" 
d="M717 532q-72 227 -115 398h-4q-49 -201 -113 -398l-22 -69h274zM387 219l-68 -219h-313l397 1122h394l397 -1122h-313l-68 219h-426zM489 1443q0 -46 33 -79t79 -33t78 33t32 79t-32 77.5t-78 31.5t-79 -31.5t-33 -77.5zM821 1442q0 -92 -64.5 -156.5t-156.5 -64.5
t-156.5 64.5t-64.5 156.5t64.5 156.5t156.5 64.5t156.5 -64.5t64.5 -156.5z" />
    <glyph glyph-name="atilde.smcp" horiz-adv-x="1200" 
d="M717 532q-72 227 -115 398h-4q-49 -201 -113 -398l-22 -69h274zM387 219l-68 -219h-313l397 1122h394l397 -1122h-313l-68 219h-426zM731 1446q82 0 94 94h160q-6 -129 -69.5 -202.5t-172.5 -73.5q-73 0 -139 37.5t-87 47t-48 9.5q-82 0 -94 -94h-160q6 129 69.5 202.5
t172.5 73.5q75 0 158.5 -47t115.5 -47z" />
    <glyph glyph-name="ae.smcp" horiz-adv-x="1646" 
d="M723 885h-23l-178 -408h264zM1554 0h-694l-37 236h-407l-103 -236h-323l528 1122h1026v-245h-528l28 -189h459v-242h-420l31 -200h440v-246z" />
    <glyph glyph-name="b.smcp" horiz-adv-x="1159" 
d="M444 229h136q106 0 147 23.5t41 88.5t-43 91.5t-147 26.5h-134v-230zM444 676h129q96 0 140.5 26.5t44.5 84t-41 83t-129 25.5h-144v-219zM1073 311q0 -143 -115.5 -227t-316.5 -84h-489v1122h458q215 0 324.5 -77.5t109.5 -210.5q0 -205 -210 -256v-5q239 -39 239 -262z
" />
    <glyph glyph-name="c.smcp" horiz-adv-x="1245" 
d="M379 560q0 -157 65.5 -247t165.5 -90q196 0 224 185h311q-18 -211 -156.5 -326t-381 -115t-390 158t-147.5 436q0 182 66.5 316.5t191.5 206t295 71.5q229 0 368 -116.5t148 -319.5h-305q-20 180 -222 180q-102 0 -167.5 -91t-65.5 -248z" />
    <glyph glyph-name="cacute.smcp" horiz-adv-x="1245" 
d="M379 560q0 -157 65.5 -247t165.5 -90q196 0 224 185h311q-18 -211 -156.5 -326t-381 -115t-390 158t-147.5 436q0 182 66.5 316.5t191.5 206t295 71.5q229 0 368 -116.5t148 -319.5h-305q-20 180 -222 180q-102 0 -167.5 -91t-65.5 -248zM446 1241l158 299h354l-286 -299
h-226z" />
    <glyph glyph-name="ccaron.smcp" horiz-adv-x="1245" 
d="M379 560q0 -157 65.5 -247t165.5 -90q196 0 224 185h311q-18 -211 -156.5 -326t-381 -115t-390 158t-147.5 436q0 182 66.5 316.5t191.5 206t295 71.5q229 0 368 -116.5t148 -319.5h-305q-20 180 -222 180q-102 0 -167.5 -91t-65.5 -248zM467 1241l-234 299h263l125 -156
l122 156h263l-234 -299h-305z" />
    <glyph glyph-name="ccedilla.smcp" horiz-adv-x="1245" 
d="M834 719q-20 180 -222 180q-102 0 -167.5 -91t-65.5 -248t65.5 -247t165.5 -90q196 0 224 185h311q-17 -197 -138.5 -309.5t-322.5 -129.5l-59 -94q27 10 82 10t106 -42t51 -119.5t-65.5 -132t-186.5 -54.5t-231 62l45 92q84 -45 174 -45t90 72q0 34 -26.5 55.5
t-66.5 21.5t-71 -12l-43 47l88 139q-236 16 -368.5 172t-132.5 420q0 182 66.5 316.5t191.5 206t295 71.5q229 0 368 -116.5t148 -319.5h-305z" />
    <glyph glyph-name="ccircumflex.smcp" horiz-adv-x="1245" 
d="M379 560q0 -157 65.5 -247t165.5 -90q196 0 224 185h311q-18 -211 -156.5 -326t-381 -115t-390 158t-147.5 436q0 182 66.5 316.5t191.5 206t295 71.5q229 0 368 -116.5t148 -319.5h-305q-20 180 -222 180q-102 0 -167.5 -91t-65.5 -248zM621 1397l-125 -156h-263
l234 299h305l234 -299h-263z" />
    <glyph glyph-name="cdotaccent.smcp" horiz-adv-x="1245" 
d="M379 560q0 -157 65.5 -247t165.5 -90q196 0 224 185h311q-18 -211 -156.5 -326t-381 -115t-390 158t-147.5 436q0 182 66.5 316.5t191.5 206t295 71.5q229 0 368 -116.5t148 -319.5h-305q-20 180 -222 180q-102 0 -167.5 -91t-65.5 -248zM477 1294v246h287v-246h-287z
" />
    <glyph glyph-name="d.smcp" horiz-adv-x="1271" 
d="M446 252h121q328 0 328 309t-328 309h-121v-618zM1204 561q0 -270 -163.5 -415.5t-469.5 -145.5h-419v1122h419q306 0 469.5 -145.5t163.5 -415.5z" />
    <glyph glyph-name="eth.smcp" horiz-adv-x="1280" 
d="M903 561q0 309 -328 309h-120v-208h223v-189h-223v-221h120q328 0 328 309zM1212 561q0 -270 -163.5 -415.5t-468.5 -145.5h-420v473h-127v189h127v460h420q305 0 468.5 -145.5t163.5 -415.5z" />
    <glyph glyph-name="dcaron.smcp" horiz-adv-x="1271" 
d="M446 252h121q328 0 328 309t-328 309h-121v-618zM1204 561q0 -270 -163.5 -415.5t-469.5 -145.5h-419v1122h419q306 0 469.5 -145.5t163.5 -415.5zM432 1241l-233 299h262l125 -156l123 156h262l-234 -299h-305z" />
    <glyph glyph-name="dcroat.smcp" horiz-adv-x="1280" 
d="M903 561q0 309 -328 309h-120v-208h223v-189h-223v-221h120q328 0 328 309zM580 0h-420v473h-127v189h127v460h420q305 0 469 -145q163 -145 163 -415t-163 -417q-164 -145 -469 -145z" />
    <glyph glyph-name="e.smcp" horiz-adv-x="1097" 
d="M446 877v-189h508v-242h-508v-200h560v-246h-854v1122h843v-245h-549z" />
    <glyph glyph-name="eacute.smcp" horiz-adv-x="1097" 
d="M446 877v-189h508v-242h-508v-200h560v-246h-854v1122h843v-245h-549zM399 1241l158 299h354l-286 -299h-226z" />
    <glyph glyph-name="ebreve.smcp" horiz-adv-x="1097" 
d="M446 877v-189h508v-242h-508v-200h560v-246h-854v1122h843v-245h-549zM573.5 1231q-159.5 0 -255 81t-103.5 228h195q4 -61 48 -96t115.5 -35t115.5 35t48 96h195q-8 -147 -103.5 -228t-255 -81z" />
    <glyph glyph-name="ecaron.smcp" horiz-adv-x="1097" 
d="M446 877v-189h508v-242h-508v-200h560v-246h-854v1122h843v-245h-549zM420 1241l-234 299h263l124 -156l123 156h262l-233 -299h-305z" />
    <glyph glyph-name="ecircumflex.smcp" horiz-adv-x="1097" 
d="M446 877v-189h508v-242h-508v-200h560v-246h-854v1122h843v-245h-549zM573 1397l-124 -156h-263l234 299h305l233 -299h-262z" />
    <glyph glyph-name="edieresis.smcp" horiz-adv-x="1097" 
d="M446 877v-189h508v-242h-508v-200h560v-246h-854v1122h843v-245h-549zM670 1294v246h252v-246h-252zM225 1294v246h252v-246h-252z" />
    <glyph glyph-name="edotaccent.smcp" horiz-adv-x="1097" 
d="M446 877v-189h508v-242h-508v-200h560v-246h-854v1122h843v-245h-549zM430 1294v246h287v-246h-287z" />
    <glyph glyph-name="egrave.smcp" horiz-adv-x="1097" 
d="M446 877v-189h508v-242h-508v-200h560v-246h-854v1122h843v-245h-549zM748 1241h-226l-286 299h354z" />
    <glyph glyph-name="emacron.smcp" horiz-adv-x="1097" 
d="M446 877v-189h508v-242h-508v-200h560v-246h-854v1122h843v-245h-549zM240 1307v186h667v-186h-667z" />
    <glyph glyph-name="eogonek.smcp" horiz-adv-x="1097" 
d="M446 877v-189h508v-242h-508v-200h560v-246q-78 -53 -109 -95t-31 -85q0 -63 72 -64q43 0 74 13v-146q-68 -27 -172 -27t-161.5 47.5t-57.5 122.5t38.5 127t120.5 107h-628v1122h843v-245h-549z" />
    <glyph glyph-name="f.smcp" horiz-adv-x="1005" 
d="M446 872v-237h482v-250h-482v-385h-294v1122h815v-250h-521z" />
    <glyph glyph-name="fi.smcp" horiz-adv-x="1603" 
d="M446 872v-237h482v-250h-482v-385h-294v1122h815v-250h-521zM1157 0v1122h295v-1122h-295z" />
    <glyph glyph-name="fl.smcp" horiz-adv-x="2002" 
d="M446 872v-237h482v-250h-482v-385h-294v1122h815v-250h-521zM1982 250v-250h-825v1122h295v-872h530z" />
    <glyph glyph-name="g.smcp" horiz-adv-x="1288" 
d="M70 559q0 182 70.5 316.5t200.5 207t325.5 72.5t328.5 -102.5t160 -284.5h-313q-33 139 -195 139q-123 0 -195.5 -93t-72.5 -259t70.5 -261t186.5 -95t174 56t62 157h-249v225h528v-637h-252v98h-4q-112 -125 -326 -125q-154 0 -266.5 71t-172.5 202t-60 313z" />
    <glyph glyph-name="gbreve.smcp" horiz-adv-x="1288" 
d="M70 559q0 182 70.5 316.5t200.5 207t325.5 72.5t328.5 -102.5t160 -284.5h-313q-33 139 -195 139q-123 0 -195.5 -93t-72.5 -259t70.5 -261t186.5 -95t174 56t62 157h-249v225h528v-637h-252v98h-4q-112 -125 -326 -125q-154 0 -266.5 71t-172.5 202t-60 313zM633 1231
q-160 0 -255 81t-104 228h195q4 -61 48 -96t116 -35t116 35t48 96h194q-8 -147 -103 -228t-255 -81z" />
    <glyph glyph-name="gcircumflex.smcp" horiz-adv-x="1288" 
d="M70 559q0 182 70.5 316.5t200.5 207t325.5 72.5t328.5 -102.5t160 -284.5h-313q-33 139 -195 139q-123 0 -195.5 -93t-72.5 -259t70.5 -261t186.5 -95t174 56t62 157h-249v225h528v-637h-252v98h-4q-112 -125 -326 -125q-154 0 -266.5 71t-172.5 202t-60 313zM633 1397
l-125 -156h-262l233 299h305l234 -299h-262z" />
    <glyph glyph-name="gcommaaccent.smcp" horiz-adv-x="1288" 
d="M70 559q0 182 70.5 316.5t200.5 207t325.5 72.5t328.5 -102.5t160 -284.5h-313q-33 139 -195 139q-123 0 -195.5 -93t-72.5 -259t70.5 -261t186.5 -95t174 56t62 157h-249v225h528v-637h-252v98h-4q-112 -125 -326 -125q-154 0 -266.5 71t-172.5 202t-60 313zM508 -334
v213h254v-213l-139 -219h-115l92 219h-92z" />
    <glyph glyph-name="gdotaccent.smcp" horiz-adv-x="1288" 
d="M70 559q0 182 70.5 316.5t200.5 207t325.5 72.5t328.5 -102.5t160 -284.5h-313q-33 139 -195 139q-123 0 -195.5 -93t-72.5 -259t70.5 -261t186.5 -95t174 56t62 157h-249v225h528v-637h-252v98h-4q-112 -125 -326 -125q-154 0 -266.5 71t-172.5 202t-60 313zM489 1294
v246h287v-246h-287z" />
    <glyph glyph-name="h.smcp" horiz-adv-x="1314" 
d="M868 0v455h-422v-455h-294v1122h294v-417h422v417h295v-1122h-295z" />
    <glyph glyph-name="hbar.smcp" horiz-adv-x="1314" 
d="M446 889v-184h422v184h-422zM1163 889v-889h-295v455h-422v-455h-294v889h-82v127h82v106h294v-106h422v106h295v-106h82v-127h-82z" />
    <glyph glyph-name="uni0125.smcp" horiz-adv-x="1314" 
d="M868 0v455h-422v-455h-294v1122h294v-417h422v417h295v-1122h-295zM657 1397l-125 -156h-262l234 299h305l233 -299h-262z" />
    <glyph glyph-name="i.smcp" horiz-adv-x="598" 
d="M152 0v1122h294v-1122h-294z" />
    <glyph glyph-name="iacute.smcp" horiz-adv-x="598" 
d="M152 0v1122h294v-1122h-294zM125 1241l158 299h354l-287 -299h-225z" />
    <glyph glyph-name="ibreve.smcp" horiz-adv-x="598" 
d="M152 0v1122h294v-1122h-294zM299 1231q-147 0 -232 81t-94 228h181q4 -66 43 -102.5t102 -36.5t102 37t43 102h181q-9 -145 -94 -227t-232 -82z" />
    <glyph glyph-name="icircumflex.smcp" horiz-adv-x="598" 
d="M152 0v1122h294v-1122h-294zM408 1243l-109 158l-109 -158h-247l211 297h288l211 -297h-245z" />
    <glyph glyph-name="idieresis.smcp" horiz-adv-x="598" 
d="M152 0v1122h294v-1122h-294zM350 1294v246h252v-246h-252zM-4 1294v246h252v-246h-252z" />
    <glyph glyph-name="i.loclTRK.smcp" horiz-adv-x="598" 
d="M152 0v1122h294v-1122h-294zM156 1294v246h286v-246h-286z" />
    <glyph glyph-name="igrave.smcp" horiz-adv-x="598" 
d="M152 0v1122h294v-1122h-294zM473 1241h-225l-287 299h354z" />
    <glyph glyph-name="ij.smcp" horiz-adv-x="1298" 
d="M152 0v1122h294v-1122h-294zM752 -12q-68 0 -125 14l-2 242q37 -6 75 -6q90 0 127 45t37 172v667h293v-735q0 -207 -97 -303t-308 -96z" />
    <glyph glyph-name="imacron.smcp" horiz-adv-x="598" 
d="M152 0v1122h294v-1122h-294zM6 1317v186h586v-186h-586z" />
    <glyph glyph-name="iogonek.smcp" horiz-adv-x="598" 
d="M152 0v1122h294v-1122q-78 -53 -108.5 -95t-30.5 -85q0 -63 72 -64q43 0 74 13v-146q-67 -27 -171 -27t-162.5 47.5t-58.5 122.5t39 127t121 107h-69z" />
    <glyph glyph-name="itilde.smcp" horiz-adv-x="598" 
d="M152 0v1122h294v-1122h-294zM418 1442q74 0 82 98h139q-6 -129 -63.5 -202.5t-157.5 -73.5q-45 0 -76 14t-68 40t-54 35t-40 9q-74 0 -82 -98h-137q6 131 62.5 203.5t156.5 72.5q45 0 77 -15.5t66 -38.5t53 -33.5t42 -10.5z" />
    <glyph glyph-name="j.smcp" horiz-adv-x="700" 
d="M154 -12q-68 0 -125 14l-2 242q37 -6 75 -6q90 0 127 45t37 172v667h293v-735q0 -207 -97 -303t-308 -96z" />
    <glyph glyph-name="jcircumflex.smcp" horiz-adv-x="700" 
d="M154 -12q-68 0 -125 14l-2 242q37 -6 75 -6q90 0 127 45t37 172v667h293v-735q0 -207 -97 -303t-308 -96zM524 1243l-108 158l-109 -158h-248l211 297h289l211 -297h-246z" />
    <glyph glyph-name="k.smcp" horiz-adv-x="1169" 
d="M446 512v-512h-294v1122h294v-479h7l327 479h348l-409 -530l442 -592h-373l-335 512h-7z" />
    <glyph glyph-name="kcommaaccent.smcp" horiz-adv-x="1169" 
d="M446 512v-512h-294v1122h294v-479h7l327 479h348l-409 -530l442 -592h-373l-335 512h-7zM465 -334v213h254v-213l-139 -219h-115l92 219h-92z" />
    <glyph glyph-name="l.smcp" horiz-adv-x="997" 
d="M977 250v-250h-825v1122h294v-872h531z" />
    <glyph glyph-name="lacute.smcp" horiz-adv-x="997" 
d="M977 250v-250h-825v1122h294v-872h531zM180 1241l158 299h354l-286 -299h-226z" />
    <glyph glyph-name="lcaron.smcp" horiz-adv-x="997" 
d="M977 250v-250h-825v1122h294v-872h531zM530 760l54 362h227l-119 -362h-162z" />
    <glyph glyph-name="lcommaaccent.smcp" horiz-adv-x="997" 
d="M977 250v-250h-825v1122h294v-872h531zM420 -334v213h254v-213l-139 -219h-115l92 219h-92z" />
    <glyph glyph-name="ldot.smcp" horiz-adv-x="1120" 
d="M702 557v342h316v-342h-316zM977 250v-250h-825v1122h294v-872h531z" />
    <glyph glyph-name="j.acute.loclNLD.smcp" horiz-adv-x="700" 
d="M154 -12q-68 0 -125 14l-2 242q37 -6 75 -6q90 0 127 45t37 172v667h293v-735q0 -207 -97 -303t-308 -96zM242 1241l157 299h355l-287 -299h-225z" />
    <glyph glyph-name="lslash.smcp" horiz-adv-x="999" 
d="M979 0h-825v444l-131 -73v213l131 73v465h295v-311l208 117v-213l-208 -117v-348h530v-250z" />
    <glyph glyph-name="m.smcp" horiz-adv-x="1740" 
d="M1307 0v543q0 207 12 409h-4q-61 -248 -107 -403l-161 -549h-353l-162 549q-45 156 -106 403h-4q12 -203 12 -409v-543h-282v1122h477l141 -487q66 -223 98 -408h4q33 184 99 408l141 487h477v-1122h-282z" />
    <glyph glyph-name="n.smcp" horiz-adv-x="1376" 
d="M434 412v-412h-282v1122h426l196 -436q100 -221 178 -436h4q-14 213 -14 461v411h283v-1122h-426l-195 436q-98 209 -180 436h-4q14 -213 14 -460z" />
    <glyph glyph-name="nacute.smcp" horiz-adv-x="1376" 
d="M434 412v-412h-282v1122h426l196 -436q100 -221 178 -436h4q-14 213 -14 461v411h283v-1122h-426l-195 436q-98 209 -180 436h-4q14 -213 14 -460zM514 1241l158 299h354l-287 -299h-225z" />
    <glyph glyph-name="ncaron.smcp" horiz-adv-x="1376" 
d="M434 412v-412h-282v1122h426l196 -436q100 -221 178 -436h4q-14 213 -14 461v411h283v-1122h-426l-195 436q-98 209 -180 436h-4q14 -213 14 -460zM535 1241l-234 299h262l125 -156l123 156h262l-233 -299h-305z" />
    <glyph glyph-name="ncommaaccent.smcp" horiz-adv-x="1376" 
d="M434 412v-412h-282v1122h426l196 -436q100 -221 178 -436h4q-14 213 -14 461v411h283v-1122h-426l-195 436q-98 209 -180 436h-4q14 -213 14 -460zM561 -334v213h254v-213l-139 -219h-115l92 219h-92z" />
    <glyph glyph-name="eng.smcp" horiz-adv-x="1329" 
d="M860 -338q-84 0 -135 14v193q29 -4 49 -4q115 0 115 100q0 27 -16.5 58.5t-73.5 128.5l-193 321q-98 164 -184 344h-4q16 -203 16 -383v-434h-282v1122h366l205 -342q113 -193 184 -344h4q-16 172 -16 383v303h283v-1155q0 -155 -86 -230t-232 -75z" />
    <glyph glyph-name="ntilde.smcp" horiz-adv-x="1376" 
d="M434 412v-412h-282v1122h426l196 -436q100 -221 178 -436h4q-14 213 -14 461v411h283v-1122h-426l-195 436q-98 209 -180 436h-4q14 -213 14 -460zM819 1446q82 0 94 94h160q-6 -129 -69.5 -202.5t-172.5 -73.5q-75 0 -167 55q-37 20 -58.5 29.5t-48.5 9.5q-82 0 -94 -94
h-160q6 129 69.5 202.5t172.5 73.5q75 0 158 -47q84 -47 116 -47z" />
    <glyph glyph-name="o.smcp" horiz-adv-x="1286" 
d="M377 561q0 -162 70.5 -252t195.5 -90t195.5 90t70.5 252t-70.5 252t-195.5 90t-195.5 -90t-70.5 -252zM1219 561q0 -182 -70 -316t-200 -206t-306 -72t-306 72t-199.5 206t-69.5 316t69.5 316.5t199.5 206t306 71.5t306 -71.5t200 -206t70 -316.5z" />
    </font>
</defs>
</svg>
